<svg xmlns="http://www.w3.org/2000/svg" xmlns:xlink="http://www.w3.org/1999/xlink" width="14" height="10" viewBox="0 0 14 10"><defs><path id="a" d="M0 0h12v10H0z"/></defs><clipPath id="b"><use xlink:href="#a" overflow="visible"/></clipPath><path clip-path="url(#b)" fill="#4C90CD" d="M9.332 6.021v2.083c0 .515-.184.957-.55 1.323a1.805 1.805 0 0 1-1.324.551H2.044c-.517 0-.958-.184-1.324-.551a1.8 1.8 0 0 1-.551-1.323V2.688c0-.516.183-.957.551-1.324.366-.366.807-.55 1.324-.55h4.581a.199.199 0 0 1 .207.209v.416c0 .061-.018.11-.058.149a.205.205 0 0 1-.149.06H2.044a.998.998 0 0 0-.735.305 1.003 1.003 0 0 0-.307.735v5.415c0 .285.103.531.307.732a.997.997 0 0 0 .735.308h5.414c.285 0 .531-.103.735-.308a1 1 0 0 0 .305-.732V6.021a.21.21 0 0 1 .059-.151.206.206 0 0 1 .15-.057h.415c.063 0 .111.019.151.057.039.04.059.089.059.151M11.83.398v3.331a.4.4 0 0 1-.123.293.398.398 0 0 1-.293.124.401.401 0 0 1-.293-.124L9.977 2.877 5.733 7.121a.216.216 0 0 1-.15.065.213.213 0 0 1-.149-.064l-.742-.745a.2.2 0 0 1-.065-.148c0-.057.021-.107.065-.149l4.243-4.243L7.79.69a.398.398 0 0 1-.125-.292c0-.113.042-.211.125-.293a.401.401 0 0 1 .292-.124h3.332c.113 0 .211.042.293.124s.123.18.123.293"/></svg>