<svg xmlns="http://www.w3.org/2000/svg" xmlns:xlink="http://www.w3.org/1999/xlink" width="23" height="23" viewBox="0 0 23 23"><path fill="#FFF" d="M0 0h23v23H0z"/><defs><path id="a" d="M0 0h23v23H0z"/></defs><clipPath id="b"><use xlink:href="#a" overflow="visible"/></clipPath><path clip-path="url(#b)" fill="#CB2721" d="M11.774 10.021c-2.907 0-6.342.111-6.864.246-.297.074-.52.203-.75.435-.406.403-.648.983-.746 1.784-.221 1.828-.227 4.039-.012 5.934.092.816.281 1.345.637 1.782.222.271.604.504.945.573.24.048 1.442.115 3.191.179.261.009.951.025 1.534.035a129.474 129.474 0 0 0 4.726-.027 111 111 0 0 0 2.718-.109c.082-.007.273-.019.425-.027.506-.029.828-.135 1.132-.373.392-.307.694-.877.822-1.544.122-.631.203-1.756.22-3.032a23.003 23.003 0 0 0-.081-2.567c-.099-1.166-.175-1.545-.416-2.031-.319-.645-.779-.985-1.436-1.059-.508-.059-2.416-.14-4.182-.179a76.93 76.93 0 0 0-1.863-.02M6.193 18.96c-.211 0-.283-.008-.291-.027-.006-.017-.014-1.383-.018-3.034l-.006-3.006-.555-.006-.556-.008v-.948l1.64.006 1.64.008.007.467.007.467-.567.008-.568.006-.012 3.029-.014 3.03-.492.006-.215.002m5.707.004v-7.031h.897v1.146c0 .631.009 1.146.019 1.146.011 0 .105-.084.21-.186.243-.234.446-.336.703-.355.03-.002.059-.004.086-.004.408 0 .655.239.772.744.039.17.043.361.043 1.92 0 1.9 0 1.908-.152 2.246-.079.177-.255.35-.399.392a1.056 1.056 0 0 1-.29.045c-.253 0-.483-.113-.738-.354-.109-.102-.209-.184-.225-.184-.019 0-.028.08-.028.237v.235H11.9zm4.998.062c-.523 0-1.026-.281-1.255-.737-.16-.319-.165-.383-.165-1.943 0-1.271.004-1.427.045-1.601.115-.491.401-.81.884-.985.141-.051.287-.076.434-.08h.029c.512 0 1.015.278 1.228.728.146.308.164.44.179 1.31l.014.778-.957.006-.957.007-.007.524c-.011.739.04.966.239 1.1.079.055.179.08.275.08a.442.442 0 0 0 .29-.098c.132-.116.169-.24.182-.603l.013-.317h.924l-.016.354c-.008.196-.031.42-.053.499-.125.463-.457.791-.937.925-.128.036-.26.053-.389.053m-7.45-.817a.476.476 0 0 0 .126-.019c.095-.026.159-.072.312-.225l.193-.192v-4.021h.897v5.21h-.896v-.272c0-.206-.008-.274-.032-.274-.018 0-.099.068-.18.151a1.72 1.72 0 0 1-.568.393c-.121.045-.24.067-.352.067-.229 0-.422-.095-.523-.269-.137-.236-.14-.29-.14-2.748v-2.258h.896l.007 2.126c.007 2.089.008 2.127.059 2.212.047.081.11.119.201.119m7.429-3.717c-.24 0-.394.115-.465.355-.03.102-.063.801-.039.86.013.034.082.04.504.04h.487l-.008-.443c-.007-.406-.013-.451-.066-.562-.086-.173-.212-.25-.413-.25m-3.578.059h-.015a.628.628 0 0 0-.35.139l-.087.066v3.181l.087.065c.122.093.25.141.366.141a.36.36 0 0 0 .199-.058.33.33 0 0 0 .127-.181c.039-.113.043-.257.038-1.595-.006-1.395-.01-1.477-.055-1.568a.33.33 0 0 0-.31-.19"/><path clip-path="url(#b)" fill="#2A2A2A" d="M7.791 9.105c-.02-.035-.018-2.085.004-2.376.029-.371-.034-.664-.301-1.414a32.28 32.28 0 0 1-.348-1.048c-.756-2.404-.716-2.263-.644-2.263a26.205 26.205 0 0 1 1.119.005c.006.005.166.592.359 1.305l.36 1.318c.003.013.117-.403.251-.922.283-1.091.44-1.692.447-1.697.013-.012.152-.015.611-.012l.507.003-.011.081c-.008.065-.354 1.229-.717 2.411l-.226.748c-.083.283-.183.617-.224.744l-.073.23v1.443c0 1.354-.003 1.445-.044 1.457-.091.027-1.052.014-1.07-.013m6.562.086c-.25-.033-.396-.129-.497-.328-.126-.25-.126-.248-.126-2.732V3.812h1.011l.012 2.137c.011 2.322.008 2.268.146 2.303.128.031.27-.037.445-.217l.168-.172.007-2.025.006-2.025.505-.008.505-.007v5.307l-.068.014a7.89 7.89 0 0 1-.91 0c-.037-.01-.043-.045-.043-.254v-.239l-.145.139c-.33.321-.686.471-1.016.426m-2.546-1.012c.173-.132.175-.144.184-1.636.009-1.159.004-1.355-.031-1.514-.048-.213-.131-.315-.293-.359-.21-.057-.403.064-.471.294-.051.177-.05 2.808.001 2.983.039.133.164.278.257.299a.471.471 0 0 0 .353-.067m-.397 1.012c-.451-.056-.866-.322-1.067-.685-.204-.37-.223-.563-.21-2.192.009-1.262.012-1.341.062-1.521.12-.432.351-.725.709-.901a1.458 1.458 0 0 1 1.486.089c.295.191.475.467.57.879.043.182.047.32.047 1.596 0 1.549-.008 1.639-.166 1.974a1.418 1.418 0 0 1-.859.709c-.16.043-.435.069-.572.052"/></svg>