<svg xmlns="http://www.w3.org/2000/svg" width="300" height="300" viewBox="0 0 300 300"><path fill="#FFF" d="M138.212 271.111c-63.093 0-114.419-51.332-114.419-114.432 0-63.087 51.327-114.421 114.419-114.421v11.467c-56.77 0-102.961 46.191-102.961 102.954 0 56.772 46.191 102.979 102.961 102.979 55.228 0 100.407-43.199 102.854-98.329.062-1.538.097-3.084.097-4.647h11.455c0 1.731-.035 3.438-.099 5.151-2.72 61.288-52.927 109.278-114.307 109.278"/><path fill="#FFF" d="M138.212 94.271c-34.424 0-62.427 27.998-62.427 62.409 0 34.422 28.002 62.43 62.427 62.43 34.406 0 62.421-28.008 62.421-62.43.001-34.411-28.015-62.409-62.421-62.409m0 131.139c-37.892 0-68.732-30.816-68.732-68.73 0-37.884 30.84-68.719 68.732-68.719 37.888 0 68.731 30.835 68.731 68.719 0 37.914-30.843 68.73-68.731 68.73"/><path fill="#FFF" d="M158.85 66.123c35.898 8.091 63.402 36.217 70.657 72.254l29.935-4.189c-9.199-48.771-47.725-87.959-96.357-98.003l-4.235 29.938zm61.067 85.174l-.794-5.684c-4.969-35.59-32.135-63.429-67.643-69.258l-5.531-.904 7.441-52.523 5.738.893c58.152 9.125 104.444 56.174 112.585 114.437l.794 5.674-52.59 7.365zm-94.192 5.391c0 6.912 5.58 12.498 12.487 12.498 6.897 0 12.488-5.586 12.488-12.498 0-6.896-5.591-12.479-12.488-12.479-6.907 0-12.487 5.581-12.487 12.479"/><path fill="#FFF" d="M138.212 116.626c-22.099 0-40.062 17.972-40.062 40.062 0 22.086 17.963 40.063 40.062 40.063 22.084 0 40.08-17.978 40.08-40.063 0-22.09-17.995-40.062-40.08-40.062m0 91.597c-28.427 0-51.538-23.121-51.538-51.535 0-28.402 23.111-51.525 51.538-51.525 28.413 0 51.534 23.124 51.534 51.525 0 28.414-23.121 51.535-51.534 51.535"/><path fill="#FFF" d="M131.968 186.057a6.234 6.234 0 0 0 6.245 6.248 6.25 6.25 0 0 0 6.252-6.248c0-3.43-2.814-6.229-6.252-6.229a6.237 6.237 0 0 0-6.245 6.229m32.255-14.354c3.278 1.068 6.805-.727 7.856-4.014a6.223 6.223 0 0 0-4.021-7.864c-3.254-1.069-6.771.725-7.851 4.004-1.059 3.297.729 6.814 4.016 7.874m-3.696-35.103c2.021-2.788 1.396-6.699-1.387-8.727-2.775-2.029-6.688-1.401-8.717 1.387-2.038 2.784-1.402 6.687 1.373 8.714a6.257 6.257 0 0 0 8.731-1.374m-34.528-7.345a6.255 6.255 0 0 0-8.728-1.387c-2.796 2.027-3.402 5.938-1.374 8.723a6.235 6.235 0 0 0 8.714 1.388 6.238 6.238 0 0 0 1.388-8.724m-17.654 30.57c-3.288 1.067-5.077 4.596-4.022 7.874a6.253 6.253 0 0 0 11.892-3.862c-1.066-3.278-4.596-5.081-7.87-4.012"/></svg>