<svg xmlns="http://www.w3.org/2000/svg" xmlns:xlink="http://www.w3.org/1999/xlink" width="23" height="23" viewBox="0.5 15.5 23 23"><defs><path id="a" d="M.5 15.5h23v23H.5z"/></defs><clipPath id="b"><use xlink:href="#a" overflow="visible"/></clipPath><path clip-path="url(#b)" fill="#3C5A98" d="M.5 15.5h23v23H.5z"/><defs><path id="c" d="M.5 15.5h23v23H.5z"/></defs><clipPath id="d"><use xlink:href="#c" overflow="visible"/></clipPath><path clip-path="url(#d)" fill="#6D84B3" d="M2.143 33.571h19.714v3.286H2.143z"/><defs><path id="e" d="M.5 15.5h23v23H.5z"/></defs><clipPath id="f"><use xlink:href="#e" overflow="visible"/></clipPath><path clip-path="url(#f)" fill="#FFF" d="M13.643 36.857v-8.456h-2.235v-3.044h2.235v-2.601c0-2.043 1.321-3.92 4.364-3.92 1.232 0 2.144.118 2.144.118l-.072 2.843s-.929-.009-1.943-.009c-1.097 0-1.272.506-1.272 1.345v2.224h3.303l-.144 3.044h-3.159v8.456h-3.221z"/></svg>