<svg xmlns="http://www.w3.org/2000/svg" width="84" height="88" viewBox="0 0 84 88"><g fill="#FFF"><path d="M11.721 0a3.072 3.072 0 0 0-3.075 3.069v13.429c0 1.694 1.377 3.068 3.075 3.068s3.074-1.374 3.074-3.068V3.069A3.071 3.071 0 0 0 11.721 0zm60.581 0a3.071 3.071 0 0 0-3.074 3.069v13.429a3.071 3.071 0 0 0 3.074 3.068 3.072 3.072 0 0 0 3.074-3.068V3.069A3.072 3.072 0 0 0 72.302 0zM51.988 54.242h-7.571v-7.796h7.571v7.796zm12.406 0h-7.571v-7.796h7.571v7.796zm12.405 0h-7.571v-7.796h7.571v7.796zm-62.026 0H7.201v-7.796h7.572v7.796zm12.405 0h-7.572v-7.796h7.572v7.796zm12.405 0h-7.571v-7.796h7.571v7.796zm12.405-10.321h-7.571v-7.796h7.571v7.796zm12.406 0h-7.571v-7.796h7.571v7.796zm12.405 0h-7.571v-7.796h7.571v7.796zM51.988 64.562h-7.571v-7.794h7.571v7.794zm12.406 0h-7.571v-7.794h7.571v7.794zm12.405 0h-7.571v-7.794h7.571v7.794zm-62.026 0H7.201v-7.794h7.572v7.794zm12.405 0h-7.572v-7.794h7.572v7.794zm12.405 0h-7.571v-7.794h7.571v7.794zm-24.81 10.322H7.201v-7.797h7.572v7.797zm12.405 0h-7.572v-7.797h7.572v7.797zm12.405 0h-7.571v-7.797h7.571v7.797z"/><path d="M76.312 11.237v7.812a4.023 4.023 0 0 1-4.026 4.019 4.022 4.022 0 0 1-4.025-4.019v-7.812H15.74v7.812c0 2.219-1.803 4.019-4.027 4.019s-4.026-1.8-4.026-4.019v-7.812H0V88h84V11.237h-7.688zm4.082 73.164H3.606V29.865h76.788v54.536z"/></g></svg>