<svg xmlns="http://www.w3.org/2000/svg" width="300" height="300" viewBox="0 0 300 300"><g fill="#FFF"><path d="M148.893 221.314V114.247h-10.378v107.067c-6.449 2.176-11.112 8.271-11.112 15.444 0 8.988 7.314 16.301 16.305 16.301 8.984 0 16.293-7.313 16.293-16.301 0-7.175-4.661-13.27-11.108-15.444z"/><path d="M164.778 208.027v-24.509h4.439v-10.377h-4.439v-48.643h4.439v-10.376h-4.439V65.477h4.439V55.101h-4.439v-3.037c0-11.614-9.453-21.063-21.073-21.063-11.614 0-21.063 9.449-21.063 21.063v155.963c-9.204 6.743-14.675 17.425-14.675 28.732 0 19.708 16.033 35.741 35.741 35.741s35.741-16.033 35.741-35.741c.001-11.309-5.469-21.991-14.671-28.732zm-21.069 53.589c-13.707 0-24.859-11.151-24.859-24.857a24.778 24.778 0 0 1 6.406-16.617 24.897 24.897 0 0 1 7.175-5.519l.818-.417V59.732c0-18.431 4.294-18.431 10.238-18.431h.214c5.758 0 9.63 0 10.344 13.8h-4.397v10.376h4.525v48.644h-3.525v10.376h3.525v48.643h-3.525v10.377h3.525v30.687l.816.418a24.925 24.925 0 0 1 7.175 5.523c4.132 4.587 6.407 10.486 6.407 16.613 0 13.707-11.153 24.858-24.862 24.858zm32.887-227.919c-5.49 0-9.476 3.944-9.476 9.378 0 5.673 3.896 9.636 9.476 9.636 5.496 0 9.484-4.008 9.484-9.53 0-5.495-3.988-9.484-9.484-9.484zm0 6.734c.54 0 1.665 0 1.665 2.75 0 2.799-1.083 2.799-1.665 2.799-.576 0-1.648 0-1.648-2.854-.001-2.695 1.155-2.695 1.648-2.695zm30.694 18.106l-.368 1.553c-1.273 5.356-2.863 5.792-4.659 5.792-2.366 0-5.083-1.314-5.083-11.561 0-4.007.566-7.293 1.608-9.281.608-1.218 1.837-1.917 3.372-1.917 1.738 0 2.988.37 4.476 5.309l.434 1.438 9.95-3.006-.479-1.46c-1.065-3.243-1.913-5.045-3.131-6.658-2.452-3.211-6.062-4.839-10.729-4.839-10.388 0-16.589 7.767-16.589 20.777 0 12.785 6.045 20.417 16.171 20.417 4.222 0 7.688-1.356 10.274-4.003 2.027-1.972 3.147-4.099 4.283-8.128l.399-1.415-9.929-3.018z"/><path d="M78.425 183.945h36.386v10.377H78.425zm13.008-105.58h10.376V65.36h13.002V54.983h-13.002V41.976H91.433v13.007H78.425V65.36h13.008z"/></g></svg>