<svg xmlns="http://www.w3.org/2000/svg" width="300" height="300" viewBox="0 0 300 300"><path fill="#FFF" d="M257.712 192.777H247.67v-14.299h-33.859l-21.398 26.998h-86.606L89.56 184.984H61.411v-61.091h26.093l18.299-23.098h86.606l26.536 33.485h28.725v-15.595h10.042v74.092zm-21.7-85.77v15.597H224.6l-26.556-33.486h-42.463v-9.483h44.692V67.939H99.182v11.695h44.721v9.483h-43.734l-18.308 23.098H49.733v35.451h-8.727v-44.721H29.31v101.12h11.696v-44.703h8.727v37.291h34.18l16.255 20.506h97.875l21.4-27.012h16.563v14.291h33.382v-97.432l-33.376.001z"/></svg>