<svg xmlns="http://www.w3.org/2000/svg" width="300" height="300" viewBox="0 0 300 300"><path d="M37.02 144.865h78.466v11.404H37.02zm0 31.731h78.466v11.432H37.02zm0 31.758h78.466v11.412H37.02zm228.1-58.495h-.101c-.252-11.095-3.272-21.702-8.646-31.219-5.589-9.953-13.604-18.781-23.391-26.149-9.475-7.133-19.158-13.084-30.237-17.221-11.044-4.12-23.403-6.377-38.05-6.377-.781 0-3.309-.068-6.428-.068-4.291 0-9.854.127-15.065.815a6.971 6.971 0 0 0-3.465 1.502c-1.579 1.31-2.199 2.575-2.787 3.793-1.015 2.291-1.611 4.816-2.18 7.854-.974 5.287-1.653 12.009-2.181 19.252-1.546 21.693-1.57 47.954-1.57 48.038v.981c0 .059.017 18.569.932 37.317.469 9.386 1.149 18.81 2.206 26.201.529 3.698 1.141 6.873 2.007 9.532.435 1.367.922 2.586 1.778 3.896a8.32 8.32 0 0 0 1.796 1.997 7 7 0 0 0 3.465 1.502c5.212.688 10.775.812 15.064.812 3.119 0 5.646-.082 6.43-.082 14.645.017 27.006-2.231 38.05-6.389 11.078-4.121 20.765-10.068 30.235-17.209 9.787-7.354 17.801-16.188 23.392-26.144 5.371-9.526 8.396-20.118 8.646-31.22h.102l-.002-1.414zm-117.691 71.836h.007-.007zm78.7-22.172c-8.964 6.722-17.639 12.002-27.357 15.636-9.729 3.633-20.569 5.666-34.07 5.666-1.178 0-3.441.075-6.43.075-3.358 0-7.504-.159-11.331-.528-.009-.049-.017-.065-.034-.117-.452-1.495-.93-3.843-1.36-6.683-1.493-9.961-2.315-25.754-2.702-38.863-.199-6.562-.285-12.479-.351-16.759-.05-4.278-.05-6.89-.05-6.89v-.981s0-1.125.016-3.139c.051-7.007.287-24.649 1.275-40.485.494-7.905 1.19-15.374 2.097-20.661.37-2.206.781-3.876 1.141-5.025 3.83-.378 7.94-.529 11.296-.529 2.986 0 5.252.067 6.43.067 13.502 0 24.344 2.04 34.072 5.674 9.719 3.625 18.394 8.896 27.357 15.643 8.668 6.528 15.576 14.208 20.311 22.608 4.599 8.191 7.098 17.036 7.23 26.334-.133 9.297-2.634 18.151-7.23 26.352-4.733 8.389-11.64 16.094-20.31 22.605zM37.02 81.378h78.466v11.415H37.02zm0 31.739h78.466v11.413H37.02z" fill="#FFF"/></svg>