<svg xmlns="http://www.w3.org/2000/svg" width="300" height="300" viewBox="0 0 300 300"><g fill="#FFF"><path d="M147.987 22.56c-70.53 0-127.689 57.167-127.699 127.688.009 70.531 57.169 127.682 127.699 127.682 70.513 0 127.681-57.146 127.681-127.681 0-70.522-57.168-127.689-127.681-127.689zm81.174 208.86c-20.804 20.807-49.47 33.627-81.174 33.637-31.723-.01-60.389-12.83-81.192-33.637-20.782-20.771-33.605-49.445-33.624-81.171.019-31.735 12.843-60.38 33.624-81.184 20.803-20.772 49.469-33.615 81.192-33.615 31.707 0 60.373 12.843 81.174 33.615 20.784 20.804 33.625 49.448 33.625 81.183 0 31.725-12.841 60.4-33.625 81.172z"/><path d="M147.987 69.687c-44.505.01-80.551 36.066-80.571 80.563.02 44.496 36.066 80.562 80.571 80.562 44.479 0 80.533-36.065 80.533-80.562s-36.054-80.553-80.533-80.563zm59.232 47.858l-34.087 11.082a32.961 32.961 0 0 0-10.161-7.973V84.298a67.484 67.484 0 0 1 32.855 18.093 67.855 67.855 0 0 1 11.393 15.154zM82.378 133.896c.95-3.81 2.181-7.5 3.741-11.021l33.135 10.78c-1.93 3.32-3.331 6.972-4.01 10.902l-32.866-10.661zm50.107 45.686l-20.343 28.005a66.653 66.653 0 0 1-9.282-7l20.443-28.125c2.623 2.901 5.712 5.281 9.182 7.12zm1.041-14.87c-3.711-3.721-5.981-8.802-5.981-14.464 0-5.651 2.27-10.732 5.981-14.442 3.719-3.709 8.791-5.98 14.46-5.99 5.642.01 10.723 2.281 14.444 5.99a20.303 20.303 0 0 1 5.98 14.442c0 5.661-2.271 10.742-5.98 14.464a20.437 20.437 0 0 1-14.444 5.99c-5.668-.02-10.74-2.28-14.46-5.99zm37.617 9.431l20.313 27.937c-2.959 2.487-6.161 4.688-9.521 6.649l-20.427-28.084a33.245 33.245 0 0 0 9.635-6.502zm9.809-27.344c-.419-3.98-1.479-7.741-3.179-11.181l32.942-10.701a67.56 67.56 0 0 1 3.423 11.11l-33.186 10.772zm-26.061-63.871v34.745a32.936 32.936 0 0 0-6.904-.74c-1.618 0-3.159.251-4.71.479V82.82c1.561-.109 3.12-.24 4.71-.24a68.222 68.222 0 0 1 6.904.348zm-54.76 19.463a67.452 67.452 0 0 1 35.045-18.563v35.666a33.365 33.365 0 0 0-10.841 7.302l-34.416-11.183c2.88-4.8 6.271-9.272 10.212-13.222zm-19.834 47.857c.01-2.829.241-5.601.581-8.341l34.066 11.069c.37 4.44 1.58 8.611 3.51 12.393l-21.353 29.404c-10.432-11.918-16.783-27.43-16.804-44.525zm39.016 61.24l20.985-28.883c2.469.58 5.03.979 7.689.979 1.8 0 3.551-.262 5.283-.54l21.363 29.423c-8.172 3.504-17.162 5.444-26.646 5.444-10.28 0-19.961-2.343-28.674-6.423zm78.033-15.052l-21.002-28.9a33.093 33.093 0 0 0 4.44-12.162l34.556-11.231c.182 2.02.32 4.04.32 6.11-.001 17.897-6.972 34.07-18.314 46.183z"/></g></svg>