<svg xmlns="http://www.w3.org/2000/svg" width="16" height="16" viewBox="0 0 16 16"><path fill="#4C90CD" d="M11.5.001L11 0H3v2H0v4h3v10h13V4.501l-4.5-4.5zM8.813 7.68c.473.771 1.213 1.683 2.342 2.53a7.015 7.015 0 0 0-.811.078c-.965.154-1.862.502-2.676.94.641-1.266.973-2.542 1.145-3.548zM11.085 1l3 3H11V1h.085zM4 1h6v4h5v6.055c-4.871-1.598-5.892-4.931-6-5.352V2H4V1zM1 5V3h7v2H1zm6.992 1c-.05 1.059-.477 5.642-3.992 7.922V6h3.992zM15 15H4.641c1.026-1.176 3.204-3.301 5.86-3.725 1.557-.246 3.065.139 4.499 1.129V15z"/></svg>