<svg xmlns="http://www.w3.org/2000/svg" xmlns:xlink="http://www.w3.org/1999/xlink" width="300" height="300" viewBox="0 0 300 300"><path fill="#FFF" d="M221.798 168.523v4.199c12.937 0 23.433-10.486 23.433-23.451 0-12.925-10.496-23.425-23.433-23.425-12.944 0-23.448 10.5-23.448 23.425 0 12.962 10.504 23.451 23.448 23.451v-8.388c-8.308-.021-15.021-6.732-15.03-15.061.01-8.303 6.726-15.015 15.03-15.023 8.31.009 15.021 6.722 15.05 15.023-.027 8.327-6.74 15.04-15.05 15.061v4.189z"/><path fill="#FFF" d="M260.648 216.854l-77.102-48.645 7.014-11.127 77.105 48.634-7.017 11.138zm-107.916-37.565c-15.211 5.759-32.797 4.57-47.617-4.768-10.265-6.463-17.558-15.811-21.555-26.342-5.743-15.207-4.566-32.81 4.766-47.623 6.469-10.272 15.81-17.565 26.339-21.554 15.221-5.762 32.805-4.576 47.612 4.775 10.257 6.469 17.562 15.801 21.551 26.312 5.749 15.229 4.58 32.813-4.766 47.66-6.473 10.255-15.81 17.563-26.33 21.54m40.276-30.978c4.469-13.696 4.061-28.29-.898-41.354-4.629-12.248-13.156-23.166-25.102-30.688-17.238-10.863-37.794-12.267-55.486-5.554-12.239 4.624-23.176 13.181-30.687 25.114-10.871 17.251-12.268 37.809-5.554 55.496 4.646 12.258 13.182 23.188 25.115 30.698 17.233 10.867 37.79 12.27 55.481 5.557 7.589-2.885 14.59-7.372 20.682-13.141L264.812 230l16.449-26.12-88.253-55.569z"/><path fill="#FFF" d="M52.777 152.596l-7.474-.947.009.074c-1.313-.146-2.735-.277-4.177-.427-2.573-.26-5.202-.537-7.275-.798l-2.119-.27c-.366-1.057-.844-2.771-1.164-4.303-.208-1.063-.408-2.095-.523-2.864l-.084-.552c.264-.445.729-1.188 1.29-2.045l1.062-1.841c.334-.682.695-1.423.866-2.628l.492-1.721c.417-1.35 1.006-3.046 1.493-4.403l.463-1.243c.445-.236 1.243-3.504 2.271-3.849 2.592-.898 6.491-1.831 10.9-2.721 0 0 5.544-1.066 6.987-1.331l17.63-2.271c.136-1.081 1.595-9.268 1.595-9.268l-14.865 2.09c-6.731 1.063-13.53 2.286-19.018 3.626-2.754.678-5.184 1.378-7.205 2.156-1.029.39-1.957.808-2.842 1.303-.862.542-1.72 1.099-2.563 2.202l-.371 3.381-.208.578c-.009.011-.729 1.967-1.479 4.16-.39 1.1-.789 2.269-1.094 3.307-.283.953-.501 1.669-.664 2.582-.046.198-.723 1.307-1.432 2.373l-1.103 1.831c-.344.725-.798 1.368-.9 3.078l.102 1.488a60.149 60.149 0 0 0 1.442 7.153c.361 1.354.76 2.65 1.283 3.839l1.035 1.883c.495.603 1.121 1.513 2.828 2.104l1.03.229c2.229.39 7.367.919 12.234 1.419 4.836.481 9.185.883 9.204.883l7.075.658-4.731-8.915"/><path fill="#FFF" d="M83.575 148.181l-.533-1.691c.162.913.272 1.839.283 2.805-.029 8.309-6.742 15.021-15.05 15.04-8.298-.021-15.021-6.731-15.03-15.04.009-8.313 6.731-15.018 15.03-15.035a15 15 0 0 1 13.71 8.923 54.135 54.135 0 0 1-1.86-14.023c-3.484-2.05-7.5-3.307-11.85-3.307-12.931 0-23.43 10.497-23.43 23.441 0 12.937 10.5 23.423 23.43 23.423 9.403 0 17.443-5.564 21.193-13.539-2.365-3.487-4.424-7.103-5.893-10.997m105.187-48.355c3.348.222 6.102.43 7.771.62 1.277.111 4.729 1.159 8.574 2.667 5.834 2.248 12.992 5.518 18.629 8.206a533.785 533.785 0 0 1 7.021 3.398c1.771.862 2.772 1.386 2.772 1.386l.834.417.945.037c4.672.208 9.041.751 12.275 1.331 1.418.245 2.566.5 3.411.741l.36 1.595c.438 2.114.92 4.877 1.277 7.14.196 1.141.336 2.133.438 2.885l.111.865 2.021 5.05c-.057.599-.18 1.492-.314 2.48-.345 2.447-1.447 9.435-1.514 9.944-.991.093-6.389.51-8.027.64v-.351c0-12.861-10.303-23.315-23.136-23.565h-.427c-12.871 0-23.312 10.333-23.534 23.13l.226 2.707-6.521.188-.407 1.169 11.377 7.141 3.396-.094 1.337-2.133 1.825 1.168-1.668-4.72c-.604-1.66-.957-5.259-.957-5.259.147-8.123 6.787-14.673 14.931-14.673h.276c8.123.145 14.68 6.779 14.66 14.943v.176c-.011 1.188-.231 2.411-.604 3.729l-1.597 5.85 6.074-.416c3.734-.261 7.963-.573 11.256-.845 1.66-.141 3.078-.25 4.146-.371l2.744-.509.99-.575.957-.98.688-2.004h.037c.037-.096.191-1.242.426-2.708.354-2.215.836-5.359 1.262-8.141.205-1.396.392-2.698.527-3.778.141-1.099.23-1.823.271-2.647l-.058-.913h-.02c-.23-1.242-.56-1.738-.834-2.317l-1.134-1.966s-.797-5.156-1.438-8.685c-.314-1.791-.646-3.522-.988-4.961l-.846-2.874c-.177-.361-.271-.732-1.029-1.595-1.076-.997-1.559-1.067-2.142-1.35-.938-.391-1.979-.672-3.256-.988-3.626-.834-9.218-1.65-15.539-1.983-2.062-1.054-8.281-4.141-15.366-7.377-4.302-1.965-8.908-3.977-13.044-5.577-4.19-1.604-7.717-2.818-10.722-3.188-2.947-.329-8.309-.709-14.473-.997 2.188 2.826 4.08 5.825 5.75 8.937"/><path fill="#FFF" d="M260.648 216.854l-77.102-48.645 7.014-11.127 77.105 48.634-7.017 11.138zm-107.916-37.565c-15.211 5.759-32.797 4.57-47.617-4.768-10.265-6.463-17.558-15.811-21.555-26.342-5.743-15.207-4.566-32.81 4.766-47.623 6.469-10.272 15.81-17.565 26.339-21.554 15.221-5.762 32.805-4.576 47.612 4.775 10.257 6.469 17.562 15.801 21.551 26.312 5.749 15.229 4.58 32.813-4.766 47.66-6.473 10.255-15.81 17.563-26.33 21.54m40.276-30.978c4.469-13.696 4.061-28.29-.898-41.354-4.629-12.248-13.156-23.166-25.102-30.688-17.238-10.863-37.794-12.267-55.486-5.554-12.239 4.624-23.176 13.181-30.687 25.114-10.871 17.251-12.268 37.809-5.554 55.496 4.646 12.258 13.182 23.188 25.115 30.698 17.233 10.867 37.79 12.27 55.481 5.557 7.589-2.885 14.59-7.372 20.682-13.141L264.812 230l16.449-26.12-88.253-55.569z"/><path fill="#FFF" d="M52.777 152.596l-7.474-.947.009.074c-1.313-.146-2.735-.277-4.177-.427-2.573-.26-5.202-.537-7.275-.798l-2.119-.27c-.366-1.057-.844-2.771-1.164-4.303-.208-1.063-.408-2.095-.523-2.864l-.084-.552c.264-.445.729-1.188 1.29-2.045l1.062-1.841c.334-.682.695-1.423.866-2.628l.492-1.721c.417-1.35 1.006-3.046 1.493-4.403l.463-1.243c.445-.236 1.243-3.504 2.271-3.849 2.592-.898 6.491-1.831 10.9-2.721 0 0 5.544-1.066 6.987-1.331l17.63-2.271c.136-1.081 1.595-9.268 1.595-9.268l-14.865 2.09c-6.731 1.063-13.53 2.286-19.018 3.626-2.754.678-5.184 1.378-7.205 2.156-1.029.39-1.957.808-2.842 1.303-.862.542-1.72 1.099-2.563 2.202l-.371 3.381-.208.578c-.009.011-.729 1.967-1.479 4.16-.39 1.1-.789 2.269-1.094 3.307-.283.953-.501 1.669-.664 2.582-.046.198-.723 1.307-1.432 2.373l-1.103 1.831c-.344.725-.798 1.368-.9 3.078l.102 1.488a60.149 60.149 0 0 0 1.442 7.153c.361 1.354.76 2.65 1.283 3.839l1.035 1.883c.495.603 1.121 1.513 2.828 2.104l1.03.229c2.229.39 7.367.919 12.234 1.419 4.836.481 9.185.883 9.204.883l7.075.658-4.731-8.915"/><defs><path id="a" d="M118.689 89.537c-8.345 3.144-15.745 8.915-20.821 17.006-7.389 11.715-8.308 25.637-3.778 37.66 3.144 8.309 8.953 15.695 17.042 20.797 11.688 7.372 25.587 8.279 37.628 3.766 8.309-3.144 15.668-8.957 20.77-17.053 7.393-11.684 8.312-25.583 3.767-37.623-3.125-8.309-8.92-15.685-17.042-20.784-6.996-4.414-14.794-6.532-22.513-6.532a42.43 42.43 0 0 0-15.053 2.763"/></defs><clipPath id="b"><use xlink:href="#a" overflow="visible"/></clipPath><path clip-path="url(#b)" fill="#FFF" d="M84.225 117.846a743.353 743.353 0 0 1 14.613-1.312 773.95 773.95 0 0 1 6.144-.454l1.984-.617c.074-.065.872-.482 1.876-.941 3.623-1.697 10.799-4.669 16.996-7.168 5.625-2.29 10.419-4.187 11.272-4.501a93.925 93.925 0 0 1 8.994-2.646c1.127-.288 2.03-.487 2.648-.625l.684-.136.209-.035.162-.027.123-.028c.796-.25 3.74-.469 7.292-.44 3.596.022 14.627.797 19.18 1.074 2.013.104 4.062.256 6.109.399-1.205-2.67-3.84-8.642-3.97-8.915-.56-.028-17.444-1.186-21.312-1.186-3.77.008-6.676.12-9.104.652v-.009c-.152.009-6.087 1.089-13.825 3.76l-.093.037-.078.027c-.01 0-6.913 2.734-14.262 5.726-3.671 1.502-7.455 3.061-10.566 4.4a212.035 212.035 0 0 0-4.084 1.803l-1.747.862c-2.537.181-10.312.761-19.398 1.661-.092 1.617-.162 3.238-.236 4.88-.046 1.123-.209 2.458-.343 3.84l.732-.081z"/><defs><path id="c" d="M118.689 89.537c-8.345 3.144-15.745 8.915-20.821 17.006-7.389 11.715-8.308 25.637-3.778 37.66 3.144 8.309 8.953 15.695 17.042 20.797 11.688 7.372 25.587 8.279 37.628 3.766 8.309-3.144 15.668-8.957 20.77-17.053 7.393-11.684 8.312-25.583 3.767-37.623-3.125-8.309-8.92-15.685-17.042-20.784-6.996-4.414-14.794-6.532-22.513-6.532a42.43 42.43 0 0 0-15.053 2.763"/></defs><clipPath id="d"><use xlink:href="#c" overflow="visible"/></clipPath><path clip-path="url(#d)" fill="#FFF" d="M263.85 134.744h-.02c-.232-1.256-.557-1.747-.834-2.327l-1.133-1.964-.092-.182c-.168-1.47-.705-4.966-1.349-8.499-.321-1.785-.639-3.522-.987-4.946l-.502-1.957-.334-.932-1.039-1.595c-1.076-1.006-1.551-1.071-2.131-1.345-.955-.391-1.986-.678-3.268-.987-3.626-.839-9.219-1.656-15.53-1.995a460.535 460.535 0 0 0-15.354-7.371c-4.32-1.965-8.93-3.977-13.062-5.573-4.191-1.612-7.695-2.816-10.721-3.198-3.449-.38-10.162-.826-17.674-1.122 2.394 2.609 5.054 5.043 7.074 7.862l.846 1.159c3.789.228 6.962.474 8.789.672 1.287.116 4.729 1.149 8.576 2.652 5.824 2.258 12.975 5.518 18.629 8.21a511.708 511.708 0 0 1 7.027 3.408c1.762.867 2.764 1.377 2.78 1.377l.815.431.927.046c4.69.199 9.067.742 12.276 1.299 1.438.269 2.588.523 3.432.76l.361 1.587c.438 2.127.918 4.89 1.287 7.147.188 1.132.324 2.138.428 2.88l.095.861.037.19h.026l.271 1.595c.51 1.367 1.026 2.063 1.455 2.823l.26.455a51.893 51.893 0 0 1-.334 2.476c-.334 2.451-.843 5.669-1.242 8.32l-.251 1.624c-.99.093-2.111.166-3.337.276-1.466.121-3.079.232-4.7.371v-.371c0-12.858-10.312-23.313-23.136-23.552h-.427c-12.862 0-23.312 10.33-23.534 23.126v.426l.226 2.282-33.047.944-33.879-.5-40.714-.036 5.076 8.788 35.588-.129 33.981.501 44.306-1.262-1.983-5.602c-.595-1.65-.945-3.311-.945-4.99l.019-.26c.122-8.127 6.763-14.669 14.911-14.669h.277c8.104.14 14.648 6.779 14.648 14.929v.187c-.02 1.178-.24 2.398-.595 3.729l-1.612 5.852 6.082-.416c3.745-.277 7.975-.564 11.275-.846 1.65-.141 3.066-.27 4.145-.37l1.346-.157.679-.13.714-.229 1.001-.564.928-.993.706-1.981h.057c.021-.104.176-1.254.407-2.708a983.9 983.9 0 0 0 1.261-8.155c.205-1.387.392-2.688.527-3.769.141-1.112.242-1.828.271-2.652l-.056-.911z"/></svg>