<svg xmlns="http://www.w3.org/2000/svg" width="300" height="300" viewBox="0 0 300 300"><path fill="#FFF" d="M150.314 196.316v5.388c20.674 0 40.028 5.505 56.747 15.172l4.703 2.714 66.59-117.739-4.633-2.653c-36.354-20.94-78.516-32.912-123.407-32.912-45.467 0-88.127 12.304-124.813 33.726l-4.537 2.664 65.556 118.47 4.773-2.914c17.237-10.5 37.403-16.527 59.021-16.527v-10.754c-23.627 0-45.768 6.611-64.609 18.099l2.799 4.593 4.703-2.595L32.92 102.067l-4.702 2.592 2.708 4.642c35.109-20.52 75.863-32.255 119.386-32.255 42.983 0 83.234 11.439 118.042 31.452l2.693-4.647-4.693-2.637-61.284 108.359 4.674 2.653 2.682-4.636c-18.267-10.591-39.509-16.639-62.113-16.639l.001 5.365z"/><path fill="#FFF" d="M114.202 99.206l-4.21 17.503-1.673 9.19 5.883 6.668h-9.249l-4.21 1.657 5.887 3.331 7.572.844-5.038 4.17-3.367 5.822-9.251 8.355-4.837-.482-3.582-.351-6.726-.835 13.459 5.828 9.249-3.334 8.415-9.994 5.045 3.32-.844 27.512 5.038-30.832 7.577 5h12.611l8.409 4.168-13.448-11.691-10.938-5.823V128.39l15.977.82 2.521 9.189 7.568.833-5.045-9.179-3.367-8.324-10.926 1.657-10.939 1.679-1.678-9.18-2.516 8.335-5.045-3.325z"/></svg>