<svg xmlns="http://www.w3.org/2000/svg" width="300" height="300" viewBox="0 0 300 300"><path fill="#FFF" d="M187.279 176.618l-.031.053.058-.085z"/><path fill="#FFF" d="M262.814 223.87l.139-.139-57.323-56.609-.025.026c-3.862-3.811-9.291-9.179-12.772-12.612-4.78-4.72-1.969-10.062-.771-11.885l.585-.594-.104-.102v-.003l-1.752-1.73-6.725-6.644-12.988 13.156-5.819-5.751 11.347-13.62c6.211-7.461 18.139-14.649 18.139-14.649 43.509-15.147 20.711-60.267 20.711-60.267L195.238 76.72l-17.697.676-3.852-18.198 20.428-24.523c-4.899-1.515-33.774-2.443-47.326 14.34-13.55 16.779-5.431 48.989-5.431 48.989l-8.859 10.633-59.98-59.235L59.56 33.973l-7.63 7.723.002.002-6.845 6.928.002.003-5.281 5.347 15.595 12.772.002-.003 61.443 60.684-79.837 95.836-2.021 2.426c-8.541 10.252-7.587 25.127 2.134 33.225 9.709 8.088 24.512 6.34 33.053-3.906l1.457-1.693.027.021 1.264-1.518.039-.045 76.639-91.999 4.349 4.297-12.778 12.949 8.582 8.471.598-.605c1.813-1.224 7.111-4.082 11.886.627 3.483 3.434 8.912 8.799 12.772 12.613l-.024.023 53.764 53.099-.061.037 1.827 1.805c.22.217.472.375.692.586l1.101 1.084.088-.086c10.777 9.254 25.214 10.508 33.23 2.391 8.003-8.111 6.574-22.538-2.815-33.197M148.285 103.773l-.11-.093.389-.149c.134-.2.195-.383.371-.594 1.377-1.676.195-9.324.195-9.324s-6.407-25.428 4.286-38.673c10.699-13.247 21.123-11.656 24.988-10.458l-12.601 14.777 7.342 25.341 25.123-.766 14.586-16.893s12.765 26.328-21.584 38.282c0 0-8.383 6.352-14.665 10.748-2.263 1.584-4.664 3.399-6.931 5.623l-10.86 13.031-19.874-19.631 9.345-11.221zm-83.088 143.24c-12.06 12.643-17.017 9.379-22.297 4.977-5.286-4.4-8.964-9.111 1.211-23.162l79.177-95.04 19.877 19.633-77.968 93.592zm-3.09-186.275l-8.703-8.592 4.496-4.553 5.742 5.669-.003.002 101.125 99.863-4.494 4.55-98.163-96.939zm198.352 191.683c-4.395 4.459-8.399 7.25-21.836-4.051L181.3 191.761l-.004.007c-6.162-6-17.021-15.812-22.147-15.785l24.11-24.418c.041 5.131 9.985 15.866 16.058 21.949l-.005.006 56.511 55.802c11.944 13.707 9.1 18.585 4.636 23.099"/></svg>