<svg xmlns="http://www.w3.org/2000/svg" width="23" height="23" viewBox="62.5 77.5 23 23"><path fill="#00A3E1" d="M62.5 77.5h23v23h-23z"/><path fill="#FFF" d="M81.84 84.137a6.395 6.395 0 0 1-1.848.507 3.22 3.22 0 0 0 1.414-1.779 6.443 6.443 0 0 1-2.043.78 3.217 3.217 0 0 0-5.482 2.934 9.137 9.137 0 0 1-6.63-3.361 3.217 3.217 0 0 0 .995 4.295 3.221 3.221 0 0 1-1.457-.402v.04a3.219 3.219 0 0 0 2.581 3.154 3.2 3.2 0 0 1-1.452.054 3.218 3.218 0 0 0 3.005 2.234 6.453 6.453 0 0 1-3.995 1.377c-.26 0-.516-.015-.768-.044a9.113 9.113 0 0 0 4.932 1.444c5.917 0 9.152-4.901 9.152-9.152 0-.14-.003-.278-.01-.416a6.503 6.503 0 0 0 1.606-1.665z"/></svg>