<svg xmlns="http://www.w3.org/2000/svg" width="188" height="188" viewBox="0 0 188 188"><g fill="#4C90CD"><path d="M60.465 12.682l1.193-.205.495.146c.083-.057.287-.199.319-.292v-.292l-.407-.465-.727-.233-1.252.261v.029c-.341.373-.286.246-.408.612l.319.351.468.088zm-3.816 5.125l.408-.117.409-.291.291-.438.642-.263.698-.115.174-.292.643-.32.523-.087v-.204l-.7-.787-.64-.35-.262-.175-.67.058-.729.379c-.189.153-.854 1.143-.875 1.164l-.727.67v.495l.292.32.523.353zM69.9 15.271l.32-.203.523.029.611.205c.243.037.854-.267 1.02-.264l.467.145.523-.145.351-.379c.062-.104.021-.691 0-.729-.065-.111-.747-.504-.874-.524-.12-.019-1.414.259-1.456.262-.7.002-.472-.112-1.369 0v.029c-.483.376-.47.416-.641.961l.349.581.176.032zm-3.669 3.497l.465-.028c.181-.255.189-.216.233-.437l.029.059.027-.408h-.027c-.129-.178-.177-.283-.32-.378-.046-.313-.041-.146.058-.351l.203-.554-.29-.233c-.461.066-.318.011-.67.205l.176.67-.059.146-.466.117-.377-.32c-.049.194-.029.384-.029.61.17.157.859.863 1.047.902zm-34.1 7.367c-.195-.063-.593.143-.61.146l-.495-.029-.32.146c-.183.654-.172.396-.029 1.076l.263.146.292-.146c.047-.051-.015-.22.438-.408l.553-.146c.207-.413.184-.269.146-.61l-.238-.175zm34.363-4.834h-.351c-.24.276-.748.736-.61.903l.495.437.555.203.408-.117.087-.174-.205-.729-.379-.523zm11.064 1.078l.061-.232-.117-.438-.263-.233-.292.06-.379.38c.168.333.109.227.555.552l.435-.089zm-.612 3.901l.524.087c.389.005.529-.148.583-.174.237-.11.501-.065.699-.264-.096-.203-.165-.479-.351-.609-.401-.305-.042-.133-.756-.176-.232-.016-.503-.125-.7.06-.211.258-.174.372-.174.642l.175.434zm22.162 34.189l-.059-.177-.145-.06c-.42.315-.309.173-.495.584l.174.232.177-.059.348-.52zm10.135 18.14l-.117-.176-.465-.027a.67.67 0 0 0 .115.611c.362-.179.248-.081.467-.408zm.086 1.136c.335-.11.221-.013.467-.437-.074-.152-.016-.102-.291-.205-.214.142-.189.092-.262.524l.086.118zm.758.933l.35-.117c.17-.541.203-.438 0-.641l-.524.146h.028l-.058.088c.087.35.061.429.204.524zm.408.814l.291-.087c.105-.318.135-.304-.059-.496l-.322.028c-.088.245-.142.323.09.555zm2.038.494l.262-.056.116-.41-.232-.29-.438.03-.086.408.117.174zm-20.239-3.054c.374-.219.585-.043.699-.611l-.116-.117-1.34-.262-.407.029c-.302-.033-.961-.379-.961-.38l-1.281.029c-.349-.063-1.055-.538-1.223-.61-.391-.173-1.238-.275-1.281-.293-.801-.335-.224-.289-1.312-.175-.896.083-1.201.019-2.211.321-.303.18-1.211.724-1.43.902-.136.11-.58.615-.64.756l-.087.468.087.233.146.058c.223 0 .285-.425.407-.554l.437-.263c.633-.377.277-.138.729-.554.515-.473.44-.309.99-.582l.177.089c-.136.242-.092.207-.263.377.038.078.161.263.233.293h.437l.349-.263c.315-.141.473.056.67.115.446.143.56-.068.815-.086.281-.021.741.229.759.232.246.062.932-.029.932-.029l.437.293.204.203.466.176.495-.059.176.145-.147.557-.089.174c-.012.12.219.322.379.321l1.137-.262.525-.205.785-.205.317-.261z"/><path d="M82.888 78.932c.258.129.252.121.409-.117l-.088-.32-.263.059c-.108.216-.093.124-.058.378zm7.689 2.357l-.874.175c-.288.07-.306.146-.611.407.12.122.371.168.582.232l.903.263c.477-.318.39-.22.669-.698l-.233-.292-.436-.087zM36.965 23.95l-.378-.263-.233-.231-.292.028-.437.175c-.158.075-.818.478-.902.61-.104.244-.023.305.087.525h.292l.553-.204s.673.285.786.291l.467-.087.263-.204-.031-.29-.175-.35zm26.763-3.582c-.254-.962-.092-.455-.059-1.019l-.029-.845.088-.466-.263-.991-.088-.058c-.137.046-.329.081-.377.262-.034.303.062.697.146.99l-.088.146-.145.027c-.128-.514.087-.699-.264-1.223l-.32-.029c-.321.322-.298.387-.553.875l-.232.059-.146-.088c.144-.607.163-.396-.059-.873l-.436-.09c-.194-.074-.099-.548-.786-.291-.103.055-.81.842-1.165.934-.164.041-.164.062-.35.175.392.392.461.388.934.581.011.062.055.177-.029.234-.376.166-.729-.005-.844 0l-.233.059.06.203.67.408c.151.068.691.166 1.105.437.059.049.258.358.262.438l-.086.262c-.354.177-.415.168-.816.088-.561-.317-.576-.376-1.194-.524l-.144-.028-.321.176-.087.145c.337.549.33.473 1.019.875 0 .629-.058.488.146.815.657.082.485.057 1.252-.089l1.311-.232c.571-.025.035.107 1.107-.087.428.515.628.64 1.456.758l.174-.146v-.262c-.138-.129-.288-.32-.466-.381v-.086l.321-.145.378.115.437-.115.06-.117-.146-.321-.466-.35c-.1-.042-.262.005-.734-.206zm-2.245-6.348l.263.205c.835-.238.708-.102.845.785.218.108.126.088.378.088l.553-.35h.291c.074.027.287.324.438.35.475.077.486-.178.581-.438l-.872-1.135.261-.61-.174-.263-.438-.088c-.261.521-.149.283-.146.466l-.028.146.087.612-.087.175c-.585-.214-.254-.13-.609-.466-.132-.097-.831-.297-1.02-.351-.28.521-.209.316-.323.874zm7.865 3.087c.134-.092.369-.215.378-.409.028-.527-.574-.312-.843-.581-.535.178-.375.062-.669.466v-.028c-.176.504-.346.729-.088.989 1.04-.208.66-.053 1.222-.437zm1.397-9.406c.405-.055.416-.04.813-.176.226-.074.646-.326.874-.176.158.104-.186.064.554.205.305-.361.317-.473.642-.408.141.211.271.377.059.728-.311.438-.368.409-.99.409l-.32.378.232.815-.204.059-.35-.204-.175-.379-.291-.291-.146.028-.145.291.145.933.378.351.176.377-.263.059-.466.029-.291.203-.089.319.06.379c.381.254.36.341.934.087 0 .635-.065.444.231.816l.408.027c.372.078.297.205.846.205.186-.264.145-.134.145-.555-.178-.061-.369-.234-.523-.35l.089-.174.697-.264c.159-.123.444-.904.378-1.165l-.232-.437-.35-.146.146-.291c.098-.102.708-.303.785-.496l.028-.23c.631-.42.283-.432.292-.844l.089-.381.437-.552c.042-.112.069-.407.028-.526-.161-.08-.313.053-.554-.026-.031-.165-.037-.117 0-.233.826-.31.654-.158.846-.582l-.351-.263-.523-.058-1.136.378-.233-.377-.263.289c-.444.559-.412.36-.61.555l-.322.438-.291.203-.349-.028-.261-.205-.438-.059-.407.146-.176.351.061.407.376.411zm15.959 8.124c-.287.478-.223.345-.32.933l.116.117.408-.117.261.117.089.203.146.029.177-.232.058-.467-.115-.407c-.479-.22-.285-.176-.82-.176zm-1.864 6.67l.028-.088-.291-.494c.38-.508.343-.296.087-.991l-.377-.115-.845.088-.029-.146-.555-.204-1.428.263c-.647-.478-.295-.211-.785-.699l-.729-.67.117-.467c-.302-.399-.184-.318-.495-.438l-.379.205c-.839-.314-.573-.664-1.077-.844-.362-.131-.755.055-1.106.146l-.379-.321-.233-.349-.318-.116-.495.204-.466.349c-1.022-.17-.828-.013-1.254-.437v-.438l-.291-.787-.087-.058-.934.438c-.062.057-.256.582-.262.641l.145.961.117.467-.089.609-.203.35-.408-.408-.087-.902v-.438c-.021-.074-.201-.244-.263-.494.607-.719.675-.824.409-1.252l-.409.028-.523.642-.292.728-.465.642.059.437c.147.317 1.912 1.458 1.979 1.485.589.18.795-.02 1.048 0l.468.146c.431.079.859-.039 1.28-.116.229-.422.108-.273.582-.611l.291.117c.182.506.062.344.496.67l.581-.233.321.349-.06.409.262.175.467-.145.523.058.467.233.407.697.35 1.166-.26.433-.35.407-.232.467.116.438-.028.116.146.495c.914.414.758.292 1.718.555.062.162.313.803.438.902.069.057.837.059 1.02.059.125.17.537.489.554.494.235.028.081-.104.787.061.72-.061.448.092.872-.029l.089-.176-.233-.291-2.01-1.02.059-.059.758-.088c.197.025 1.209.546 1.428.438l.088-.438-.32-.35c.014-.18.049-.576-.059-.758l-.409-.379-.581-.291c-.584-.293-.438-.218-.873-.611-.555-.496-.456-.285-.496-.728.094-.095.319-.146.319-.146l.933.318c.521.219.529.682 1.223.526.051-.146-.014-.239-.086-.496.151-.231.041-.155.519-.291zm-12.201 6.114c.406 0 .479-.072.729-.293 0-.194 0-.492.059-.67l.408-.116.465.088.437-.204.088-.145-.146-.524-.467-.408c-.23-.153-.517-.085-.582-.116l-.262-.291c-.451.037-.258.098-.816-.32l-.262.086-.087.263-.118 1.136c.004.579.173.133-.086.961.382.077.226-.033.64.553zm25.858 9.174c-.143-.393-.133-.245-.059-.612l-.176-.116-.406.146-.233.641-.146.028c-.152-.269-.134-.249-.177-.67-.065-.679-.014-.72-.146-1.515-.201-.041-.117-.041-.438.088l-.175.555v.669l.319.642-.115.553.115.32c.168.829.035.465.06 1.02.047.341.167-.053-.028.729.17.256.121.193.203.584h.321l.522-.611.381-.176.349.028c.493-.458.28-.34.875-.524.239.16.155.084.349.438-.074.111-.063.053-.029.262.291-.115.217-.199.294-.582l.114-.466.205-.116c.457.267.41.217.641.815l.32-.146.465.379.177-.351-.088-.554-.261-.436c-.232-.217-.483.111-.815.027l-.088-.232c.127-.213.116-.188 0-.465l-.349-.029c-.188-.06-.496-.317-.584-.496-.129-.353.004-.346-.231-.582-.472.158-.294.338-.468.642l-.202.233-.496-.12zm-4.63 2.533l-.408-.407-.61-.175c-.147-.012-1.111.222-1.281.261l-.088.204.233.292c.063.046 1.038.092 1.164.087.132-.004.845-.112.933-.176l.057-.086zm-.319 2.942l.015.006.014-.006z"/><path d="M93.867 43.898l.438.029.639-.264c.179-.126.322-.458.322-.669l-.322-.029c-.393.025-.395.273-.582.378l-.348.088-.449-.168a.044.044 0 0 0-.015.008l-.161.082-.013.008c-.024.015-.048.027-.069.044-.01.006-.018.01-.024.016a.7.7 0 0 0-.084.069l.146.203.522.205zm2.097-.175l.176.118c.051-.208.051-.295.146-.438.353.304.319.275.64.205l.088-.67c-.234-.02-.308-.049-.494 0l-.088-.06-.146-.522-.319-.06c-.07.207-.004.417-.029.612l-.117.438.143.377zm-7.541 8.709c-.458.123-.23.028-.554.291-.164.133-.438.252-.438.494l.116.029c.3-.193.761-.455.961-.758l-.085-.056zm-47.062-9.291c.719.778 1.324 2.371 1.544 2.649l.524.409.35-.09.089-.231-.352-.438-.232-.144-.291-.554-.32-1.049-.204-.438c-.273-.429-.118-.256-.495-.494-.31-.195-.237-.146-.437-.408l-.495-.642-.204-.028c-.15.188-.122.08-.087.465l.231.029.118.204-.175.175c.054.383.044.159.436.585zm-1.717-5.125c.129-.686.12-.703-.204-1.311l-.437.059-.06.233.029.642.175.319c.165.22.34.11.497.058zm-.058 2.3c.089-.059.23-.135.262-.291.035-.18-.134-.861-.204-1.02l-.378-.611-.612-.176c.228.508.088.317.176.67.058.23.476 1.198.61 1.34l.146.088zm.727-4.425l.321-.438.087-.494-.058-.378.087-.467-.087-.845-.146-.438h-.35l-.146.264-.115.553.115.379s-.125.662-.115.902c.017.45.156.564.407.962zm47.148 35.498l.438.26.144-.027c.104-.174.079-.104.117-.292l-.32-.351c-.347.09.142.043-.582.146l.203.264zm1.95 1.425c-.1-.449-.116-.451-.786-.351.585.42.397.449.786.351zm-1.308 2.213c.155.039.098.033.291 0 .067-.202-.103-.545-.262-.582h-.115v-.029c-.068.327-.039.335.086.611zm-.73-.523c.429-.105.194-.195.262-.406l.146-.205c-.264-.422-.147-.184-.407-.379-.11-.082-.033-.089-.204-.146-.135.505-.228.598.203 1.136zm7.019 2.389l-.088-.027c-.4.266-.209-.09-.582.348l-.117.116.06.233c.228 0 .354-.035.61-.176.128-.087.098-.229.117-.494zm7.22 1.046l-.028.379.233.378.088.028 1.484-.467c.09-.052.428-.369.438-.492-.057-.447-.34-.313-.699-.233-.586.13-.598.214-1.339.319l-.177.088z"/><path d="M88.714 95.121c.505.475.299.354.872.583l.38-.233.086-.291-.145-.351-.467-.32.028-.233.408-.262c.033-.566-.065-.589.466-.609.559-.024.428.015.727.058.523.075.398-.091 1.05.146l.028.088c-.342.431-.303.639-.059 1.078.83-.236.275-.002 1.048-.088.156-.697-.182-.399-.349-.901.343-.156.295-.099.378-.263l-1.106-.555-1.078-.32-.582.177-.407-.029c-.267.05-.681.437-.728.466l-.379.176-.35.379-.727.291-.468-.088-.407.059c-.426-.542-.233-.358-.933-.758l-.292.67c.104-.275.145-.473.292-.67-.772-.517-.914-.688-1.631-1.312 0-1.014-.005-.473-.233-.989-.123-.285.211-.705.352-1.019-.139-.322-.282-.699-.321-1.049-.054-.966.129-1.017.146-1.224l-.059-.496c-.033-.561.112-.276-.204-.727a3.455 3.455 0 0 0-.245.331 2.34 2.34 0 0 1 .245-.331l-.204-.146c-.154-.058-.512.021-.813-.028l-.118-.175.177-.088-.028-.146-.264-.088-2.737.669-.292.204c-.549.355-.682.331-1.369.523h-.379l-.291-.174c.075-.34.015-.214.291-.524-.058-.87-.188-.909-.349-1.69l-.088-.553.088-.32.349.408c.255-.072.179-.011.321-.262-.379-.985-.094-.842-.088-1.165.004-.229-.204-.368-.233-.407l-.319-.582.087-.32.409-.494.202-.524-.058-.556-.175-.203-1.077.06-1.428.349c-.142.049-1.176.506-1.28.611-.099.1-.208.52-.205.643l.117.437.292.233.058.291-.146.35-.466.146-.319.609.174.35c-.292.33-.146.244-.612.352l-.262-.232-.843.115-.352.262-.437.117-.874.319c-.188.033-.497 0-.641-.146l-.204-.377c-1.488.098-.972.395-1.921-.873a.698.698 0 0 0-.152-.22c-.09-.12-.134-.146-.29-.276-.07-.06-.132-.111-.17-.146-.388-.346-.212-.271-.611-.351-.135-.639-.147-.649-.35-1.279l-.233-.059-.35-.291-.06-.379.089-.438-.292-1.02-.204-1.078.029-.902c.04-.145.312-.406.438-.902.167-1.082-.365-.73-.379-1.775-.007-.539 1.182-1.914 1.775-2.184l.758-.293.232-.205c-.045-.178-.22-.76-.175-.93l.118-.205.292-.027.261.494.496-.117.467-.291.524-.088.61.06.67-.291.438.231.261.379.438.115.408-.115.758-.642.378-.116c.025-.104.022-.234-.059-.32l-.232-.116-.902.116c.052-.178.024-.224.292-.351l1.952-.669c.15.096.263.188.494.174l1.632-.377.523.262.378.496.351.058.494-.146.233-.408.202-.232c.604.165 1.47.667 1.777 1.252l.378 1.078.089.058.232-.116.232.116.03.205c-.036.142-.286.216-.176.495l.262.378c.282.04.444.019.643.263l.291.523.67.582.262.438.555.203.203-.058c.258-.628.192-.341.203-.901.008-.382.064-.885-.058-1.281l-.495-1.078c-.366-.635-.341-.258-.757-1.34-.206-.533-.251-.771-.554-1.311-.275-.492-.91-1.148-.932-1.225l.086-.961.438-.932.642-.262c.226-.156.396-.576.496-.758l.581-.959c.02-.062-.05.004.088-.409h.379l.379-.378.231-.641.319-.379.408-.117.088-.377-.322-.205c.147-.328.052-.229.41-.407v-.291l-.176-.233-.205-.059.118-.348-.351-.611-.291-.352-.32-.785-.292-.319-.146-.468.232-.293.35.146c.078.072.291.653.32.786l.088.642.116.115h.232c.216-.535.065-.258.058-.785.008-.074.217-.539.117-.813l-.264-.38c-.17-.158-.084.141-.262-.523l.262-.117c.281.375.199.336.408.379.117-.088.373-.289.407-.438l-.058-.494.291-.466.088-.438-.204-.23v-.438l.291-.496c.278-.343.694-.47.729-.494l.349-.407.788-.292.349-.291.06-.292-.116-.291-.258-.146.06-.494-.204-.582.087-.555.32-.582.407-.32.321-.379 1.224-.757c.311-.145.291-.021.291-.467l-.084-.032.347-.521c.315-.412.325-.181.554-.291.376-.257.459-.611.932-.611l.059.32.538-.216a.675.675 0 0 1 .188.011l.025.18-.055.072a1.332 1.332 0 0 1-.188.112c-.123.058-.299.139-.473.225-.236.107-.462.216-.562.312l-.262.408-.058.467.203.465.319.203.407-.059a.516.516 0 0 0 .091-.033c.002 0 .002-.002.003-.002.211-.104.295-.359.332-.568.037-.15.064-.311.098-.459l.147-.422.587-.666c.049-.041.096-.082.143-.119l.476-.311c.233-.128.444-.22.618-.314l.1-.045.069-.062a.695.695 0 0 0 .144-.13l.078-.071.029-.115c-.574 0-.594-.135-.758-.146l-.67.117-.524.202-1.106.263-.379-.321-.379-.174-.203-.467c-.031-.04-.139-.096-.242-.145l-.194-.117-.029-.146.233-.292-.087-.145c-.103 0-.177.004-.237.014a.372.372 0 0 0-.072.016c-.123.031-.229.094-.505.204a2.548 2.548 0 0 1-.146-.099.37.37 0 0 1-.094-.128l-.002-.002-.006-.035a.148.148 0 0 1 0-.042c0-.01 0-.021.002-.03v-.006c.008-.041.021-.091.039-.153.256-.096.449-.162.598-.229l.103-.033a.414.414 0 0 0 .069-.057.422.422 0 0 0 .205-.276.52.52 0 0 0 .047-.135l-.061-.407-.261-.204-.021.005-.008-.005-.932.177a.911.911 0 0 0-.137.055l-.065.031c-.021.013-.043.021-.063.032-.021.015-.045.027-.067.041-.017.013-.035.021-.052.032-.024.016-.049.032-.071.049-.015.01-.026.02-.042.028-.021.015-.041.028-.059.045-.117.086-.221.174-.316.237-.324.214-.283.086-.402.271l-.156.223-.838 1.168c-.109.217-.291.961-.377 1.369l-.03.114.006.001a.39.39 0 0 1-.006.027c-.204.203-.128.165-.32.203l-.175-.146c.161-.974.646-1.678.729-1.922.123-.373.058-.974.291-1.312l.642-.698v-.494l.348-.582 2.651-.901 1.484-.468.989-.466.379-.438.321-.961.115-.554.351-.146.349-.379.116-.349c.063-.313-.012-.651-.059-.961-.367-.146-.252-.021-.525-.61-.071-.152-.122-.379-.319-.408-.197-.028-.305.19-.408.32l-.176-.029c-.09-.137-.072-.164-.115-.379l-.146-.086c-.455.273-.263.16-.668.728l-.699.874-.203-.029-.117-.291.146-.466.377-.466.351-.233.146-.495-.058-.175-.233-.086-.262.175-.641-.029-.555.32-.293-.088-.726-.523-.729-.116-.232-1.078-.67-.494-.407-.815-.991-.494-.814-.67-.438-.205c-.419-.25 0-.123-.786-.437l-.028.351-.233.466-.058.493.349.146.263.521-.146.644-.465.466-.494.146-.408-.028-.555-.379c-.521.139-.366.15-.67 0 0-.96.104-.709-.553-1.602.172-.41.219-.379-.088-.787-.379.113-.636.225-1.049.177-.879-.103-1.044-.674-1.224-.813l-.786-.379-.379.057-.728.466-.757-.203c-.365-.083-.295-.069-.583.06l-.028.553.29.582.205.932c.109.318.372.439.466.582l.319.786c-.225.448-.064.302-.698.582-.184.515-.152.306-.116.874l.612.379c.322.248.774.775.96 1.136l.291.786-.058 1.02-.468.844-.555.438-.174.32.145.554.99 1.311.146.555v.902l-.292.406-.438.146-.177-.438-.29.467-.438.086-.553-.785-.467-.35-.522-1.195-.177-.61-.318-.378-.029-.407.263-.409-.089-.261c-.717-.288-.28-.138-.843-.146l-.873-.088-.525-.146-.989.059-.873-.059c-.283-.537-.198-.52-.642-.786-.465-.251-.705-.187-.845-.231 0 0-.817-.469-1.049-.467-.223.002-.579.361-.611.379l-.319.088-.263-.204c-.037-.056-.378-1.614-.494-1.806l-.117-.117h-.115c-.864.033-.663.103-1.02-.176 0-.615-.029-.438.087-1.019l-.263-.351c.561-.604.341-.424.7-.873l.318-.351c.245-.347.346-.866.35-.874l1.194-1.164.089-.262-.438-.32.233-.408h.901l1.106-.813.231-.554c-.375-.563-.122-.266-.641-.438l-.642-.292.263-.641.379.088.495.232.523-.06.523-.319-.174-.729.785.146c.381-.305.352-.236.611-.584.312.278.192.226.494.262l.205-.174.523-.873-.495-.525-.291.027-.176-.377v-.61l.176-.292.291-.204v-.204c-.437-.109-.271-.131-.669.088l-.233-.494-.466-.205-.262.028c-.291.632-.152.231 0 1.253.052.523-.121.416-.263.727l-.176.699-.495.146c-.18-.017-.335-.351-.378-.495l-.088-.698-.378-.698-.466-.117.378.961-.204.408-.319-.027-.262-.352-.291-.961-.524-.464-.029-.262c.441-.205.323-.103.553-.409-.253-.398-.119-.285-.553-.465l-.117-.438-.583-.873-.521.146-.32.377-.059.467c-.105.289-.363.298-.38.933.028.328.37.731.555.988l-.176.611c.333.249.341.062.699.35-.164.709-.143.438-.699.902l-.582.525c.188.613.242.744-.232.902-.352-.851-.146-.355-.146-1.021l-.058-.524c-.459 0-.243.086-.524.204l-1.397.263-.464-.379c-.285-.162-.577-.027-.671-.059-.354-.198-.822-.946-.845-.961l-.292-.059-.96.351.059.262.611.116-.845.35-.115.262.115.961-.145-.028c-.126-.078-.333-.7-.378-.758-.457-.447-1.27-.709-1.894-.787-.649-.08-.378.106-.844-.202l.232-.438-.116-.612s-1.123-.767-1.252-.933c-.001 0-.392-.813-.555-.931l-.35-.116-.815.174.029-.668-.175-.293-.233-.088-.349.524-.553-1.224-.233-.203-.379.261c-.441-.088-.455-.115-.991 0-.582.161 0 .177-1.048.177l-.174-.525-.643-.115c-.26.261-.181.141-.318.525h-.291c-.595-.815-.366-.984-.846-2.012l-.35-.99-.32-.35-.378-.088-.174-.378c-.46-.058-.397-.005-.612-.175l.028-.262c.24-.16.332-.178.38-.32-.215-.215-.121-.168-.38-.203-.169-1.184-.044-1.15-.641-1.398l-.087-.583c-.392-.194-.634-.108-.99-.202l-1.194-.467-.584.029-1.077.349-.204-.028c-.178-.356-.23-.61-.669-.611-.13.023-.595.379-.728.496 0 .408.025.74-.319 1.164-.372.457-.188.127-.611.785l.32.32.086.438-.109.233-.903.408c-.331-.146-.229-.044-.408-.438.153-.383.065-.244.438-.584l-.204-.377c-.088-.103-.516-.215-.642-.232h-.495c-.439-.541-.265-.428-.728-.582l.029.555c.002.004.363.701.32.901l-.175.262h-.35c-.311-.372-.193-.282-.555-.524-.009.138-.044.646 0 .759l.583.728c.327.336.501.368.902.524l.029.262c-.388.173-.311.122-.815.177l-.059.465-.32.377-.583.177-.61-.028-.292-.232c-.183-.105-.415-.023-.611 0l-.204-.438c-.598.152-1.657.336-2.155.698-.16.157-.174.495-.144.698.032.23.25.734.35.961l-.146.262-.408.029c-.335-.405-.212-.332-.523-.409-.24.323-.172.168-.204.845l-.292.204.176.175c.497-.039.409-.021.932.028l-.146.321-.437.115c-.113.057-.559.442-.61.555-.104.33-.028.414.059.611-.516.23-.521.168-.7.437l.204.146c.579-.17.393-.173.815-.059.238.62.108.314.088.582-.018.22.087.301.202.438l.989.028v.205l-.901.319-.554.088-.319.378-.32.581-.495.35-1.078.176c-.466-.017-.017-.308-1.515.293-.121-.162-.312-.453-.554-.524l-1.077-.029-.408-.407c-.375.25-.341.195-.641.493.063.146.171.386.32.468l.553.115.525-.088c.528-.003.626.328.933.467.308.139.978-.068 1.311-.059.6.017.642.439 1.165.35l1.339-.465 1.514-.671 1.281-.467.321-.378.145-.553.204-.232.438.059 1.484-.291c.875-.236.504-.354 1.078-.146l.059.409c-.155.154-.107.072-.175.408.372.205.377.231.729.494l-.088.523c.015.27.302.408.379.554.064.12-.033.448-.059.582l.35.495c.482.785-.077.133.67.873.446.473.044.337 1.135.438l.146.235-.117.203-.408.349-.087.438.262.292c.008.005.518.128.612.232l.204.465v.524c.239.097.357.048.727.029.108.433.021.304.352.524l-.06 1.076-.232.291-.117 1.223.35.729-.145.524.086.292.232.116.01-.082c-.006.316.053.401.048.519-.017.335-.291.914-.379 1.165-.187.529-.146.501-.087 1.02.325.187.364.267.67.554l-.32 1.077c-.055.297 0 .559 0 .582l-.117.582-.409.555.06.406 1.252.961c.429.246.421-.008.727.582.198.459.063 1.023.088 1.106l.264.38.466.932c.054.438.111.533.058.961-.034.267-.125.64-.262.873-.303.517-.386.406-.729.35l-.231-.378.058-.351.174-.232-.027-.203-.466-.378c-.255-.153-.37-.144-.555-.117-.148.373-.128.216-.059.554.196.951.084.488.029 1.078-.062.648.117.819-.351 1.775-.346.708-.671.927-.757 1.077l-.205.583.088.494-.466 1.106c-.176.312-.371.326-.35.759.032.17.162.094.087.465l-.32 1.164-.175.963-.465.492-.03.293.117.174.292.787c.048.237 0 1.02 0 1.02.01.098.19.633.261.698l.408.177.088.262c-.176.262-.157.201-.525.438.163.598.108.275.352.697l.174.379-.174.203.086.555.902 1.805-.262.321.146.292.669.262.641.61 1.02.759.32.553c.418.618.168.029.553.99.192-.029.313-.052.413-.064l-.413.064.378 1.602c.034.098.522 1.032.583 1.281l.058.758.525.756.727.584c.243.164.447.16.584.554.097.384.058.349-.117.61-.36-.016-.538-.047-.873 0 .101.201.956.701 1.106.846l.495.641.437.291c.269.24.672.861.816 1.195.065.203-.009.703.292 1.076.004.008 1.204 1.041 1.339 1.226 0 0 .532.979.67 1.104l.32.177.35-.146.116-.32-.202-.438-.351-.349-.319-.409-.466.028c-.183-.438-.18-.254 0-.758-.226-.449-.308-.373-.378-.494-.196-.455-.323-1.486-.583-1.834l-.059.203-1.136-2.357c-.268-.418-1.142-1.029-1.31-1.225l-.351-.553-.35-.902-.059-.758-.204-.671.117-.378.32-.088c.477.335.784.438 1.339.699.107.396.124.255-.058.582l.318.35.116.729.525 1.224.407.407.378.523.785.379.204.379-.059.203c.672.615.388.475.729.873.707.748.323.139.96 1.166l-.146.291c1.227.683.608.299 1.631 1.428l.698.728c.325.372.561.744.961 1.165l.496.495.465 1.164.409.407.291.555c-.079.236-.171.044-.582.523.271.895.067.528.699 1.078l.349.319.699.408.466.146.292.319.611.379c.236.083 1.048.028 1.048.028l.902.379.992.553.233.059c.351.119.879.429 1.427.465l.611-.028.756.409.642.029.699.261.553.03 1.137-.146c.352-.102.856-.48 1.396-.465l.321.059c.674.098.358-.062.873.32l1.543 1.136c.317.272.186.294.524.407 1.02.51.761.414 1.863.495l.901.087 1.574.32c.406.092.534.215.988.059.079-.039.122-.178.466-.35l.233.146.087.351a.241.241 0 0 1 .04-.029.17.17 0 0 0-.068.115c-.037.414.7.531 1.194.845l.409.321c.581.369.28-.035.931.67-.025.574-.067.464.06.932 1.091.58.534.021 1.252.262l.205.495.203-.146.698.232.496.407.145.409.205.175c.378-.034.431-.03.843.177.345-.23.198-.201.38-.38.098-.096.401-.325.553-.319.185.006.947.42 1.137.523.177-.14.14-.106.386-.187zM65.299 75.784l.074.089a.873.873 0 0 0-.095-.1c.008.004.016.007.021.011zM42.322 32.309c.049-.77.077-.107 0-1.078-.01-.123-.021-.338-.052-.537.041.207.073.439.081.537.062.712.003.572-.029 1.078zm35.005 54.949l-.033.012c.02-.01.036-.02.052-.033l-.019.021zm4.889 5.232c.112-.08.319-.23.52-.366l-.52.366z"/><path d="M98.294 79.454l.291-.204.934-.204.642-.233.086-.174-.086-.32-.233-.176c-.482.297-.294.205-.845.377l-.06-.231.293-.203-.088-.263c-.138-.156-.973.027-1.049.029l-.494-.06c-.582-.021-.806.106-1.34.293-1.156.419-.57.155-1.398.32-.457.091-.416.13-.553.35.037.147.039.255.176.349.271.187.64.106.758.146l.35.233c.053.076.059.262.029.35-.279.048-2.005.289-2.155.408l-.175.176v.669l.204.06.087.058 1.631-.319.523-.058.496-.292.406-.116.787.408v-.378l-.059-.381.232-.348.61-.266zM75.607 7.964l.233.146c.171.043.567-.112.727-.174l.178.174.087.32-.116.35-.32.32-.291-.027c-.487.404-.188.652-.816 1.279l.146.263.495.176h.583c.146-.039.19-.202.611-.263l.088.117-.029.174-.611.467-.087.177c.101.199.582.245.729.349l.494.524c.562-.169.32-.159.641-.319l.961-.351 1.049-.522.351.027.727.523.146.06c.75.376.025.196 1.224.495l.262.493c.174.032.654.094.785.206l.555.727c.15.262.213.651.263.932l.261.146c.219-.109.127-.102.321-.32l.494-.494.146.028.467.494c.199.104.729.306.729.582-.51.283-.32.095-.845.177l-.437.116-.029.146.146.176c.33.224.946-.131 1.312-.146l.438.059.318.234.177.438c.079.337-.101.218.175.492l-.029.234c-.348.243-.265.137-.377.437l.146.233.524.35c.115.167.074.855.318 1.164.16.199.208.15.612.176.099.152.446.681.582.758l.582.117.116-.029.291.262.379.758.555.232.436.029.264.204.378.872c.522.08.34.064.931-.027.064.098.305.471.409.523l.465.088.379-.203.321.146c.266.197.08.359.697.174.148-.508.08-.375.32-.814l.146-.027.903.523 1.047.438.32-.177-.175-.813.028-.438c-.021-.129-.611-1.319-.698-1.396l-.407-.176-.089-.699c-.083-.25-.394-.399-.466-.494l-.23-.495.058-.61-.175-.35-.408-.32-.059-.408c.036-.315.381-.137-.352-.99.229-.344.188-.131.525-.291.186-.129.082-.562.059-.729l.609-.67v-.438l-.262-.494-.115-.467c-.174-.379-.457-.371-.524-.438l-.203-.408-.379-.115-.094-.237.088-.087c.187.058.39.096.553.203l.408-.116c.233-.526.11-.445.204-.759.088-.293.354-.469.408-.58.107-.223.103-1.199.115-1.281.215-.876.232-.24.146-1.049-.02-.264.043-.268-.232-.611-.216 0-.479.074-.67.176l-.408.291-.233.494c-.115.342.008.34-.231.699h-.262c-.289-.467-.138-.342-.611-.523l-.088-.526-.554-.059-.116-.204.146-.262.669-.115.495.291h.494l.408-.205c.144-.103.131-.283.06-.436-.222-.464-.293-.322-.786-.554l-.523-.293c-.192-.058-.586-.005-.759.089-.187.098-.555.527-.698.697-.254-.147-.283-.137-.466-.319l-.378.175c-.322.114-.422-.334-.583-.525-.216-.25-.161.016-.319-.465l.114-.145c.163.051.406.085.525.203.126-.036.271-.059.378-.262.197-.486.105-.563-.176-.845l-.407.117c-.276.127-.14.202-.554.261l-.088-.261c.459-.319.34-.169.524-.61-.164-.392-.083-.298-.321-.496l-.377.117-.32.35-.641.115-.087-.057.028-.146.409-.087.115-.35c-.449-.3-.261-.212-.814-.35l-.352.261-.494.204-.437-.028c.138-.685.146-.534.146-1.194-.871-.098-.356-.07-.932.205-.16.075-.203.059-.35-.029-1.049-.641-.146-.729-1.516-.729l-.377-.555-.902-.291c-.266.266-.223.253-.438.611-.574-.91-.24-.332-.496-1.135l-.203-.525c-.696-.243-.463-.237-.99-.088l-.233.496.175.465.582.582.205.494c-.238.17-.156.146-.35.146-.479-.838-.279-.552-1.137-1.281l-.146.116c.201.44.142.295.231.815l-.174.174-.23-.26c-.217.434-.158.358-.264.902l-.35.059-.146-.32.03-.351.378-.351.029-.437.232-.232-.028-.32-.263-.059-.494.262-.204.35-.438.059-.175-.232c-.198.199-.369.176-.553.293l-.67.582-.292 1.02.088.438-.06.232.642.291.146.204-.086.292c-.463.23-.208.223-1.137-.087l.146.728-.174.176c-.625-.229-.494-.248-.961-.205-.07.352-.51.942-.494 1.137l.115.523-.058.116-.176.06c-.002 0-.527-.185-.729-.09-.165.08-.412.561-.408.76l.091.31zm87.652 100.175l-.193-.809c-.109-.223-.442-.372-.696-.393l-1.925.112c-.395.028-.877.132-1.256-.026-.446-.188-2.334-1.892-2.592-2.034-.414-.192-.66-.095-1.254 0-.896.139-.871.045-1.589.083l-1.282.139c-.472.025-1.785-.012-2.257-.084l-.862-.193-.477.057-.333.277-.419.14-.391-.084-.14-.252.029-.417-.28-.333c-.141-.093-1.41-.321-1.589-.337l-2.116-.026-1.089-.11-.501.084-.307.278-.25.502-.309.084c-.205-.165-.158-.138-.332-.364l.137-.361-.223-.333-.473-.111-.614.111-1.645.222c-.398.533-.288.314-.503.921-.467.179-.271.146-.834.111l-.168-.363.193-.669c.131-.279.977-1.365.977-1.365l.168-.892c.021-.32-.088-.657-.168-.947l-.641-.307c-.19-.668-.738-1.552-1.145-2.063l-.279-.334-.389-.921c-.219-.37-.441-.457-.672-.641-.387-.312-.088-.207-.641-.335v.027l-.334-.277-.307-.084-.975-.78-2.224-.14h-.148c-.002 0-.002.002-.004.004l-.301.414-.375.766h-.014c.271-.594.251-.619.538-.988h.001l.066-.089.002-.002c.021-.022.039-.048.059-.073l.021-.027-1.082.023c-.185.021-1.609.377-1.896.391l-.307-.027-.948.279-.613-.084-.334-.195c-.321-.268-.963-1.506-1.003-1.561l-.67-.67c-.125-.146-.729-1.054-.893-1.144-.188-.103-1.547-.207-1.729-.224l-.863-.137c-.504-.721-.383-.844-.447-.947l-.305-.28-.586-.224c-.169-.033-.604.026-1.478-.168-.324-.879-.13-.473-.168-.808-.021-.192-.302-.565-.334-.586-.123-.075-1.769-.078-1.867-.058l-.222.113-.727.92-.222.084-.418.25-.921.084c-.385-.018-.428-.183-.641-.307l-.643-.279-.139-.223-.42-.167c-.18-.021-1.936.445-2.006.446l-.279-.057-.641-.584-.697-.56c-.74-.612-.012-.119-1.227-.362-.07-.234-.146-.5-.363-.669-.192-.149-.533-.161-.642-.112-.28.133-1.138 1.83-1.338 2.203l-.476.14-.416-.278-.084-.447-.027-.584.139-.418c.042-.059.322-.146.529-.558.055-.149.006-.382-.027-.529l-.251-.084-.475.084-.445.252-.335.669-1.227.695-1.227.561c-.222.099-.505.188-.586.444-.105.339.191.106-.334.585l-.323-.223-.641-.057-.197.084-.083.307-.612.642-.025 1.005-.225.277-.361.057-.362.307-.53 1.004-.056.558-.808.14c-.125.451-.084.465-.084.976-.645.129-.184-.071-.836 0-.393.545-.221.562-.028.921l.335.669.306.308.056 1.254c-.006.015-.326.379-.36.641-.022.887.448 1.562.528 2.536.004.247-.176.789-.279 1.005l-.391.669-.642.308c-.788.447-1.051.807-1.198 1.699-1.076.674-1.07.909-1.422 1.95-.222.662-.611 1.583-.779 2.286l-.224 1.255.11.669a.51.51 0 0 0 .474.279c.2-.016.356-.188.502-.307l.224.026c.136.243.181.229.057.558-.135.271-.545.57-.643.67l-.558.696-.528.642-.308 1.312c-.051.319-.024.338.058.558l.475.168.082.528-.277.334.083.224c.88.293.804.804 1.198 1.031l.669.307.67.92.726.947 2.368 3.931.56 1.562 1.311 1.951.696.528c.108.165.196.837.196.837l.25.502.779.809 1.562.892 3.539 1.477c.451.205 1.755.854 2.146 1.144l.754.67c.336.332.442.548.696.947l.362 1.254v1.533l-.194 2.229-.085 1.312-.225 1.364.086 1.785-.922 4.458-.139.335-.139.444c-.109.252-.061.041-.225.531.396.657.635.723.418 1.588l-.306.975.056-.025c-.215 1.33-.145.557 0 1.477l.111 1.281-.14.67.084.641-.111 1.005c-.003.569.185.249-.139 1.197l-.308.808-.168.252-.416 1.227-.225.894c-.312.097-.38.083-.641.362a1.373 1.373 0 0 0-.334.695c-.016.162.191 1.177.252 1.394.191.729.191.226-.086 1.116l-.166.474c-.239.58-.408 1.742-.362 2.343l.083.558c.3.085.279.046.695 0l.197-.308.193-.027.057.14c-.149.338-.119.171-.057.613.135.938.096.479-.139 1.338l-.139.612.057.726.334.696-.225.111-.334.392c-.062.147.027.823.027.919l-.057.586c-.406.135-.56.084-1.086.084l-.168-.223c-.277-.03-.185-.036-.444 0-.106.191-.183.293-.169.584.006.108.079.43.169.502.137.113.836.101.862.111l.307.308-.475.307c.525.655.099-.015.754.642-.168.166-.108.146-.223.307-.138.189-.334.306-.363.669l.057.642.223.252-.169.391-.307.334-.222.027-.027.25.277.364.059.584c.011.359-.146.019.083 1.229.541.202.481.411.921.946l.307-.027.361.086.252.25c.004.007.014.457.111.558l.251.111.333.223.643.057.613.278h.335c.218-.238.681-.778.946-.92.188-.1.902-.225 1.449-.529.074-.301.057-.197.057-.528 0-.388.043-.239-.195-.613.206-.409.176-.247.139-.668l.643-.669.306-.643.308-.334.598-.037.391-.92.252-.027.92-1.002c.352-.447.176-.451.613-.727.008-.175.068-.666-.058-.809l-1.281-.668-.251-.612v-.392l.223-.586.612-.334 1.283-.026.642-.335.278-.361-.026-.613.473-1.004.141-.584.307-.336.308-.109.333.083.222-.14c.056-.074.065-.455.028-.529l-.278-.25-.67-.057-.194-.084-.475-1.477.083-.225.53-.139.641.057.391.195c.441.129 1.567-.059 2.035-.111l.082-.252.029-.946.195-.308.082-1.17.279-.111.643.279.947-.084.612-.252.921-.111 3.707-1.699.5-.334.502-.643c.118-.227.266-1.013.28-1.281.011-.233-.035-1.323-.14-1.533l-1.449-1.588v-.502l.004-.012c.439-.06.579.043 1.057.123.463.077 2.953.396 3.203.391.377-.01 1.504-.227 1.84-.363a14.202 14.202 0 0 0 1.812-1.061l1.003-.946.224-.112.307-.586s.057-.561.111-.668l.558-.557c.005-.004.339.002.642-.196.355-.231.244-.358.307-.528l.196-.334.193-.642c.394-.81 3.776-4.067 3.848-4.265l.529-2.537c.034-.526-.195-.428-.308-.642l-.109-.669c.009-.436.328-.58.361-.613l.279-.391c.215-.207.668-.333.67-.334l.557-.611.445-.67.781-.642c.508-.335 1.391-.58 1.561-.67l.977-.696.893-.279.39-.39.14-.333.391-.279h.668l.643.252.111-.252c.748-.209.636-.176 1.451-.14v-.026l.443-.084.922-.67.61-.668.308-.279.307-.696.586-.948.307-.641c.512-.985.451-.643.836-1.115.51-.698.325-.587.393-.864l.25-.642.058-.643.222-.361c0-.002.002-1.047.057-1.199.076-.211.82-.973.837-1.002l.194-.641-.194-.67c-.058-.402.14-.49.194-.697.084-.502.029-1.33 0-1.838-.066-1.17-.047-.929-.279-2.092.246-.244.138-.096.225-.447.082-.34.141-.221.223-.361.067-.117.111-.611.111-.613l.251-.277.279-.058.334-.362c.438-.455.257-.194.586-.947.435-.998.34-.701.92-1.616l.39-.642 1.283-1.617.194-.334c.347-.559.33-.381.558-.975.627-1.642 1.088-1.962 1.088-3.875-.019-.701.045-1.033-.131-1.721zm-74.061 5.24l-.475-.419.475.39.193.67-.193-.641zm19.735 19.567a.984.984 0 0 1-.283.091.91.91 0 0 0 .283-.118.22.22 0 0 0 .07-.079.26.26 0 0 1-.07.106zm.127-.305a.906.906 0 0 0-.011-.225l.022.084a.932.932 0 0 1-.011.141zm1.433 53.572l-.528-.612-.278-.643-.391-.167h-.585l-.978.419-.137.223.081.251.503.083-.391.254v.167l.391.167-.029.419-.305.083-.502-.141-.502.027c-.146.061-.326.348-.334.503l.084.333.334.223.977.168.809-.139.643-.39.474.083.586.278.752.111c.612.077.799.083 1.394.083l-.392-.527c-.191-.197-1.598-1.186-1.676-1.256zm9.674-3.791l-.782.083c-.646 1.423-.631.445-.694 1.394l.193.195.391-.084c.168-.091.385-.549.391-.558l.252-.195.475-.446-.029-.307-.197-.082zm1.729-.224l-.279.085c-.328.162-.693.714-.78.78-.347.208-.308.033-.417.307h.893l.584-.307.252-.308-.057-.417-.196-.14z"/></g></svg>