<?xml version="1.0" encoding="utf-8"?>
<!-- Generator: Adobe Illustrator 14.0.0, SVG Export Plug-In . SVG Version: 6.00 Build 43363)  -->
<!DOCTYPE svg PUBLIC "-//W3C//DTD SVG 1.1//EN" "http://www.w3.org/Graphics/SVG/1.1/DTD/svg11.dtd">
<svg version="1.1" id="Layer_1" xmlns="http://www.w3.org/2000/svg" xmlns:xlink="http://www.w3.org/1999/xlink" x="0px" y="0px"
	 width="14px" height="10px" viewBox="0 0 14 10" enable-background="new 0 0 14 10" xml:space="preserve">
<g>
	<defs>
		<rect id="SVGID_1_" width="12" height="10"/>
	</defs>
	<clipPath id="SVGID_2_">
		<use xlink:href="#SVGID_1_"  overflow="visible"/>
	</clipPath>
	<path clip-path="url(#SVGID_2_)" fill="#4C90CD" d="M9.332,6.021v2.083c0,0.515-0.184,0.957-0.55,1.323
		C8.415,9.794,7.974,9.978,7.458,9.978H2.044c-0.517,0-0.958-0.184-1.324-0.551C0.352,9.061,0.169,8.618,0.169,8.104V2.688
		c0-0.516,0.183-0.957,0.551-1.324c0.366-0.366,0.807-0.55,1.324-0.55h4.581c0.06,0,0.11,0.02,0.149,0.059
		c0.04,0.039,0.058,0.089,0.058,0.15v0.416c0,0.061-0.018,0.11-0.058,0.149c-0.039,0.039-0.09,0.06-0.149,0.06H2.044
		c-0.287,0-0.532,0.101-0.735,0.305C1.105,2.157,1.002,2.402,1.002,2.688v5.415c0,0.285,0.103,0.531,0.307,0.732
		c0.203,0.205,0.448,0.308,0.735,0.308h5.414c0.285,0,0.531-0.103,0.735-0.308c0.202-0.201,0.305-0.447,0.305-0.732V6.021
		c0-0.062,0.021-0.111,0.059-0.151c0.039-0.038,0.089-0.057,0.15-0.057h0.415c0.063,0,0.111,0.019,0.151,0.057
		C9.312,5.91,9.332,5.959,9.332,6.021 M11.83,0.398v3.331c0,0.113-0.041,0.211-0.123,0.293c-0.082,0.083-0.18,0.124-0.293,0.124
		c-0.112,0-0.21-0.041-0.293-0.124L9.977,2.877L5.733,7.121C5.689,7.162,5.64,7.186,5.583,7.186c-0.056,0-0.106-0.023-0.149-0.064
		L4.692,6.377C4.648,6.335,4.627,6.284,4.627,6.229c0-0.057,0.021-0.107,0.065-0.149l4.243-4.243L7.79,0.69
		C7.707,0.608,7.665,0.51,7.665,0.398c0-0.113,0.042-0.211,0.125-0.293c0.082-0.082,0.18-0.124,0.292-0.124h3.332
		c0.113,0,0.211,0.042,0.293,0.124S11.83,0.285,11.83,0.398"/>
</g>
</svg>
