<?xml version="1.0" encoding="utf-8"?>
<!-- Generator: Adobe Illustrator 14.0.0, SVG Export Plug-In . SVG Version: 6.00 Build 43363)  -->
<!DOCTYPE svg PUBLIC "-//W3C//DTD SVG 1.1//EN" "http://www.w3.org/Graphics/SVG/1.1/DTD/svg11.dtd">
<svg version="1.1" id="Layer_1" xmlns="http://www.w3.org/2000/svg" xmlns:xlink="http://www.w3.org/1999/xlink" x="0px" y="0px"
	 width="16px" height="16px" viewBox="0 0 16 16" enable-background="new 0 0 16 16" xml:space="preserve">
<path fill="#4C90CD" d="M11.5,0.001L11.5,0.001L11,0h-1H3v2H0v4h3v10h13V4.501L11.5,0.001z M8.813,7.68
	c0.473,0.771,1.213,1.683,2.342,2.53c-0.269,0.012-0.539,0.034-0.811,0.078c-0.965,0.154-1.862,0.502-2.676,0.94
	C8.309,9.962,8.641,8.686,8.813,7.68z M11.085,1l3,3H11V1H11.085z M4,1h6v4h0.453H11h4v6.055c-4.871-1.598-5.892-4.931-6-5.352V2H4
	V1z M1,5V3h2h1h4v2H4H3H1z M7.992,6C7.942,7.059,7.515,11.642,4,13.922V6H7.992z M15,15H4.641c1.026-1.176,3.204-3.301,5.86-3.725
	c1.557-0.246,3.065,0.139,4.499,1.129V15z"/>
</svg>
