<?xml version="1.0" encoding="utf-8"?>
<!-- Generator: Adobe Illustrator 16.2.1, SVG Export Plug-In . SVG Version: 6.00 Build 0)  -->
<!DOCTYPE svg PUBLIC "-//W3C//DTD SVG 1.1//EN" "http://www.w3.org/Graphics/SVG/1.1/DTD/svg11.dtd">
<svg version="1.1" id="Layer_1" xmlns="http://www.w3.org/2000/svg" xmlns:xlink="http://www.w3.org/1999/xlink" x="0px" y="0px"
	 width="300px" height="300px" viewBox="0 0 300 300" enable-background="new 0 0 300 300" xml:space="preserve">
<path fill="#FFFFFF" d="M257.712,192.777H247.67v-8.461v-5.838h-33.859l-21.398,26.998h-86.606L89.56,184.984H61.411v-61.091h26.093
	l18.299-23.098h86.606l26.536,33.485h28.725v-15.595h10.042V192.777z M236.012,107.007v5.839v9.758H224.6l-26.556-33.486h-42.463
	v-9.483h44.692V67.939H99.182v11.695h44.721v9.483h-43.734l-18.308,23.098H49.733v35.451h-8.727v-44.721H29.31v101.12h11.696
	v-44.703h8.727v37.291h34.18l16.255,20.506h97.875l21.4-27.012h16.563v8.473v5.818h33.382v-97.432L236.012,107.007L236.012,107.007z
	"/>
</svg>
