<?xml version="1.0" encoding="utf-8"?>
<!-- Generator: Adobe Illustrator 16.2.1, SVG Export Plug-In . SVG Version: 6.00 Build 0)  -->
<!DOCTYPE svg PUBLIC "-//W3C//DTD SVG 1.1//EN" "http://www.w3.org/Graphics/SVG/1.1/DTD/svg11.dtd">
<svg version="1.1" id="Layer_1" xmlns="http://www.w3.org/2000/svg" xmlns:xlink="http://www.w3.org/1999/xlink" x="0px" y="0px"
	 width="300px" height="300px" viewBox="0 0 300 300" enable-background="new 0 0 300 300" xml:space="preserve">
<path fill="#FFFFFF" d="M138.212,271.111c-63.093,0-114.419-51.332-114.419-114.432c0-63.087,51.327-114.421,114.419-114.421v11.467
	c-56.77,0-102.961,46.191-102.961,102.954c0,56.772,46.191,102.979,102.961,102.979c55.228,0,100.407-43.199,102.854-98.329
	c0.062-1.538,0.097-3.084,0.097-4.647h11.455c0,1.731-0.035,3.438-0.099,5.151C249.799,223.121,199.592,271.111,138.212,271.111"/>
<path fill="#FFFFFF" d="M138.212,94.271c-34.424,0-62.427,27.998-62.427,62.409c0,34.422,28.002,62.43,62.427,62.43
	c34.406,0,62.421-28.008,62.421-62.43C200.634,122.269,172.618,94.271,138.212,94.271 M138.212,225.41
	c-37.892,0-68.732-30.816-68.732-68.73c0-37.884,30.84-68.719,68.732-68.719c37.888,0,68.731,30.835,68.731,68.719
	C206.943,194.594,176.1,225.41,138.212,225.41"/>
<path fill="#FFFFFF" d="M158.85,66.123c35.898,8.091,63.402,36.217,70.657,72.254l29.935-4.189
	c-9.199-48.771-47.725-87.959-96.357-98.003L158.85,66.123z M219.917,151.297l-0.794-5.684
	c-4.969-35.59-32.135-63.429-67.643-69.258l-5.531-0.904l7.441-52.523l5.738,0.893c58.152,9.125,104.444,56.174,112.585,114.437
	l0.794,5.674L219.917,151.297z"/>
<path fill="#FFFFFF" d="M125.725,156.688c0,6.912,5.58,12.498,12.487,12.498c6.897,0,12.488-5.586,12.488-12.498
	c0-6.896-5.591-12.479-12.488-12.479C131.305,144.209,125.725,149.79,125.725,156.688"/>
<path fill="#FFFFFF" d="M138.212,116.626c-22.099,0-40.062,17.972-40.062,40.062c0,22.086,17.963,40.063,40.062,40.063
	c22.084,0,40.08-17.978,40.08-40.063C178.292,134.598,160.297,116.626,138.212,116.626 M138.212,208.223
	c-28.427,0-51.538-23.121-51.538-51.535c0-28.402,23.111-51.525,51.538-51.525c28.413,0,51.534,23.124,51.534,51.525
	C189.746,185.102,166.625,208.223,138.212,208.223"/>
<path fill="#FFFFFF" d="M131.968,186.057c0,3.465,2.79,6.248,6.245,6.248c3.438,0,6.252-2.783,6.252-6.248
	c0-3.43-2.814-6.229-6.252-6.229C134.757,179.825,131.968,182.627,131.968,186.057"/>
<path fill="#FFFFFF" d="M164.223,171.703c3.278,1.068,6.805-0.727,7.856-4.014c1.069-3.271-0.716-6.807-4.021-7.864
	c-3.254-1.069-6.771,0.725-7.851,4.004C159.148,167.126,160.936,170.643,164.223,171.703"/>
<path fill="#FFFFFF" d="M160.527,136.6c2.021-2.788,1.396-6.699-1.387-8.727c-2.775-2.029-6.688-1.401-8.717,1.387
	c-2.038,2.784-1.402,6.687,1.373,8.714C154.598,140.002,158.496,139.384,160.527,136.6"/>
<path fill="#FFFFFF" d="M125.999,129.255c-2.029-2.788-5.93-3.412-8.728-1.387c-2.796,2.027-3.402,5.938-1.374,8.723
	c2.019,2.789,5.925,3.416,8.714,1.388C127.417,135.95,128.022,132.04,125.999,129.255"/>
<path fill="#FFFFFF" d="M108.345,159.825c-3.288,1.067-5.077,4.596-4.022,7.874c1.069,3.277,4.601,5.072,7.875,4.004
	c3.287-1.077,5.078-4.586,4.017-7.866C115.149,160.559,111.619,158.756,108.345,159.825"/>
</svg>
