<?xml version="1.0" encoding="utf-8"?>
<!-- Generator: Adobe Illustrator 16.2.1, SVG Export Plug-In . SVG Version: 6.00 Build 0)  -->
<!DOCTYPE svg PUBLIC "-//W3C//DTD SVG 1.1//EN" "http://www.w3.org/Graphics/SVG/1.1/DTD/svg11.dtd">
<svg version="1.1" id="Layer_1" xmlns="http://www.w3.org/2000/svg" xmlns:xlink="http://www.w3.org/1999/xlink" x="0px" y="0px"
	 width="300px" height="300px" viewBox="0 0 300 300" enable-background="new 0 0 300 300" xml:space="preserve">
<g>
	<rect x="37.02" y="144.865" fill="#FFFFFF" width="78.466" height="11.404"/>
	<rect x="37.02" y="176.596" fill="#FFFFFF" width="78.466" height="11.432"/>
	<rect x="37.02" y="208.354" fill="#FFFFFF" width="78.466" height="11.412"/>
	<path fill="#FFFFFF" d="M265.12,149.859h-0.101c-0.252-11.095-3.272-21.702-8.646-31.219c-5.589-9.953-13.604-18.781-23.391-26.149
		c-9.475-7.133-19.158-13.084-30.237-17.221c-11.044-4.12-23.403-6.377-38.05-6.377c-0.781,0-3.309-0.068-6.428-0.068
		c-4.291,0-9.854,0.127-15.065,0.815c-1.442,0.186-2.642,0.831-3.465,1.502c-1.579,1.31-2.199,2.575-2.787,3.793
		c-1.015,2.291-1.611,4.816-2.18,7.854c-0.974,5.287-1.653,12.009-2.181,19.252c-1.546,21.693-1.57,47.954-1.57,48.038v0.981
		c0,0.059,0.017,18.569,0.932,37.317c0.469,9.386,1.149,18.81,2.206,26.201c0.529,3.698,1.141,6.873,2.007,9.532
		c0.435,1.367,0.922,2.586,1.778,3.896c0.419,0.646,0.965,1.325,1.796,1.997c0.823,0.67,2.015,1.31,3.465,1.502
		c5.212,0.688,10.775,0.812,15.064,0.812c3.119,0,5.646-0.082,6.43-0.082c14.645,0.017,27.006-2.231,38.05-6.389
		c11.078-4.121,20.765-10.068,30.235-17.209c9.787-7.354,17.801-16.188,23.392-26.144c5.371-9.526,8.396-20.118,8.646-31.22h0.102
		L265.12,149.859L265.12,149.859z M147.429,221.695L147.429,221.695h0.007H147.429z M226.129,199.523
		c-8.964,6.722-17.639,12.002-27.357,15.636c-9.729,3.633-20.569,5.666-34.07,5.666c-1.178,0-3.441,0.075-6.43,0.075
		c-3.358,0-7.504-0.159-11.331-0.528c-0.009-0.049-0.017-0.065-0.034-0.117c-0.452-1.495-0.93-3.843-1.36-6.683
		c-1.493-9.961-2.315-25.754-2.702-38.863c-0.199-6.562-0.285-12.479-0.351-16.759c-0.05-4.278-0.05-6.89-0.05-6.89v-0.981
		c0,0,0-1.125,0.016-3.139c0.051-7.007,0.287-24.649,1.275-40.485c0.494-7.905,1.19-15.374,2.097-20.661
		c0.37-2.206,0.781-3.876,1.141-5.025c3.83-0.378,7.94-0.529,11.296-0.529c2.986,0,5.252,0.067,6.43,0.067
		c13.502,0,24.344,2.04,34.072,5.674c9.719,3.625,18.394,8.896,27.357,15.643c8.668,6.528,15.576,14.208,20.311,22.608
		c4.599,8.191,7.098,17.036,7.23,26.334c-0.133,9.297-2.634,18.151-7.23,26.352C241.706,185.307,234.799,193.012,226.129,199.523z"
		/>
	<rect x="37.02" y="81.378" fill="#FFFFFF" width="78.466" height="11.415"/>
	<rect x="37.02" y="113.117" fill="#FFFFFF" width="78.466" height="11.413"/>
</g>
</svg>
