<?xml version="1.0" encoding="utf-8"?>
<!-- Generator: Adobe Illustrator 16.2.1, SVG Export Plug-In . SVG Version: 6.00 Build 0)  -->
<!DOCTYPE svg PUBLIC "-//W3C//DTD SVG 1.1//EN" "http://www.w3.org/Graphics/SVG/1.1/DTD/svg11.dtd">
<svg version="1.1" id="Layer_1" xmlns="http://www.w3.org/2000/svg" xmlns:xlink="http://www.w3.org/1999/xlink" x="0px" y="0px"
	 width="300px" height="300px" viewBox="0 0 300 300" enable-background="new 0 0 300 300" xml:space="preserve">
<g>
	<path fill="#FFFFFF" d="M147.987,22.56c-70.53,0-127.689,57.167-127.699,127.688c0.009,70.531,57.169,127.682,127.699,127.682
		c70.513,0,127.681-57.146,127.681-127.681C275.668,79.727,218.5,22.56,147.987,22.56z M229.161,231.42
		c-20.804,20.807-49.47,33.627-81.174,33.637c-31.723-0.01-60.389-12.83-81.192-33.637c-20.782-20.771-33.605-49.445-33.624-81.171
		c0.019-31.735,12.843-60.38,33.624-81.184c20.803-20.772,49.469-33.615,81.192-33.615c31.707,0,60.373,12.843,81.174,33.615
		c20.784,20.804,33.625,49.448,33.625,81.183C262.786,181.973,249.945,210.648,229.161,231.42z"/>
	<path fill="#FFFFFF" d="M147.987,69.687c-44.505,0.01-80.551,36.066-80.571,80.563c0.02,44.496,36.066,80.562,80.571,80.562
		c44.479,0,80.533-36.065,80.533-80.562S192.466,69.697,147.987,69.687z M207.219,117.545l-34.087,11.082
		c-2.819-3.292-6.252-5.991-10.161-7.973V84.298c12.662,2.861,23.973,9.222,32.855,18.093
		C200.307,106.871,204.137,111.973,207.219,117.545z M82.378,133.896c0.95-3.81,2.181-7.5,3.741-11.021l33.135,10.78
		c-1.93,3.32-3.331,6.972-4.01,10.902L82.378,133.896z M132.485,179.582l-20.343,28.005c-3.301-2.062-6.391-4.399-9.282-7
		l20.443-28.125C125.926,175.363,129.015,177.743,132.485,179.582z M133.526,164.712c-3.711-3.721-5.981-8.802-5.981-14.464
		c0-5.651,2.27-10.732,5.981-14.442c3.719-3.709,8.791-5.98,14.46-5.99c5.642,0.01,10.723,2.281,14.444,5.99
		c3.711,3.71,5.98,8.792,5.98,14.442c0,5.661-2.271,10.742-5.98,14.464c-3.721,3.71-8.802,5.97-14.444,5.99
		C142.318,170.682,137.246,168.422,133.526,164.712z M171.143,174.143l20.313,27.937c-2.959,2.487-6.161,4.688-9.521,6.649
		l-20.427-28.084C165.111,179.044,168.352,176.843,171.143,174.143z M180.952,146.799c-0.419-3.98-1.479-7.741-3.179-11.181
		l32.942-10.701c1.438,3.568,2.603,7.279,3.423,11.11L180.952,146.799z M154.891,82.928v34.745c-2.24-0.479-4.542-0.74-6.904-0.74
		c-1.618,0-3.159,0.251-4.71,0.479V82.82c1.561-0.109,3.12-0.24,4.71-0.24C150.318,82.579,152.618,82.698,154.891,82.928z
		 M100.131,102.391c9.392-9.381,21.494-15.972,35.045-18.563v35.666c-4.09,1.711-7.771,4.2-10.841,7.302l-34.416-11.183
		C92.799,110.813,96.19,106.341,100.131,102.391z M80.297,150.248c0.01-2.829,0.241-5.601,0.581-8.341l34.066,11.069
		c0.37,4.44,1.58,8.611,3.51,12.393l-21.353,29.404C86.669,182.855,80.318,167.343,80.297,150.248z M119.313,211.488l20.985-28.883
		c2.469,0.58,5.03,0.979,7.689,0.979c1.8,0,3.551-0.262,5.283-0.54l21.363,29.423c-8.172,3.504-17.162,5.444-26.646,5.444
		C137.707,217.911,128.026,215.568,119.313,211.488z M197.346,196.436l-21.002-28.9c2.229-3.661,3.752-7.751,4.44-12.162
		l34.556-11.231c0.182,2.02,0.32,4.04,0.32,6.11C215.659,168.15,208.688,184.323,197.346,196.436z"/>
</g>
</svg>
