<?xml version="1.0" encoding="utf-8"?>
<!-- Generator: Adobe Illustrator 14.0.0, SVG Export Plug-In . SVG Version: 6.00 Build 43363)  -->
<!DOCTYPE svg PUBLIC "-//W3C//DTD SVG 1.1//EN" "http://www.w3.org/Graphics/SVG/1.1/DTD/svg11.dtd">
<svg version="1.1" id="Layer_1" xmlns="http://www.w3.org/2000/svg" xmlns:xlink="http://www.w3.org/1999/xlink" x="0px" y="0px"
	 width="300px" height="300px" viewBox="0 0 300 300" enable-background="new 0 0 300 300" xml:space="preserve">
<g>
	<path fill="#FFFFFF" d="M148.893,221.314V114.247h-10.378v107.067c-6.449,2.176-11.112,8.271-11.112,15.444
		c0,8.988,7.314,16.301,16.305,16.301c8.984,0,16.293-7.313,16.293-16.301C160.001,229.583,155.34,223.488,148.893,221.314z"/>
	<path fill="#FFFFFF" d="M164.778,208.027v-24.509h4.439v-10.377h-4.439v-48.643h4.439v-10.376h-4.439V65.477h4.439V55.101h-4.439
		v-3.037c0-11.614-9.453-21.063-21.073-21.063c-11.614,0-21.063,9.449-21.063,21.063v155.963
		c-9.204,6.743-14.675,17.425-14.675,28.732c0,19.708,16.033,35.741,35.741,35.741s35.741-16.033,35.741-35.741
		C179.45,225.45,173.98,214.768,164.778,208.027z M143.709,261.616c-13.707,0-24.859-11.151-24.859-24.857
		c0-6.136,2.275-12.037,6.406-16.617c2.063-2.285,4.478-4.142,7.175-5.519l0.818-0.417V59.732c0-18.431,4.294-18.431,10.238-18.431
		h0.214c5.758,0,9.63,0,10.344,13.8h-4.397v10.376h4.525v48.644h-3.525v10.376h3.525v48.643h-3.525v10.377h3.525v30.687l0.816,0.418
		c2.708,1.387,5.122,3.245,7.175,5.523c4.132,4.587,6.407,10.486,6.407,16.613C168.571,250.465,157.418,261.616,143.709,261.616z"/>
	<path fill="#FFFFFF" d="M176.596,33.697c-5.49,0-9.476,3.944-9.476,9.378c0,5.673,3.896,9.636,9.476,9.636
		c5.496,0,9.484-4.008,9.484-9.53C186.08,37.686,182.092,33.697,176.596,33.697z M176.596,40.431c0.54,0,1.665,0,1.665,2.75
		c0,2.799-1.083,2.799-1.665,2.799c-0.576,0-1.648,0-1.648-2.854C174.947,40.431,176.103,40.431,176.596,40.431z"/>
	<path fill="#FFFFFF" d="M207.29,58.537l-0.368,1.553c-1.273,5.356-2.863,5.792-4.659,5.792c-2.366,0-5.083-1.314-5.083-11.561
		c0-4.007,0.566-7.293,1.608-9.281c0.608-1.218,1.837-1.917,3.372-1.917c1.738,0,2.988,0.37,4.476,5.309l0.434,1.438l9.95-3.006
		l-0.479-1.46c-1.065-3.243-1.913-5.045-3.131-6.658c-2.452-3.211-6.062-4.839-10.729-4.839c-10.388,0-16.589,7.767-16.589,20.777
		c0,12.785,6.045,20.417,16.171,20.417c4.222,0,7.688-1.356,10.274-4.003c2.027-1.972,3.147-4.099,4.283-8.128l0.399-1.415
		L207.29,58.537z"/>
	<rect x="78.425" y="183.945" fill="#FFFFFF" width="36.386" height="10.377"/>
	<polygon fill="#FFFFFF" points="91.433,78.365 101.809,78.365 101.809,65.36 114.811,65.36 114.811,54.983 101.809,54.983 
		101.809,41.976 91.433,41.976 91.433,54.983 78.425,54.983 78.425,65.36 91.433,65.36 	"/>
</g>
</svg>
