<?xml version="1.0" encoding="utf-8"?>
<!-- Generator: Adobe Illustrator 16.2.1, SVG Export Plug-In . SVG Version: 6.00 Build 0)  -->
<!DOCTYPE svg PUBLIC "-//W3C//DTD SVG 1.1//EN" "http://www.w3.org/Graphics/SVG/1.1/DTD/svg11.dtd">
<svg version="1.1" id="Ebene_1" xmlns="http://www.w3.org/2000/svg" xmlns:xlink="http://www.w3.org/1999/xlink" x="0px" y="0px"
	 width="14px" height="14px" viewBox="0 0 14 14" enable-background="new 0 0 14 14" xml:space="preserve">
<path fill="#808285" d="M14,11.921l-3.944-3.974c0.409-0.761,0.641-1.631,0.641-2.557C10.697,2.412,8.303,0,5.349,0
	C2.394,0,0.001,2.412,0,5.39c0.001,2.975,2.394,5.389,5.349,5.389c0.975,0,1.887-0.264,2.674-0.723L11.938,14L14,11.921z
	 M1.495,5.39c0.003-2.126,1.725-3.847,3.854-3.85c2.129,0.003,3.851,1.724,3.854,3.85C9.199,7.515,7.478,9.236,5.349,9.239
	C3.219,9.236,1.498,7.515,1.495,5.39z"/>
</svg>
