<?xml version="1.0" encoding="utf-8"?>
<!-- Generator: Adobe Illustrator 16.2.1, SVG Export Plug-In . SVG Version: 6.00 Build 0)  -->
<!DOCTYPE svg PUBLIC "-//W3C//DTD SVG 1.1//EN" "http://www.w3.org/Graphics/SVG/1.1/DTD/svg11.dtd">
<svg version="1.1" id="Layer_1" xmlns="http://www.w3.org/2000/svg" xmlns:xlink="http://www.w3.org/1999/xlink" x="0px" y="0px"
	 width="300px" height="300px" viewBox="0 0 300 300" enable-background="new 0 0 300 300" xml:space="preserve">
<path fill="#FFFFFF" d="M150.314,196.316v5.388c20.674,0,40.028,5.505,56.747,15.172l4.703,2.714l66.59-117.739l-4.633-2.653
	c-36.354-20.94-78.516-32.912-123.407-32.912c-45.467,0-88.127,12.304-124.813,33.726l-4.537,2.664L86.52,221.146l4.773-2.914
	c17.237-10.5,37.403-16.527,59.021-16.527V196.316v-5.365c-23.627,0-45.768,6.611-64.609,18.099l2.799,4.593l4.703-2.595
	L32.92,102.067l-4.702,2.592l2.708,4.642c35.109-20.52,75.863-32.255,119.386-32.255c42.983,0,83.234,11.439,118.042,31.452
	l2.693-4.647l-4.693-2.637L205.07,209.573l4.674,2.653l2.682-4.636c-18.267-10.591-39.509-16.639-62.113-16.639L150.314,196.316
	L150.314,196.316z"/>
<polygon fill="#FFFFFF" points="114.202,99.206 109.992,116.709 108.319,125.899 114.202,132.567 104.953,132.567 100.743,134.224 
	106.63,137.555 114.202,138.399 109.164,142.569 105.797,148.391 96.546,156.746 91.709,156.264 88.127,155.913 81.401,155.078 
	94.86,160.906 104.109,157.572 112.524,147.578 117.569,150.898 116.725,178.41 121.763,147.578 129.34,152.578 141.951,152.578 
	150.36,156.746 136.912,145.055 125.974,139.232 125.974,128.39 141.951,129.21 144.472,138.399 152.04,139.232 146.995,130.053 
	143.628,121.729 132.702,123.386 121.763,125.065 120.085,115.885 117.569,124.22 112.524,120.895 "/>
</svg>
