<?xml version="1.0" encoding="utf-8"?>
<!-- Generator: Adobe Illustrator 16.2.1, SVG Export Plug-In . SVG Version: 6.00 Build 0)  -->
<!DOCTYPE svg PUBLIC "-//W3C//DTD SVG 1.1//EN" "http://www.w3.org/Graphics/SVG/1.1/DTD/svg11.dtd">
<svg version="1.1" id="Layer_1" xmlns="http://www.w3.org/2000/svg" xmlns:xlink="http://www.w3.org/1999/xlink" x="0px" y="0px"
	 width="23px" height="23px" viewBox="62.5 77.5 23 23" enable-background="new 62.5 77.5 23 23" xml:space="preserve">
<g>
	<rect x="62.5" y="77.5" fill="#00A3E1" width="23" height="23"/>
	<path fill="#FFFFFF" d="M81.84,84.137c-0.577,0.257-1.196,0.429-1.848,0.507c0.664-0.397,1.174-1.028,1.414-1.779
		c-0.621,0.368-1.31,0.636-2.043,0.78c-0.586-0.625-1.422-1.016-2.348-1.016c-1.776,0-3.217,1.44-3.217,3.217
		c0,0.252,0.028,0.497,0.083,0.733c-2.673-0.135-5.043-1.415-6.63-3.361c-0.277,0.475-0.436,1.028-0.436,1.616
		c0,1.117,0.568,2.102,1.431,2.679c-0.527-0.017-1.023-0.162-1.457-0.402c0,0.013,0,0.026,0,0.04c0,1.559,1.109,2.858,2.581,3.154
		c-0.27,0.074-0.554,0.113-0.847,0.113c-0.208,0-0.409-0.021-0.605-0.059c0.409,1.278,1.597,2.209,3.005,2.234
		c-1.101,0.863-2.488,1.377-3.995,1.377c-0.26,0-0.516-0.015-0.768-0.044c1.424,0.912,3.115,1.444,4.932,1.444
		c5.917,0,9.152-4.901,9.152-9.152c0-0.14-0.003-0.278-0.01-0.416C80.863,85.35,81.409,84.782,81.84,84.137z"/>
</g>
</svg>
