<?xml version="1.0" encoding="utf-8"?>
<!-- Generator: Adobe Illustrator 14.0.0, SVG Export Plug-In . SVG Version: 6.00 Build 43363)  -->
<!DOCTYPE svg PUBLIC "-//W3C//DTD SVG 1.1//EN" "http://www.w3.org/Graphics/SVG/1.1/DTD/svg11.dtd">
<svg version="1.1" id="Layer_1" xmlns="http://www.w3.org/2000/svg" xmlns:xlink="http://www.w3.org/1999/xlink" x="0px" y="0px"
	 width="300px" height="300px" viewBox="0 0 300 300" enable-background="new 0 0 300 300" xml:space="preserve">
<polygon fill="#FFFFFF" points="187.279,176.618 187.248,176.671 187.306,176.586 "/>
<g>
	<path fill="#FFFFFF" d="M262.814,223.87l0.139-0.139l-57.323-56.609l-0.025,0.026c-3.862-3.811-9.291-9.179-12.772-12.612
		c-4.78-4.72-1.969-10.062-0.771-11.885l0.585-0.594l-0.104-0.102v-0.003l-1.752-1.73l-6.725-6.644l-12.988,13.156l-5.819-5.751
		l11.347-13.62c6.211-7.461,18.139-14.649,18.139-14.649c43.509-15.147,20.711-60.267,20.711-60.267L195.238,76.72l-17.697,0.676
		l-3.852-18.198l20.428-24.523c-4.899-1.515-33.774-2.443-47.326,14.34c-13.55,16.779-5.431,48.989-5.431,48.989l-8.859,10.633
		L72.521,49.402L59.56,33.973l-7.63,7.723l0.002,0.002l-6.845,6.928l0.002,0.003l-5.281,5.347l15.595,12.772l0.002-0.003
		l61.443,60.684l-79.837,95.836l-2.021,2.426c-8.541,10.252-7.587,25.127,2.134,33.225c9.709,8.088,24.512,6.34,33.053-3.906
		l1.457-1.693l0.027,0.021l1.264-1.518l0.039-0.045l76.639-91.999l4.349,4.297l-12.778,12.949l8.582,8.471l0.598-0.605
		c1.813-1.224,7.111-4.082,11.886,0.627c3.483,3.434,8.912,8.799,12.772,12.613l-0.024,0.023l53.764,53.099l-0.061,0.037
		l1.827,1.805c0.22,0.217,0.472,0.375,0.692,0.586l1.101,1.084l0.088-0.086c10.777,9.254,25.214,10.508,33.23,2.391
		C273.632,248.956,272.203,234.529,262.814,223.87 M148.285,103.773l-0.11-0.093c0.144-0.056,0.235-0.09,0.389-0.149
		c0.134-0.2,0.195-0.383,0.371-0.594c1.377-1.676,0.195-9.324,0.195-9.324s-6.407-25.428,4.286-38.673
		c10.699-13.247,21.123-11.656,24.988-10.458l-12.601,14.777l7.342,25.341l25.123-0.766l14.586-16.893
		c0,0,12.765,26.328-21.584,38.282c0,0-8.383,6.352-14.665,10.748c-2.263,1.584-4.664,3.399-6.931,5.623l-10.86,13.031
		l-19.874-19.631L148.285,103.773z M65.197,247.013c-12.06,12.643-17.017,9.379-22.297,4.977c-5.286-4.4-8.964-9.111,1.211-23.162
		l79.177-95.04l19.877,19.633L65.197,247.013z M62.107,60.738l-8.703-8.592l4.496-4.553l5.742,5.669l-0.003,0.002l101.125,99.863
		l-4.494,4.55L62.107,60.738z M260.459,252.421c-4.395,4.459-8.399,7.25-21.836-4.051L181.3,191.761l-0.004,0.007
		c-6.162-6-17.021-15.812-22.147-15.785l24.11-24.418c0.041,5.131,9.985,15.866,16.058,21.949l-0.005,0.006l56.511,55.802
		C267.767,243.029,264.923,247.907,260.459,252.421"/>
</g>
</svg>
