<?xml version="1.0" encoding="utf-8"?>
<!-- Generator: Adobe Illustrator 16.2.1, SVG Export Plug-In . SVG Version: 6.00 Build 0)  -->
<!DOCTYPE svg PUBLIC "-//W3C//DTD SVG 1.1//EN" "http://www.w3.org/Graphics/SVG/1.1/DTD/svg11.dtd">
<svg version="1.1" id="Layer_1" xmlns="http://www.w3.org/2000/svg" xmlns:xlink="http://www.w3.org/1999/xlink" x="0px" y="0px"
	 width="300px" height="300px" viewBox="0 0 300 300" enable-background="new 0 0 300 300" xml:space="preserve">
<path fill="#FFFFFF" d="M221.798,168.523v4.199c12.937,0,23.433-10.486,23.433-23.451c0-12.925-10.496-23.425-23.433-23.425
	c-12.944,0-23.448,10.5-23.448,23.425c0,12.962,10.504,23.451,23.448,23.451V168.523v-4.189c-8.308-0.021-15.021-6.732-15.03-15.061
	c0.01-8.303,6.726-15.015,15.03-15.023c8.31,0.009,15.021,6.722,15.05,15.023c-0.027,8.327-6.74,15.04-15.05,15.061V168.523z"/>
<path fill="#FFFFFF" d="M260.648,216.854l-77.102-48.645l7.014-11.127l77.105,48.634L260.648,216.854z M152.732,179.289
	c-15.211,5.759-32.797,4.57-47.617-4.768c-10.265-6.463-17.558-15.811-21.555-26.342c-5.743-15.207-4.566-32.81,4.766-47.623
	c6.469-10.272,15.81-17.565,26.339-21.554c15.221-5.762,32.805-4.576,47.612,4.775c10.257,6.469,17.562,15.801,21.551,26.312
	c5.749,15.229,4.58,32.813-4.766,47.66C172.589,168.004,163.252,175.312,152.732,179.289 M193.008,148.311
	c4.469-13.696,4.061-28.29-0.898-41.354c-4.629-12.248-13.156-23.166-25.102-30.688c-17.238-10.863-37.794-12.267-55.486-5.554
	c-12.239,4.624-23.176,13.181-30.687,25.114c-10.871,17.251-12.268,37.809-5.554,55.496c4.646,12.258,13.182,23.188,25.115,30.698
	c17.233,10.867,37.79,12.27,55.481,5.557c7.589-2.885,14.59-7.372,20.682-13.141L264.812,230l16.449-26.12L193.008,148.311z"/>
<path fill="#FFFFFF" d="M52.777,152.596l-7.474-0.947l0.009,0.074c-1.313-0.146-2.735-0.277-4.177-0.427
	c-2.573-0.26-5.202-0.537-7.275-0.798l-2.119-0.27c-0.366-1.057-0.844-2.771-1.164-4.303c-0.208-1.063-0.408-2.095-0.523-2.864
	l-0.084-0.552c0.264-0.445,0.729-1.188,1.29-2.045l1.062-1.841c0.334-0.682,0.695-1.423,0.866-2.628l0.492-1.721
	c0.417-1.35,1.006-3.046,1.493-4.403l0.463-1.243c0.445-0.236,1.243-3.504,2.271-3.849c2.592-0.898,6.491-1.831,10.9-2.721
	c0,0,5.544-1.066,6.987-1.331l17.63-2.271c0.136-1.081,1.595-9.268,1.595-9.268l-14.865,2.09c-6.731,1.063-13.53,2.286-19.018,3.626
	c-2.754,0.678-5.184,1.378-7.205,2.156c-1.029,0.39-1.957,0.808-2.842,1.303c-0.862,0.542-1.72,1.099-2.563,2.202l-0.371,3.381
	l-0.208,0.578c-0.009,0.011-0.729,1.967-1.479,4.16c-0.39,1.1-0.789,2.269-1.094,3.307c-0.283,0.953-0.501,1.669-0.664,2.582
	c-0.046,0.198-0.723,1.307-1.432,2.373l-1.103,1.831c-0.344,0.725-0.798,1.368-0.9,3.078l0.102,1.488
	c0.228,1.702,0.723,4.493,1.442,7.153c0.361,1.354,0.76,2.65,1.283,3.839l1.035,1.883c0.495,0.603,1.121,1.513,2.828,2.104
	l1.03,0.229c2.229,0.39,7.367,0.919,12.234,1.419c4.836,0.481,9.185,0.883,9.204,0.883l7.075,0.658L52.777,152.596"/>
<path fill="#FFFFFF" d="M83.575,148.181l-0.533-1.691c0.162,0.913,0.272,1.839,0.283,2.805c-0.029,8.309-6.742,15.021-15.05,15.04
	c-8.298-0.021-15.021-6.731-15.03-15.04c0.009-8.313,6.731-15.018,15.03-15.035c6.135,0.018,11.377,3.662,13.71,8.923
	c-1.233-4.564-1.851-9.276-1.86-14.023c-3.484-2.05-7.5-3.307-11.85-3.307c-12.931,0-23.43,10.497-23.43,23.441
	c0,12.937,10.5,23.423,23.43,23.423c9.403,0,17.443-5.564,21.193-13.539C87.103,155.691,85.044,152.075,83.575,148.181"/>
<path fill="#FFFFFF" d="M188.762,99.826c3.348,0.222,6.102,0.43,7.771,0.62c1.277,0.111,4.729,1.159,8.574,2.667
	c5.834,2.248,12.992,5.518,18.629,8.206c2.818,1.335,5.285,2.545,7.021,3.398c1.771,0.862,2.772,1.386,2.772,1.386l0.834,0.417
	l0.945,0.037c4.672,0.208,9.041,0.751,12.275,1.331c1.418,0.245,2.566,0.5,3.411,0.741l0.36,1.595
	c0.438,2.114,0.92,4.877,1.277,7.14c0.196,1.141,0.336,2.133,0.438,2.885l0.111,0.865l2.021,5.05
	c-0.057,0.599-0.18,1.492-0.314,2.48c-0.345,2.447-1.447,9.435-1.514,9.944c-0.991,0.093-6.389,0.51-8.027,0.64v-0.026v-0.325
	c0-12.861-10.303-23.315-23.136-23.565h-0.427c-12.871,0-23.312,10.333-23.534,23.13l0.226,2.707l-6.521,0.188l-0.407,1.169
	l11.377,7.141l3.396-0.094l1.337-2.133l1.825,1.168l-1.668-4.72c-0.604-1.66-0.957-5.259-0.957-5.259
	c0.147-8.123,6.787-14.673,14.931-14.673h0.276c8.123,0.145,14.68,6.779,14.66,14.943v0.176c-0.011,1.188-0.231,2.411-0.604,3.729
	l-1.597,5.85l6.074-0.416c3.734-0.261,7.963-0.573,11.256-0.845c1.66-0.141,3.078-0.25,4.146-0.371l2.744-0.509l0.99-0.575
	l0.957-0.98l0.688-2.004h0.037c0.037-0.096,0.191-1.242,0.426-2.708c0.354-2.215,0.836-5.359,1.262-8.141
	c0.205-1.396,0.392-2.698,0.527-3.778c0.141-1.099,0.23-1.823,0.271-2.647l-0.058-0.913h-0.02c-0.23-1.242-0.56-1.738-0.834-2.317
	l-1.134-1.966c0,0-0.797-5.156-1.438-8.685c-0.314-1.791-0.646-3.522-0.988-4.961l-0.846-2.874
	c-0.177-0.361-0.271-0.732-1.029-1.595c-1.076-0.997-1.559-1.067-2.142-1.35c-0.938-0.391-1.979-0.672-3.256-0.988
	c-3.626-0.834-9.218-1.65-15.539-1.983c-2.062-1.054-8.281-4.141-15.366-7.377c-4.302-1.965-8.908-3.977-13.044-5.577
	c-4.19-1.604-7.717-2.818-10.722-3.188c-2.947-0.329-8.309-0.709-14.473-0.997C185.2,93.715,187.092,96.714,188.762,99.826"/>
<path fill="#FFFFFF" d="M260.648,216.854l-77.102-48.645l7.014-11.127l77.105,48.634L260.648,216.854z M152.732,179.289
	c-15.211,5.759-32.797,4.57-47.617-4.768c-10.265-6.463-17.558-15.811-21.555-26.342c-5.743-15.207-4.566-32.81,4.766-47.623
	c6.469-10.272,15.81-17.565,26.339-21.554c15.221-5.762,32.805-4.576,47.612,4.775c10.257,6.469,17.562,15.801,21.551,26.312
	c5.749,15.229,4.58,32.813-4.766,47.66C172.589,168.004,163.252,175.312,152.732,179.289 M193.008,148.311
	c4.469-13.696,4.061-28.29-0.898-41.354c-4.629-12.248-13.156-23.166-25.102-30.688c-17.238-10.863-37.794-12.267-55.486-5.554
	c-12.239,4.624-23.176,13.181-30.687,25.114c-10.871,17.251-12.268,37.809-5.554,55.496c4.646,12.258,13.182,23.188,25.115,30.698
	c17.233,10.867,37.79,12.27,55.481,5.557c7.589-2.885,14.59-7.372,20.682-13.141L264.812,230l16.449-26.12L193.008,148.311z"/>
<path fill="#FFFFFF" d="M52.777,152.596l-7.474-0.947l0.009,0.074c-1.313-0.146-2.735-0.277-4.177-0.427
	c-2.573-0.26-5.202-0.537-7.275-0.798l-2.119-0.27c-0.366-1.057-0.844-2.771-1.164-4.303c-0.208-1.063-0.408-2.095-0.523-2.864
	l-0.084-0.552c0.264-0.445,0.729-1.188,1.29-2.045l1.062-1.841c0.334-0.682,0.695-1.423,0.866-2.628l0.492-1.721
	c0.417-1.35,1.006-3.046,1.493-4.403l0.463-1.243c0.445-0.236,1.243-3.504,2.271-3.849c2.592-0.898,6.491-1.831,10.9-2.721
	c0,0,5.544-1.066,6.987-1.331l17.63-2.271c0.136-1.081,1.595-9.268,1.595-9.268l-14.865,2.09c-6.731,1.063-13.53,2.286-19.018,3.626
	c-2.754,0.678-5.184,1.378-7.205,2.156c-1.029,0.39-1.957,0.808-2.842,1.303c-0.862,0.542-1.72,1.099-2.563,2.202l-0.371,3.381
	l-0.208,0.578c-0.009,0.011-0.729,1.967-1.479,4.16c-0.39,1.1-0.789,2.269-1.094,3.307c-0.283,0.953-0.501,1.669-0.664,2.582
	c-0.046,0.198-0.723,1.307-1.432,2.373l-1.103,1.831c-0.344,0.725-0.798,1.368-0.9,3.078l0.102,1.488
	c0.228,1.702,0.723,4.493,1.442,7.153c0.361,1.354,0.76,2.65,1.283,3.839l1.035,1.883c0.495,0.603,1.121,1.513,2.828,2.104
	l1.03,0.229c2.229,0.39,7.367,0.919,12.234,1.419c4.836,0.481,9.185,0.883,9.204,0.883l7.075,0.658L52.777,152.596"/>
<g>
	<g>
		<g>
			<g>
				<defs>
					<path id="SVGID_1_" d="M118.689,89.537c-8.345,3.144-15.745,8.915-20.821,17.006c-7.389,11.715-8.308,25.637-3.778,37.66
						c3.144,8.309,8.953,15.695,17.042,20.797c11.688,7.372,25.587,8.279,37.628,3.766c8.309-3.144,15.668-8.957,20.77-17.053
						c7.393-11.684,8.312-25.583,3.767-37.623c-3.125-8.309-8.92-15.685-17.042-20.784c-6.996-4.414-14.794-6.532-22.513-6.532
						C128.602,86.774,123.473,87.716,118.689,89.537"/>
				</defs>
				<clipPath id="SVGID_2_">
					<use xlink:href="#SVGID_1_"  overflow="visible"/>
				</clipPath>
				<path clip-path="url(#SVGID_2_)" fill="#FFFFFF" d="M84.225,117.846c5.651-0.56,10.833-1.016,14.613-1.312
					c3.788-0.292,6.133-0.454,6.144-0.454l1.984-0.617c0.074-0.065,0.872-0.482,1.876-0.941c3.623-1.697,10.799-4.669,16.996-7.168
					c5.625-2.29,10.419-4.187,11.272-4.501c3.551-1.242,6.731-2.104,8.994-2.646c1.127-0.288,2.03-0.487,2.648-0.625l0.684-0.136
					l0.209-0.035l0.162-0.027l0.123-0.028c0.796-0.25,3.74-0.469,7.292-0.44c3.596,0.022,14.627,0.797,19.18,1.074
					c2.013,0.104,4.062,0.256,6.109,0.399c-1.205-2.67-3.84-8.642-3.97-8.915c-0.56-0.028-17.444-1.186-21.312-1.186
					c-3.77,0.008-6.676,0.12-9.104,0.652v-0.009c-0.152,0.009-6.087,1.089-13.825,3.76l-0.093,0.037l-0.078,0.027
					c-0.01,0-6.913,2.734-14.262,5.726c-3.671,1.502-7.455,3.061-10.566,4.4c-1.566,0.672-2.953,1.289-4.084,1.803l-1.747,0.862
					c-2.537,0.181-10.312,0.761-19.398,1.661c-0.092,1.617-0.162,3.238-0.236,4.88c-0.046,1.123-0.209,2.458-0.343,3.84
					L84.225,117.846z"/>
			</g>
		</g>
	</g>
	<g>
		<g>
			<g>
				<defs>
					<path id="SVGID_3_" d="M118.689,89.537c-8.345,3.144-15.745,8.915-20.821,17.006c-7.389,11.715-8.308,25.637-3.778,37.66
						c3.144,8.309,8.953,15.695,17.042,20.797c11.688,7.372,25.587,8.279,37.628,3.766c8.309-3.144,15.668-8.957,20.77-17.053
						c7.393-11.684,8.312-25.583,3.767-37.623c-3.125-8.309-8.92-15.685-17.042-20.784c-6.996-4.414-14.794-6.532-22.513-6.532
						C128.602,86.774,123.473,87.716,118.689,89.537"/>
				</defs>
				<clipPath id="SVGID_4_">
					<use xlink:href="#SVGID_3_"  overflow="visible"/>
				</clipPath>
				<path clip-path="url(#SVGID_4_)" fill="#FFFFFF" d="M263.85,134.744h-0.02c-0.232-1.256-0.557-1.747-0.834-2.327l-1.133-1.964
					l-0.092-0.182c-0.168-1.47-0.705-4.966-1.349-8.499c-0.321-1.785-0.639-3.522-0.987-4.946l-0.502-1.957l-0.334-0.932
					l-1.039-1.595c-1.076-1.006-1.551-1.071-2.131-1.345c-0.955-0.391-1.986-0.678-3.268-0.987
					c-3.626-0.839-9.219-1.656-15.53-1.995c-2.065-1.048-8.299-4.147-15.354-7.371c-4.32-1.965-8.93-3.977-13.062-5.573
					c-4.191-1.612-7.695-2.816-10.721-3.198c-3.449-0.38-10.162-0.826-17.674-1.122c2.394,2.609,5.054,5.043,7.074,7.862
					l0.846,1.159c3.789,0.228,6.962,0.474,8.789,0.672c1.287,0.116,4.729,1.149,8.576,2.652c5.824,2.258,12.975,5.518,18.629,8.21
					c2.836,1.35,5.285,2.545,7.027,3.408c1.762,0.867,2.764,1.377,2.78,1.377l0.815,0.431l0.927,0.046
					c4.69,0.199,9.067,0.742,12.276,1.299c1.438,0.269,2.588,0.523,3.432,0.76l0.361,1.587c0.438,2.127,0.918,4.89,1.287,7.147
					c0.188,1.132,0.324,2.138,0.428,2.88l0.095,0.861l0.037,0.19h0.026l0.271,1.595c0.51,1.367,1.026,2.063,1.455,2.823l0.26,0.455
					c-0.063,0.598-0.176,1.469-0.334,2.476c-0.334,2.451-0.843,5.669-1.242,8.32l-0.251,1.624c-0.99,0.093-2.111,0.166-3.337,0.276
					c-1.466,0.121-3.079,0.232-4.7,0.371v-0.036v-0.335c0-12.858-10.312-23.313-23.136-23.552h-0.427
					c-12.862,0-23.312,10.33-23.534,23.126v0.426l0.226,2.282l-33.047,0.944l-33.879-0.5l-40.714-0.036l5.076,8.788l35.588-0.129
					l33.981,0.501l44.306-1.262l-1.983-5.602c-0.595-1.65-0.945-3.311-0.945-4.99l0.019-0.26
					c0.122-8.127,6.763-14.669,14.911-14.669h0.277c8.104,0.14,14.648,6.779,14.648,14.929v0.187
					c-0.02,1.178-0.24,2.398-0.595,3.729l-1.612,5.852l6.082-0.416c3.745-0.277,7.975-0.564,11.275-0.846
					c1.65-0.141,3.066-0.27,4.145-0.37l1.346-0.157l0.679-0.13l0.714-0.229l1.001-0.564l0.928-0.993l0.706-1.981h0.057
					c0.021-0.104,0.176-1.254,0.407-2.708c0.353-2.233,0.845-5.364,1.261-8.155c0.205-1.387,0.392-2.688,0.527-3.769
					c0.141-1.112,0.242-1.828,0.271-2.652L263.85,134.744z"/>
			</g>
		</g>
	</g>
</g>
</svg>
