<?xml version="1.0" encoding="utf-8"?>
<!-- Generator: Adobe Illustrator 16.2.1, SVG Export Plug-In . SVG Version: 6.00 Build 0)  -->
<!DOCTYPE svg PUBLIC "-//W3C//DTD SVG 1.1//EN" "http://www.w3.org/Graphics/SVG/1.1/DTD/svg11.dtd">
<svg version="1.1" id="Ebene_1" xmlns="http://www.w3.org/2000/svg" xmlns:xlink="http://www.w3.org/1999/xlink" x="0px" y="0px"
	 width="84px" height="88px" viewBox="0 0 84 88" enable-background="new 0 0 84 88" xml:space="preserve">
<g>
	<path fill="#FFFFFF" d="M11.721,0c-1.698,0-3.075,1.374-3.075,3.069v2.702v8.025v2.702c0,1.694,1.377,3.068,3.075,3.068
		s3.074-1.374,3.074-3.068v-2.702V5.771V3.069C14.795,1.374,13.419,0,11.721,0z"/>
	<path fill="#FFFFFF" d="M72.302,0c-1.698,0-3.074,1.374-3.074,3.069v2.702v8.025v2.702c0,1.694,1.376,3.068,3.074,3.068
		c1.697,0,3.074-1.374,3.074-3.068v-2.702V5.771V3.069C75.376,1.374,73.999,0,72.302,0z"/>
	<path fill="#FFFFFF" d="M51.988,54.242h-7.571v-7.796h7.571V54.242z"/>
	<path fill="#FFFFFF" d="M64.394,54.242h-7.571v-7.796h7.571V54.242z"/>
	<path fill="#FFFFFF" d="M76.799,54.242h-7.571v-7.796h7.571V54.242z"/>
	<path fill="#FFFFFF" d="M14.773,54.242H7.201v-7.796h7.572V54.242z"/>
	<path fill="#FFFFFF" d="M27.178,54.242h-7.572v-7.796h7.572V54.242z"/>
	<path fill="#FFFFFF" d="M39.583,54.242h-7.571v-7.796h7.571V54.242z"/>
	<path fill="#FFFFFF" d="M51.988,43.921h-7.571v-7.796h7.571V43.921z"/>
	<path fill="#FFFFFF" d="M64.394,43.921h-7.571v-7.796h7.571V43.921z"/>
	<path fill="#FFFFFF" d="M76.799,43.921h-7.571v-7.796h7.571V43.921z"/>
	<path fill="#FFFFFF" d="M51.988,64.562h-7.571v-7.794h7.571V64.562z"/>
	<path fill="#FFFFFF" d="M64.394,64.562h-7.571v-7.794h7.571V64.562z"/>
	<path fill="#FFFFFF" d="M76.799,64.562h-7.571v-7.794h7.571V64.562z"/>
	<path fill="#FFFFFF" d="M14.773,64.562H7.201v-7.794h7.572V64.562z"/>
	<path fill="#FFFFFF" d="M27.178,64.562h-7.572v-7.794h7.572V64.562z"/>
	<path fill="#FFFFFF" d="M39.583,64.562h-7.571v-7.794h7.571V64.562z"/>
	<path fill="#FFFFFF" d="M14.773,74.884H7.201v-7.797h7.572V74.884z"/>
	<path fill="#FFFFFF" d="M27.178,74.884h-7.572v-7.797h7.572V74.884z"/>
	<path fill="#FFFFFF" d="M39.583,74.884h-7.571v-7.797h7.571V74.884z"/>
	<path fill="#FFFFFF" d="M76.312,11.237v7.812c0,2.219-1.803,4.019-4.026,4.019c-2.223,0-4.025-1.8-4.025-4.019v-7.812H15.74v7.812
		c0,2.219-1.803,4.019-4.027,4.019s-4.026-1.8-4.026-4.019v-7.812H0V88h84V11.237H76.312z M80.394,84.401H3.606V29.865h76.788
		V84.401z"/>
</g>
</svg>
