<?xml version="1.0" encoding="utf-8"?>
<!-- Generator: Adobe Illustrator 16.2.1, SVG Export Plug-In . SVG Version: 6.00 Build 0)  -->
<!DOCTYPE svg PUBLIC "-//W3C//DTD SVG 1.1//EN" "http://www.w3.org/Graphics/SVG/1.1/DTD/svg11.dtd">
<svg version="1.1" id="Ebene_1" xmlns="http://www.w3.org/2000/svg" xmlns:xlink="http://www.w3.org/1999/xlink" x="0px" y="0px"
	 width="188px" height="188px" viewBox="0 0 188 188" enable-background="new 0 0 188 188" xml:space="preserve">
<g id="Ebene_2">
</g>
<g>
	<path fill="#4C90CD" d="M60.465,12.682l1.193-0.205l0.495,0.146c0.083-0.057,0.287-0.199,0.319-0.292v-0.292l-0.407-0.465
		l-0.727-0.233l-1.252,0.261v0.029c-0.341,0.373-0.286,0.246-0.408,0.612l0.319,0.351L60.465,12.682z"/>
	<path fill="#4C90CD" d="M56.649,17.807l0.408-0.117l0.409-0.291l0.291-0.438l0.642-0.263l0.698-0.115l0.174-0.292l0.643-0.32
		l0.523-0.087V15.68l-0.7-0.787l-0.64-0.35l-0.262-0.175l-0.67,0.058l-0.729,0.379c-0.189,0.153-0.854,1.143-0.875,1.164
		l-0.727,0.67v0.495l0.292,0.32L56.649,17.807z"/>
	<path fill="#4C90CD" d="M69.9,15.271l0.32-0.203l0.523,0.029l0.611,0.205c0.243,0.037,0.854-0.267,1.02-0.264l0.467,0.145
		l0.523-0.145l0.351-0.379c0.062-0.104,0.021-0.691,0-0.729c-0.065-0.111-0.747-0.504-0.874-0.524
		c-0.12-0.019-1.414,0.259-1.456,0.262c-0.7,0.002-0.472-0.112-1.369,0v0.029c-0.483,0.376-0.47,0.416-0.641,0.961l0.349,0.581
		L69.9,15.271z"/>
	<path fill="#4C90CD" d="M66.231,18.768l0.465-0.028c0.181-0.255,0.189-0.216,0.233-0.437l0.029,0.059l0.027-0.408h-0.027
		c-0.129-0.178-0.177-0.283-0.32-0.378c-0.046-0.313-0.041-0.146,0.058-0.351l0.203-0.554l-0.29-0.233
		c-0.461,0.066-0.318,0.011-0.67,0.205l0.176,0.67l-0.059,0.146l-0.466,0.117l-0.377-0.32c-0.049,0.194-0.029,0.384-0.029,0.61
		C65.354,18.023,66.043,18.729,66.231,18.768z"/>
	<path fill="#4C90CD" d="M32.131,26.135c-0.195-0.063-0.593,0.143-0.61,0.146l-0.495-0.029l-0.32,0.146
		c-0.183,0.654-0.172,0.396-0.029,1.076l0.263,0.146l0.292-0.146c0.047-0.051-0.015-0.22,0.438-0.408l0.553-0.146
		c0.207-0.413,0.184-0.269,0.146-0.61L32.131,26.135z"/>
	<path fill="#4C90CD" d="M66.494,21.301h-0.351c-0.24,0.276-0.748,0.736-0.61,0.903l0.495,0.437l0.555,0.203l0.408-0.117
		l0.087-0.174l-0.205-0.729L66.494,21.301z"/>
	<path fill="#4C90CD" d="M77.558,22.379l0.061-0.232l-0.117-0.438l-0.263-0.233l-0.292,0.06l-0.379,0.38
		c0.168,0.333,0.109,0.227,0.555,0.552L77.558,22.379z"/>
	<path fill="#4C90CD" d="M76.946,26.28l0.524,0.087c0.389,0.005,0.529-0.148,0.583-0.174c0.237-0.11,0.501-0.065,0.699-0.264
		c-0.096-0.203-0.165-0.479-0.351-0.609c-0.401-0.305-0.042-0.133-0.756-0.176c-0.232-0.016-0.503-0.125-0.7,0.06
		c-0.211,0.258-0.174,0.372-0.174,0.642L76.946,26.28z"/>
	<path fill="#4C90CD" d="M99.108,60.469l-0.059-0.177l-0.145-0.06c-0.42,0.315-0.309,0.173-0.495,0.584l0.174,0.232l0.177-0.059
		L99.108,60.469z"/>
	<path fill="#4C90CD" d="M109.243,78.609l-0.117-0.176l-0.465-0.027c-0.062,0.242-0.018,0.435,0.115,0.611
		C109.138,78.838,109.024,78.936,109.243,78.609z"/>
	<path fill="#4C90CD" d="M109.329,79.745c0.335-0.11,0.221-0.013,0.467-0.437c-0.074-0.152-0.016-0.102-0.291-0.205
		c-0.214,0.142-0.189,0.092-0.262,0.524L109.329,79.745z"/>
	<path fill="#4C90CD" d="M110.087,80.678l0.35-0.117c0.17-0.541,0.203-0.438,0-0.641l-0.524,0.146h0.028l-0.058,0.088
		C109.97,80.504,109.944,80.583,110.087,80.678z"/>
	<path fill="#4C90CD" d="M110.495,81.492l0.291-0.087c0.105-0.318,0.135-0.304-0.059-0.496l-0.322,0.028
		C110.317,81.182,110.263,81.26,110.495,81.492z"/>
	<polygon fill="#4C90CD" points="112.533,81.986 112.795,81.93 112.911,81.52 112.679,81.23 112.241,81.26 112.155,81.668 
		112.272,81.842 	"/>
	<path fill="#4C90CD" d="M92.294,78.932c0.374-0.219,0.585-0.043,0.699-0.611l-0.116-0.117l-1.34-0.262l-0.407,0.029
		c-0.302-0.033-0.961-0.379-0.961-0.38l-1.281,0.029c-0.349-0.063-1.055-0.538-1.223-0.61c-0.391-0.173-1.238-0.275-1.281-0.293
		c-0.801-0.335-0.224-0.289-1.312-0.175c-0.896,0.083-1.201,0.019-2.211,0.321c-0.303,0.18-1.211,0.724-1.43,0.902
		c-0.136,0.11-0.58,0.615-0.64,0.756l-0.087,0.468l0.087,0.233l0.146,0.058c0.223,0,0.285-0.425,0.407-0.554l0.437-0.263
		c0.633-0.377,0.277-0.138,0.729-0.554c0.515-0.473,0.44-0.309,0.99-0.582l0.177,0.089c-0.136,0.242-0.092,0.207-0.263,0.377
		c0.038,0.078,0.161,0.263,0.233,0.293h0.437l0.349-0.263c0.315-0.141,0.473,0.056,0.67,0.115c0.446,0.143,0.56-0.068,0.815-0.086
		c0.281-0.021,0.741,0.229,0.759,0.232c0.246,0.062,0.932-0.029,0.932-0.029l0.437,0.293l0.204,0.203l0.466,0.176l0.495-0.059
		l0.176,0.145L89.24,79.37l-0.089,0.174c-0.012,0.12,0.219,0.322,0.379,0.321l1.137-0.262l0.525-0.205l0.785-0.205L92.294,78.932z"
		/>
	<path fill="#4C90CD" d="M82.888,78.932c0.258,0.129,0.252,0.121,0.409-0.117l-0.088-0.32l-0.263,0.059
		C82.838,78.77,82.853,78.678,82.888,78.932z"/>
	<path fill="#4C90CD" d="M90.577,81.289l-0.874,0.175c-0.288,0.07-0.306,0.146-0.611,0.407c0.12,0.122,0.371,0.168,0.582,0.232
		l0.903,0.263c0.477-0.318,0.39-0.22,0.669-0.698l-0.233-0.292L90.577,81.289z"/>
	<path fill="#4C90CD" d="M36.965,23.95l-0.378-0.263l-0.233-0.231l-0.292,0.028l-0.437,0.175c-0.158,0.075-0.818,0.478-0.902,0.61
		c-0.104,0.244-0.023,0.305,0.087,0.525h0.292l0.553-0.204c0,0,0.673,0.285,0.786,0.291l0.467-0.087l0.263-0.204L37.14,24.3
		L36.965,23.95z"/>
	<path fill="#4C90CD" d="M63.728,20.368c-0.254-0.962-0.092-0.455-0.059-1.019l-0.029-0.845l0.088-0.466l-0.263-0.991l-0.088-0.058
		c-0.137,0.046-0.329,0.081-0.377,0.262c-0.034,0.303,0.062,0.697,0.146,0.99l-0.088,0.146l-0.145,0.027
		c-0.128-0.514,0.087-0.699-0.264-1.223l-0.32-0.029c-0.321,0.322-0.298,0.387-0.553,0.875l-0.232,0.059l-0.146-0.088
		c0.144-0.607,0.163-0.396-0.059-0.873l-0.436-0.09c-0.194-0.074-0.099-0.548-0.786-0.291c-0.103,0.055-0.81,0.842-1.165,0.934
		c-0.164,0.041-0.164,0.062-0.35,0.175c0.392,0.392,0.461,0.388,0.934,0.581c0.011,0.062,0.055,0.177-0.029,0.234
		c-0.376,0.166-0.729-0.005-0.844,0l-0.233,0.059l0.06,0.203l0.67,0.408c0.151,0.068,0.691,0.166,1.105,0.437
		c0.059,0.049,0.258,0.358,0.262,0.438l-0.086,0.262c-0.354,0.177-0.415,0.168-0.816,0.088c-0.561-0.317-0.576-0.376-1.194-0.524
		l-0.144-0.028l-0.321,0.176l-0.087,0.145c0.337,0.549,0.33,0.473,1.019,0.875c0,0.629-0.058,0.488,0.146,0.815
		c0.657,0.082,0.485,0.057,1.252-0.089l1.311-0.232c0.571-0.025,0.035,0.107,1.107-0.087c0.428,0.515,0.628,0.64,1.456,0.758
		l0.174-0.146v-0.262c-0.138-0.129-0.288-0.32-0.466-0.381v-0.086l0.321-0.145l0.378,0.115l0.437-0.115l0.06-0.117l-0.146-0.321
		l-0.466-0.35C64.362,20.532,64.2,20.579,63.728,20.368z"/>
	<path fill="#4C90CD" d="M61.483,14.02l0.263,0.205c0.835-0.238,0.708-0.102,0.845,0.785c0.218,0.108,0.126,0.088,0.378,0.088
		l0.553-0.35h0.291c0.074,0.027,0.287,0.324,0.438,0.35c0.475,0.077,0.486-0.178,0.581-0.438l-0.872-1.135l0.261-0.61l-0.174-0.263
		l-0.438-0.088c-0.261,0.521-0.149,0.283-0.146,0.466l-0.028,0.146l0.087,0.612l-0.087,0.175c-0.585-0.214-0.254-0.13-0.609-0.466
		c-0.132-0.097-0.831-0.297-1.02-0.351C61.526,13.667,61.597,13.462,61.483,14.02z"/>
	<path fill="#4C90CD" d="M69.348,17.107c0.134-0.092,0.369-0.215,0.378-0.409c0.028-0.527-0.574-0.312-0.843-0.581
		c-0.535,0.178-0.375,0.062-0.669,0.466v-0.028c-0.176,0.504-0.346,0.729-0.088,0.989C69.166,17.336,68.786,17.491,69.348,17.107z"
		/>
	<path fill="#4C90CD" d="M70.745,7.701c0.405-0.055,0.416-0.04,0.813-0.176c0.226-0.074,0.646-0.326,0.874-0.176
		c0.158,0.104-0.186,0.064,0.554,0.205c0.305-0.361,0.317-0.473,0.642-0.408c0.141,0.211,0.271,0.377,0.059,0.728
		c-0.311,0.438-0.368,0.409-0.99,0.409l-0.32,0.378l0.232,0.815l-0.204,0.059l-0.35-0.204L71.88,8.952l-0.291-0.291l-0.146,0.028
		L71.298,8.98l0.145,0.933l0.378,0.351l0.176,0.377l-0.263,0.059l-0.466,0.029l-0.291,0.203l-0.089,0.319l0.06,0.379
		c0.381,0.254,0.36,0.341,0.934,0.087c0,0.635-0.065,0.444,0.231,0.816l0.408,0.027c0.372,0.078,0.297,0.205,0.846,0.205
		c0.186-0.264,0.145-0.134,0.145-0.555c-0.178-0.061-0.369-0.234-0.523-0.35l0.089-0.174l0.697-0.264
		c0.159-0.123,0.444-0.904,0.378-1.165l-0.232-0.437l-0.35-0.146l0.146-0.291c0.098-0.102,0.708-0.303,0.785-0.496l0.028-0.23
		c0.631-0.42,0.283-0.432,0.292-0.844l0.089-0.381l0.437-0.552c0.042-0.112,0.069-0.407,0.028-0.526
		c-0.161-0.08-0.313,0.053-0.554-0.026c-0.031-0.165-0.037-0.117,0-0.233c0.826-0.31,0.654-0.158,0.846-0.582l-0.351-0.263
		l-0.523-0.058L73.658,5.57l-0.233-0.377l-0.263,0.289c-0.444,0.559-0.412,0.36-0.61,0.555L72.23,6.475l-0.291,0.203L71.59,6.65
		l-0.261-0.205l-0.438-0.059l-0.407,0.146l-0.176,0.351l0.061,0.407L70.745,7.701z"/>
	<path fill="#4C90CD" d="M86.704,15.825c-0.287,0.478-0.223,0.345-0.32,0.933l0.116,0.117l0.408-0.117l0.261,0.117l0.089,0.203
		l0.146,0.029l0.177-0.232l0.058-0.467l-0.115-0.407C87.045,15.781,87.239,15.825,86.704,15.825z"/>
	<path fill="#4C90CD" d="M84.84,22.495l0.028-0.088l-0.291-0.494c0.38-0.508,0.343-0.296,0.087-0.991l-0.377-0.115l-0.845,0.088
		l-0.029-0.146l-0.555-0.204l-1.428,0.263c-0.647-0.478-0.295-0.211-0.785-0.699l-0.729-0.67l0.117-0.467
		c-0.302-0.399-0.184-0.318-0.495-0.438l-0.379,0.205c-0.839-0.314-0.573-0.664-1.077-0.844c-0.362-0.131-0.755,0.055-1.106,0.146
		l-0.379-0.321l-0.233-0.349l-0.318-0.116l-0.495,0.204l-0.466,0.349c-1.022-0.17-0.828-0.013-1.254-0.437v-0.438l-0.291-0.787
		l-0.087-0.058l-0.934,0.438c-0.062,0.057-0.256,0.582-0.262,0.641l0.145,0.961l0.117,0.467l-0.089,0.609l-0.203,0.35l-0.408-0.408
		l-0.087-0.902v-0.438c-0.021-0.074-0.201-0.244-0.263-0.494c0.607-0.719,0.675-0.824,0.409-1.252l-0.409,0.028l-0.523,0.642
		l-0.292,0.728l-0.465,0.642l0.059,0.437c0.147,0.317,1.912,1.458,1.979,1.485c0.589,0.18,0.795-0.02,1.048,0l0.468,0.146
		c0.431,0.079,0.859-0.039,1.28-0.116c0.229-0.422,0.108-0.273,0.582-0.611l0.291,0.117c0.182,0.506,0.062,0.344,0.496,0.67
		l0.581-0.233l0.321,0.349l-0.06,0.409l0.262,0.175l0.467-0.145l0.523,0.058l0.467,0.233l0.407,0.697l0.35,1.166L79.45,23.37
		L79.1,23.777l-0.232,0.467l0.116,0.438l-0.028,0.116l0.146,0.495c0.914,0.414,0.758,0.292,1.718,0.555
		c0.062,0.162,0.313,0.803,0.438,0.902c0.069,0.057,0.837,0.059,1.02,0.059c0.125,0.17,0.537,0.489,0.554,0.494
		c0.235,0.028,0.081-0.104,0.787,0.061c0.72-0.061,0.448,0.092,0.872-0.029l0.089-0.176l-0.233-0.291l-2.01-1.02l0.059-0.059
		l0.758-0.088c0.197,0.025,1.209,0.546,1.428,0.438l0.088-0.438l-0.32-0.35c0.014-0.18,0.049-0.576-0.059-0.758l-0.409-0.379
		l-0.581-0.291c-0.584-0.293-0.438-0.218-0.873-0.611c-0.555-0.496-0.456-0.285-0.496-0.728c0.094-0.095,0.319-0.146,0.319-0.146
		l0.933,0.318c0.521,0.219,0.529,0.682,1.223,0.526c0.051-0.146-0.014-0.239-0.086-0.496C84.472,22.555,84.362,22.631,84.84,22.495z
		"/>
	<path fill="#4C90CD" d="M72.639,28.609c0.406,0,0.479-0.072,0.729-0.293c0-0.194,0-0.492,0.059-0.67l0.408-0.116l0.465,0.088
		l0.437-0.204l0.088-0.145l-0.146-0.524l-0.467-0.408c-0.23-0.153-0.517-0.085-0.582-0.116l-0.262-0.291
		c-0.451,0.037-0.258,0.098-0.816-0.32l-0.262,0.086l-0.087,0.263l-0.118,1.136c0.004,0.579,0.173,0.133-0.086,0.961
		C72.381,28.133,72.225,28.023,72.639,28.609z"/>
	<path fill="#4C90CD" d="M98.497,37.783c-0.143-0.393-0.133-0.245-0.059-0.612l-0.176-0.116l-0.406,0.146l-0.233,0.641l-0.146,0.028
		c-0.152-0.269-0.134-0.249-0.177-0.67c-0.065-0.679-0.014-0.72-0.146-1.515c-0.201-0.041-0.117-0.041-0.438,0.088l-0.175,0.555
		v0.669l0.319,0.642l-0.115,0.553l0.115,0.32c0.168,0.829,0.035,0.465,0.06,1.02c0.047,0.341,0.167-0.053-0.028,0.729
		c0.17,0.256,0.121,0.193,0.203,0.584h0.321l0.522-0.611l0.381-0.176l0.349,0.028c0.493-0.458,0.28-0.34,0.875-0.524
		c0.239,0.16,0.155,0.084,0.349,0.438c-0.074,0.111-0.063,0.053-0.029,0.262c0.291-0.115,0.217-0.199,0.294-0.582l0.114-0.466
		l0.205-0.116c0.457,0.267,0.41,0.217,0.641,0.815l0.32-0.146l0.465,0.379l0.177-0.351l-0.088-0.554l-0.261-0.436
		c-0.232-0.217-0.483,0.111-0.815,0.027l-0.088-0.232c0.127-0.213,0.116-0.188,0-0.465l-0.349-0.029
		c-0.188-0.06-0.496-0.317-0.584-0.496c-0.129-0.353,0.004-0.346-0.231-0.582c-0.472,0.158-0.294,0.338-0.468,0.642l-0.202,0.233
		L98.497,37.783z"/>
	<path fill="#4C90CD" d="M93.867,40.316l-0.408-0.407l-0.61-0.175c-0.147-0.012-1.111,0.222-1.281,0.261l-0.088,0.204l0.233,0.292
		c0.063,0.046,1.038,0.092,1.164,0.087c0.132-0.004,0.845-0.112,0.933-0.176L93.867,40.316z"/>
	<polygon fill="#4C90CD" points="93.548,43.258 93.563,43.264 93.577,43.258 	"/>
	<path fill="#4C90CD" d="M93.867,43.898l0.438,0.029l0.639-0.264c0.179-0.126,0.322-0.458,0.322-0.669l-0.322-0.029
		c-0.393,0.025-0.395,0.273-0.582,0.378l-0.348,0.088l-0.449-0.168c-0.006,0.002-0.01,0.004-0.015,0.008
		c-0.053,0.026-0.106,0.054-0.161,0.082c-0.004,0.002-0.009,0.006-0.013,0.008c-0.024,0.015-0.048,0.027-0.069,0.044
		c-0.01,0.006-0.018,0.01-0.024,0.016c-0.03,0.021-0.058,0.044-0.084,0.069l0.146,0.203L93.867,43.898z"/>
	<path fill="#4C90CD" d="M95.964,43.723l0.176,0.118c0.051-0.208,0.051-0.295,0.146-0.438c0.353,0.304,0.319,0.275,0.64,0.205
		l0.088-0.67c-0.234-0.02-0.308-0.049-0.494,0l-0.088-0.06l-0.146-0.522l-0.319-0.06c-0.07,0.207-0.004,0.417-0.029,0.612
		l-0.117,0.438L95.964,43.723z"/>
	<path fill="#4C90CD" d="M88.423,52.432c-0.458,0.123-0.23,0.028-0.554,0.291c-0.164,0.133-0.438,0.252-0.438,0.494l0.116,0.029
		c0.3-0.193,0.761-0.455,0.961-0.758L88.423,52.432z"/>
	<path fill="#4C90CD" d="M41.361,43.141c0.719,0.778,1.324,2.371,1.544,2.649l0.524,0.409l0.35-0.09l0.089-0.231l-0.352-0.438
		l-0.232-0.144l-0.291-0.554l-0.32-1.049l-0.204-0.438c-0.273-0.429-0.118-0.256-0.495-0.494c-0.31-0.195-0.237-0.146-0.437-0.408
		l-0.495-0.642l-0.204-0.028c-0.15,0.188-0.122,0.08-0.087,0.465l0.231,0.029l0.118,0.204l-0.175,0.175
		C40.979,42.939,40.969,42.715,41.361,43.141z"/>
	<path fill="#4C90CD" d="M39.644,38.016c0.129-0.686,0.12-0.703-0.204-1.311l-0.437,0.059l-0.06,0.233l0.029,0.642l0.175,0.319
		C39.312,38.178,39.487,38.068,39.644,38.016z"/>
	<path fill="#4C90CD" d="M39.586,40.316c0.089-0.059,0.23-0.135,0.262-0.291c0.035-0.18-0.134-0.861-0.204-1.02l-0.378-0.611
		l-0.612-0.176c0.228,0.508,0.088,0.317,0.176,0.67c0.058,0.23,0.476,1.198,0.61,1.34L39.586,40.316z"/>
	<path fill="#4C90CD" d="M40.313,35.891l0.321-0.438l0.087-0.494l-0.058-0.378l0.087-0.467l-0.087-0.845l-0.146-0.438h-0.35
		l-0.146,0.264l-0.115,0.553l0.115,0.379c0,0-0.125,0.662-0.115,0.902C39.923,35.379,40.062,35.493,40.313,35.891z"/>
	<path fill="#4C90CD" d="M87.461,71.389l0.438,0.26l0.144-0.027c0.104-0.174,0.079-0.104,0.117-0.292l-0.32-0.351
		c-0.347,0.09,0.142,0.043-0.582,0.146L87.461,71.389z"/>
	<path fill="#4C90CD" d="M89.411,72.814c-0.1-0.449-0.116-0.451-0.786-0.351C89.21,72.883,89.022,72.912,89.411,72.814z"/>
	<path fill="#4C90CD" d="M88.103,75.027c0.155,0.039,0.098,0.033,0.291,0c0.067-0.202-0.103-0.545-0.262-0.582h-0.115v-0.029
		C87.949,74.743,87.978,74.751,88.103,75.027z"/>
	<path fill="#4C90CD" d="M87.373,74.504c0.429-0.105,0.194-0.195,0.262-0.406l0.146-0.205c-0.264-0.422-0.147-0.184-0.407-0.379
		c-0.11-0.082-0.033-0.089-0.204-0.146C87.035,73.873,86.942,73.966,87.373,74.504z"/>
	<path fill="#4C90CD" d="M94.392,76.893l-0.088-0.027c-0.4,0.266-0.209-0.09-0.582,0.348l-0.117,0.116l0.06,0.233
		c0.228,0,0.354-0.035,0.61-0.176C94.403,77.3,94.373,77.158,94.392,76.893z"/>
	<path fill="#4C90CD" d="M101.612,77.939l-0.028,0.379l0.233,0.378l0.088,0.028l1.484-0.467c0.09-0.052,0.428-0.369,0.438-0.492
		c-0.057-0.447-0.34-0.313-0.699-0.233c-0.586,0.13-0.598,0.214-1.339,0.319L101.612,77.939z"/>
	<path fill="#4C90CD" d="M88.714,95.121c0.505,0.475,0.299,0.354,0.872,0.583l0.38-0.233l0.086-0.291l-0.145-0.351l-0.467-0.32
		l0.028-0.233l0.408-0.262c0.033-0.566-0.065-0.589,0.466-0.609c0.559-0.024,0.428,0.015,0.727,0.058
		c0.523,0.075,0.398-0.091,1.05,0.146l0.028,0.088c-0.342,0.431-0.303,0.639-0.059,1.078c0.83-0.236,0.275-0.002,1.048-0.088
		c0.156-0.697-0.182-0.399-0.349-0.901c0.343-0.156,0.295-0.099,0.378-0.263l-1.106-0.555l-1.078-0.32l-0.582,0.177l-0.407-0.029
		c-0.267,0.05-0.681,0.437-0.728,0.466l-0.379,0.176l-0.35,0.379l-0.727,0.291l-0.468-0.088l-0.407,0.059
		c-0.426-0.542-0.233-0.358-0.933-0.758l-0.292,0.67c0.104-0.275,0.145-0.473,0.292-0.67c-0.772-0.517-0.914-0.688-1.631-1.312
		c0-1.014-0.005-0.473-0.233-0.989c-0.123-0.285,0.211-0.705,0.352-1.019c-0.139-0.322-0.282-0.699-0.321-1.049
		c-0.054-0.966,0.129-1.017,0.146-1.224l-0.059-0.496c-0.033-0.561,0.112-0.276-0.204-0.727c-0.098,0.115-0.174,0.225-0.245,0.331
		c0.035-0.062,0.098-0.155,0.245-0.331l-0.204-0.146c-0.154-0.058-0.512,0.021-0.813-0.028l-0.118-0.175l0.177-0.088l-0.028-0.146
		L82.8,85.834l-2.737,0.669l-0.292,0.204c-0.549,0.355-0.682,0.331-1.369,0.523h-0.379l-0.291-0.174
		c0.075-0.34,0.015-0.214,0.291-0.524c-0.058-0.87-0.188-0.909-0.349-1.69l-0.088-0.553l0.088-0.32l0.349,0.408
		c0.255-0.072,0.179-0.011,0.321-0.262c-0.379-0.985-0.094-0.842-0.088-1.165c0.004-0.229-0.204-0.368-0.233-0.407l-0.319-0.582
		l0.087-0.32l0.409-0.494l0.202-0.524l-0.058-0.556l-0.175-0.203l-1.077,0.06l-1.428,0.349c-0.142,0.049-1.176,0.506-1.28,0.611
		c-0.099,0.1-0.208,0.52-0.205,0.643l0.117,0.437l0.292,0.233l0.058,0.291l-0.146,0.35l-0.466,0.146l-0.319,0.609l0.174,0.35
		c-0.292,0.33-0.146,0.244-0.612,0.352l-0.262-0.232l-0.843,0.115l-0.352,0.262l-0.437,0.117l-0.874,0.319
		c-0.188,0.033-0.497,0-0.641-0.146l-0.204-0.377c-1.488,0.098-0.972,0.395-1.921-0.873c-0.021-0.062-0.078-0.141-0.152-0.22
		c-0.09-0.12-0.134-0.146-0.29-0.276c-0.07-0.06-0.132-0.111-0.17-0.146c-0.388-0.346-0.212-0.271-0.611-0.351
		c-0.135-0.639-0.147-0.649-0.35-1.279l-0.233-0.059l-0.35-0.291l-0.06-0.379l0.089-0.438l-0.292-1.02l-0.204-1.078l0.029-0.902
		c0.04-0.145,0.312-0.406,0.438-0.902c0.167-1.082-0.365-0.73-0.379-1.775c-0.007-0.539,1.182-1.914,1.775-2.184l0.758-0.293
		l0.232-0.205c-0.045-0.178-0.22-0.76-0.175-0.93l0.118-0.205l0.292-0.027l0.261,0.494l0.496-0.117l0.467-0.291l0.524-0.088
		l0.61,0.06l0.67-0.291l0.438,0.231l0.261,0.379l0.438,0.115l0.408-0.115l0.758-0.642l0.378-0.116
		c0.025-0.104,0.022-0.234-0.059-0.32l-0.232-0.116l-0.902,0.116c0.052-0.178,0.024-0.224,0.292-0.351l1.952-0.669
		c0.15,0.096,0.263,0.188,0.494,0.174l1.632-0.377l0.523,0.262l0.378,0.496l0.351,0.058l0.494-0.146l0.233-0.408l0.202-0.232
		c0.604,0.165,1.47,0.667,1.777,1.252l0.378,1.078l0.089,0.058l0.232-0.116l0.232,0.116l0.03,0.205
		c-0.036,0.142-0.286,0.216-0.176,0.495l0.262,0.378c0.282,0.04,0.444,0.019,0.643,0.263l0.291,0.523l0.67,0.582l0.262,0.438
		l0.555,0.203l0.203-0.058c0.258-0.628,0.192-0.341,0.203-0.901c0.008-0.382,0.064-0.885-0.058-1.281l-0.495-1.078
		c-0.366-0.635-0.341-0.258-0.757-1.34c-0.206-0.533-0.251-0.771-0.554-1.311c-0.275-0.492-0.91-1.148-0.932-1.225l0.086-0.961
		l0.438-0.932l0.642-0.262c0.226-0.156,0.396-0.576,0.496-0.758l0.581-0.959c0.02-0.062-0.05,0.004,0.088-0.409h0.379l0.379-0.378
		l0.231-0.641l0.319-0.379l0.408-0.117l0.088-0.377l-0.322-0.205c0.147-0.328,0.052-0.229,0.41-0.407v-0.291l-0.176-0.233
		l-0.205-0.059l0.118-0.348l-0.351-0.611l-0.291-0.352l-0.32-0.785l-0.292-0.319l-0.146-0.468l0.232-0.293l0.35,0.146
		c0.078,0.072,0.291,0.653,0.32,0.786l0.088,0.642l0.116,0.115h0.232c0.216-0.535,0.065-0.258,0.058-0.785
		c0.008-0.074,0.217-0.539,0.117-0.813l-0.264-0.38c-0.17-0.158-0.084,0.141-0.262-0.523l0.262-0.117
		c0.281,0.375,0.199,0.336,0.408,0.379c0.117-0.088,0.373-0.289,0.407-0.438l-0.058-0.494l0.291-0.466l0.088-0.438l-0.204-0.23
		v-0.438l0.291-0.496c0.278-0.343,0.694-0.47,0.729-0.494l0.349-0.407l0.788-0.292l0.349-0.291l0.06-0.292l-0.116-0.291L89.063,50.6
		l0.06-0.494l-0.204-0.582l0.087-0.555l0.32-0.582l0.407-0.32l0.321-0.379l1.224-0.757c0.311-0.145,0.291-0.021,0.291-0.467
		c-0.024-0.009-0.055-0.021-0.084-0.032l0.347-0.521c0.315-0.412,0.325-0.181,0.554-0.291c0.376-0.257,0.459-0.611,0.932-0.611
		l0.059,0.32l0.538-0.216c0.053-0.006,0.108-0.002,0.188,0.011l0.025,0.18l-0.055,0.072c-0.049,0.036-0.114,0.075-0.188,0.112
		c-0.123,0.058-0.299,0.139-0.473,0.225c-0.236,0.107-0.462,0.216-0.562,0.312l-0.262,0.408L92.53,46.9l0.203,0.465l0.319,0.203
		l0.407-0.059c0.033-0.008,0.062-0.02,0.091-0.033c0.002,0,0.002-0.002,0.003-0.002c0.211-0.104,0.295-0.359,0.332-0.568
		c0.037-0.15,0.064-0.311,0.098-0.459l0.147-0.422l0.587-0.666c0.049-0.041,0.096-0.082,0.143-0.119l0.476-0.311
		c0.233-0.128,0.444-0.22,0.618-0.314l0.1-0.045l0.069-0.062c0.056-0.039,0.104-0.081,0.144-0.13l0.078-0.071l0.029-0.115
		c-0.574,0-0.594-0.135-0.758-0.146l-0.67,0.117l-0.524,0.202l-1.106,0.263l-0.379-0.321l-0.379-0.174l-0.203-0.467
		c-0.031-0.04-0.139-0.096-0.242-0.145l-0.194-0.117l-0.029-0.146l0.233-0.292l-0.087-0.145c-0.103,0-0.177,0.004-0.237,0.014
		c-0.023,0.003-0.049,0.008-0.072,0.016c-0.123,0.031-0.229,0.094-0.505,0.204c-0.059-0.038-0.106-0.069-0.146-0.099
		c-0.051-0.049-0.079-0.09-0.094-0.128c0-0.001-0.002-0.002-0.002-0.002c-0.002-0.013-0.004-0.023-0.006-0.035
		c-0.002-0.015-0.002-0.026,0-0.042c0-0.01,0-0.021,0.002-0.03c0-0.002,0-0.004,0-0.006c0.008-0.041,0.021-0.091,0.039-0.153
		c0.256-0.096,0.449-0.162,0.598-0.229l0.103-0.033c0.021-0.014,0.046-0.033,0.069-0.057c0.111-0.07,0.177-0.154,0.205-0.276
		c0.023-0.049,0.041-0.095,0.047-0.135l-0.061-0.407l-0.261-0.204l-0.021,0.005l-0.008-0.005l-0.932,0.177
		c-0.048,0.016-0.093,0.032-0.137,0.055c-0.021,0.01-0.045,0.021-0.065,0.031c-0.021,0.013-0.043,0.021-0.063,0.032
		c-0.021,0.015-0.045,0.027-0.067,0.041c-0.017,0.013-0.035,0.021-0.052,0.032c-0.024,0.016-0.049,0.032-0.071,0.049
		c-0.015,0.01-0.026,0.02-0.042,0.028c-0.021,0.015-0.041,0.028-0.059,0.045c-0.117,0.086-0.221,0.174-0.316,0.237
		c-0.324,0.214-0.283,0.086-0.402,0.271l-0.156,0.223l-0.838,1.168c-0.109,0.217-0.291,0.961-0.377,1.369
		c-0.01,0.041-0.021,0.08-0.03,0.114l0.006,0.001c-0.002,0.01-0.004,0.02-0.006,0.027c-0.204,0.203-0.128,0.165-0.32,0.203
		l-0.175-0.146c0.161-0.974,0.646-1.678,0.729-1.922c0.123-0.373,0.058-0.974,0.291-1.312l0.642-0.698v-0.494l0.348-0.582
		l2.651-0.901l1.484-0.468l0.989-0.466l0.379-0.438l0.321-0.961l0.115-0.554l0.351-0.146l0.349-0.379l0.116-0.349
		c0.063-0.313-0.012-0.651-0.059-0.961c-0.367-0.146-0.252-0.021-0.525-0.61c-0.071-0.152-0.122-0.379-0.319-0.408
		c-0.197-0.028-0.305,0.19-0.408,0.32l-0.176-0.029c-0.09-0.137-0.072-0.164-0.115-0.379l-0.146-0.086
		c-0.455,0.273-0.263,0.16-0.668,0.728l-0.699,0.874l-0.203-0.029l-0.117-0.291l0.146-0.466l0.377-0.466l0.351-0.233l0.146-0.495
		l-0.058-0.175l-0.233-0.086l-0.262,0.175l-0.641-0.029l-0.555,0.32l-0.293-0.088l-0.726-0.523l-0.729-0.116l-0.232-1.078
		l-0.67-0.494l-0.407-0.815l-0.991-0.494l-0.814-0.67l-0.438-0.205c-0.419-0.25,0-0.123-0.786-0.437l-0.028,0.351l-0.233,0.466
		l-0.058,0.493l0.349,0.146l0.263,0.521l-0.146,0.644l-0.465,0.466l-0.494,0.146l-0.408-0.028l-0.555-0.379
		c-0.521,0.139-0.366,0.15-0.67,0c0-0.96,0.104-0.709-0.553-1.602c0.172-0.41,0.219-0.379-0.088-0.787
		c-0.379,0.113-0.636,0.225-1.049,0.177c-0.879-0.103-1.044-0.674-1.224-0.813l-0.786-0.379l-0.379,0.057l-0.728,0.466l-0.757-0.203
		c-0.365-0.083-0.295-0.069-0.583,0.06l-0.028,0.553l0.29,0.582l0.205,0.932c0.109,0.318,0.372,0.439,0.466,0.582l0.319,0.786
		c-0.225,0.448-0.064,0.302-0.698,0.582c-0.184,0.515-0.152,0.306-0.116,0.874l0.612,0.379c0.322,0.248,0.774,0.775,0.96,1.136
		l0.291,0.786l-0.058,1.02l-0.468,0.844l-0.555,0.438l-0.174,0.32l0.145,0.554l0.99,1.311l0.146,0.555v0.902l-0.292,0.406
		l-0.438,0.146l-0.177-0.438l-0.29,0.467l-0.438,0.086l-0.553-0.785l-0.467-0.35l-0.522-1.195l-0.177-0.61l-0.318-0.378
		l-0.029-0.407l0.263-0.409l-0.089-0.261c-0.717-0.288-0.28-0.138-0.843-0.146l-0.873-0.088l-0.525-0.146l-0.989,0.059l-0.873-0.059
		c-0.283-0.537-0.198-0.52-0.642-0.786c-0.465-0.251-0.705-0.187-0.845-0.231c0,0-0.817-0.469-1.049-0.467
		c-0.223,0.002-0.579,0.361-0.611,0.379l-0.319,0.088l-0.263-0.204c-0.037-0.056-0.378-1.614-0.494-1.806l-0.117-0.117h-0.115
		c-0.864,0.033-0.663,0.103-1.02-0.176c0-0.615-0.029-0.438,0.087-1.019L66.553,32.4c0.561-0.604,0.341-0.424,0.7-0.873l0.318-0.351
		c0.245-0.347,0.346-0.866,0.35-0.874l1.194-1.164l0.089-0.262l-0.438-0.32l0.233-0.408H69.9l1.106-0.813l0.231-0.554
		c-0.375-0.563-0.122-0.266-0.641-0.438l-0.642-0.292l0.263-0.641l0.379,0.088l0.495,0.232l0.523-0.06l0.523-0.319l-0.174-0.729
		l0.785,0.146c0.381-0.305,0.352-0.236,0.611-0.584c0.312,0.278,0.192,0.226,0.494,0.262l0.205-0.174l0.523-0.873l-0.495-0.525
		l-0.291,0.027l-0.176-0.377v-0.61l0.176-0.292l0.291-0.204v-0.204c-0.437-0.109-0.271-0.131-0.669,0.088l-0.233-0.494l-0.466-0.205
		l-0.262,0.028c-0.291,0.632-0.152,0.231,0,1.253c0.052,0.523-0.121,0.416-0.263,0.727l-0.176,0.699l-0.495,0.146
		c-0.18-0.017-0.335-0.351-0.378-0.495l-0.088-0.698l-0.378-0.698l-0.466-0.117l0.378,0.961l-0.204,0.408l-0.319-0.027l-0.262-0.352
		l-0.291-0.961l-0.524-0.464l-0.029-0.262c0.441-0.205,0.323-0.103,0.553-0.409c-0.253-0.398-0.119-0.285-0.553-0.465l-0.117-0.438
		l-0.583-0.873l-0.521,0.146l-0.32,0.377l-0.059,0.467c-0.105,0.289-0.363,0.298-0.38,0.933c0.028,0.328,0.37,0.731,0.555,0.988
		l-0.176,0.611c0.333,0.249,0.341,0.062,0.699,0.35c-0.164,0.709-0.143,0.438-0.699,0.902l-0.582,0.525
		c0.188,0.613,0.242,0.744-0.232,0.902c-0.352-0.851-0.146-0.355-0.146-1.021l-0.058-0.524c-0.459,0-0.243,0.086-0.524,0.204
		l-1.397,0.263l-0.464-0.379c-0.285-0.162-0.577-0.027-0.671-0.059c-0.354-0.198-0.822-0.946-0.845-0.961l-0.292-0.059l-0.96,0.351
		l0.059,0.262l0.611,0.116l-0.845,0.35l-0.115,0.262l0.115,0.961l-0.145-0.028c-0.126-0.078-0.333-0.7-0.378-0.758
		c-0.457-0.447-1.27-0.709-1.894-0.787c-0.649-0.08-0.378,0.106-0.844-0.202l0.232-0.438l-0.116-0.612c0,0-1.123-0.767-1.252-0.933
		c-0.001,0-0.392-0.813-0.555-0.931l-0.35-0.116l-0.815,0.174l0.029-0.668l-0.175-0.293l-0.233-0.088l-0.349,0.524l-0.553-1.224
		l-0.233-0.203l-0.379,0.261c-0.441-0.088-0.455-0.115-0.991,0c-0.582,0.161,0,0.177-1.048,0.177l-0.174-0.525l-0.643-0.115
		c-0.26,0.261-0.181,0.141-0.318,0.525h-0.291c-0.595-0.815-0.366-0.984-0.846-2.012l-0.35-0.99l-0.32-0.35l-0.378-0.088
		l-0.174-0.378c-0.46-0.058-0.397-0.005-0.612-0.175l0.028-0.262c0.24-0.16,0.332-0.178,0.38-0.32
		c-0.215-0.215-0.121-0.168-0.38-0.203c-0.169-1.184-0.044-1.15-0.641-1.398l-0.087-0.583c-0.392-0.194-0.634-0.108-0.99-0.202
		l-1.194-0.467l-0.584,0.029l-1.077,0.349l-0.204-0.028c-0.178-0.356-0.23-0.61-0.669-0.611c-0.13,0.023-0.595,0.379-0.728,0.496
		c0,0.408,0.025,0.74-0.319,1.164c-0.372,0.457-0.188,0.127-0.611,0.785l0.32,0.32l0.086,0.438L40.08,14.02l-0.903,0.408
		c-0.331-0.146-0.229-0.044-0.408-0.438c0.153-0.383,0.065-0.244,0.438-0.584l-0.204-0.377c-0.088-0.103-0.516-0.215-0.642-0.232
		h-0.495c-0.439-0.541-0.265-0.428-0.728-0.582l0.029,0.555c0.002,0.004,0.363,0.701,0.32,0.901l-0.175,0.262h-0.35
		c-0.311-0.372-0.193-0.282-0.555-0.524c-0.009,0.138-0.044,0.646,0,0.759l0.583,0.728c0.327,0.336,0.501,0.368,0.902,0.524
		l0.029,0.262c-0.388,0.173-0.311,0.122-0.815,0.177l-0.059,0.465l-0.32,0.377l-0.583,0.177l-0.61-0.028l-0.292-0.232
		c-0.183-0.105-0.415-0.023-0.611,0l-0.204-0.438c-0.598,0.152-1.657,0.336-2.155,0.698c-0.16,0.157-0.174,0.495-0.144,0.698
		c0.032,0.23,0.25,0.734,0.35,0.961l-0.146,0.262l-0.408,0.029c-0.335-0.405-0.212-0.332-0.523-0.409
		c-0.24,0.323-0.172,0.168-0.204,0.845l-0.292,0.204l0.176,0.175c0.497-0.039,0.409-0.021,0.932,0.028l-0.146,0.321l-0.437,0.115
		c-0.113,0.057-0.559,0.442-0.61,0.555c-0.104,0.33-0.028,0.414,0.059,0.611c-0.516,0.23-0.521,0.168-0.7,0.437l0.204,0.146
		c0.579-0.17,0.393-0.173,0.815-0.059c0.238,0.62,0.108,0.314,0.088,0.582c-0.018,0.22,0.087,0.301,0.202,0.438l0.989,0.028v0.205
		l-0.901,0.319l-0.554,0.088l-0.319,0.378l-0.32,0.581l-0.495,0.35l-1.078,0.176c-0.466-0.017-0.017-0.308-1.515,0.293
		c-0.121-0.162-0.312-0.453-0.554-0.524l-1.077-0.029l-0.408-0.407c-0.375,0.25-0.341,0.195-0.641,0.493
		c0.063,0.146,0.171,0.386,0.32,0.468l0.553,0.115l0.525-0.088c0.528-0.003,0.626,0.328,0.933,0.467
		c0.308,0.139,0.978-0.068,1.311-0.059c0.6,0.017,0.642,0.439,1.165,0.35l1.339-0.465l1.514-0.671l1.281-0.467l0.321-0.378
		l0.145-0.553l0.204-0.232l0.438,0.059l1.484-0.291c0.875-0.236,0.504-0.354,1.078-0.146l0.059,0.409
		c-0.155,0.154-0.107,0.072-0.175,0.408c0.372,0.205,0.377,0.231,0.729,0.494l-0.088,0.523c0.015,0.27,0.302,0.408,0.379,0.554
		c0.064,0.12-0.033,0.448-0.059,0.582l0.35,0.495c0.482,0.785-0.077,0.133,0.67,0.873c0.446,0.473,0.044,0.337,1.135,0.438
		l0.146,0.235l-0.117,0.203l-0.408,0.349l-0.087,0.438l0.262,0.292c0.008,0.005,0.518,0.128,0.612,0.232l0.204,0.465v0.524
		c0.239,0.097,0.357,0.048,0.727,0.029c0.108,0.433,0.021,0.304,0.352,0.524l-0.06,1.076l-0.232,0.291l-0.117,1.223l0.35,0.729
		l-0.145,0.524l0.086,0.292l0.232,0.116l0.01-0.082c-0.006,0.316,0.053,0.401,0.048,0.519c-0.017,0.335-0.291,0.914-0.379,1.165
		c-0.187,0.529-0.146,0.501-0.087,1.02c0.325,0.187,0.364,0.267,0.67,0.554l-0.32,1.077c-0.055,0.297,0,0.559,0,0.582l-0.117,0.582
		l-0.409,0.555l0.06,0.406l1.252,0.961c0.429,0.246,0.421-0.008,0.727,0.582c0.198,0.459,0.063,1.023,0.088,1.106l0.264,0.38
		l0.466,0.932c0.054,0.438,0.111,0.533,0.058,0.961c-0.034,0.267-0.125,0.64-0.262,0.873c-0.303,0.517-0.386,0.406-0.729,0.35
		l-0.231-0.378l0.058-0.351l0.174-0.232l-0.027-0.203l-0.466-0.378c-0.255-0.153-0.37-0.144-0.555-0.117
		c-0.148,0.373-0.128,0.216-0.059,0.554c0.196,0.951,0.084,0.488,0.029,1.078c-0.062,0.648,0.117,0.819-0.351,1.775
		c-0.346,0.708-0.671,0.927-0.757,1.077l-0.205,0.583l0.088,0.494l-0.466,1.106c-0.176,0.312-0.371,0.326-0.35,0.759
		c0.032,0.17,0.162,0.094,0.087,0.465l-0.32,1.164l-0.175,0.963l-0.465,0.492l-0.03,0.293l0.117,0.174l0.292,0.787
		c0.048,0.237,0,1.02,0,1.02c0.01,0.098,0.19,0.633,0.261,0.698l0.408,0.177l0.088,0.262c-0.176,0.262-0.157,0.201-0.525,0.438
		c0.163,0.598,0.108,0.275,0.352,0.697l0.174,0.379l-0.174,0.203l0.086,0.555l0.902,1.805l-0.262,0.321l0.146,0.292l0.669,0.262
		l0.641,0.61l1.02,0.759l0.32,0.553c0.418,0.618,0.168,0.029,0.553,0.99c0.192-0.029,0.313-0.052,0.413-0.064l-0.413,0.064
		l0.378,1.602c0.034,0.098,0.522,1.032,0.583,1.281l0.058,0.758l0.525,0.756l0.727,0.584c0.243,0.164,0.447,0.16,0.584,0.554
		c0.097,0.384,0.058,0.349-0.117,0.61c-0.36-0.016-0.538-0.047-0.873,0c0.101,0.201,0.956,0.701,1.106,0.846l0.495,0.641
		l0.437,0.291c0.269,0.24,0.672,0.861,0.816,1.195c0.065,0.203-0.009,0.703,0.292,1.076c0.004,0.008,1.204,1.041,1.339,1.226
		c0,0,0.532,0.979,0.67,1.104l0.32,0.177l0.35-0.146l0.116-0.32l-0.202-0.438l-0.351-0.349l-0.319-0.409l-0.466,0.028
		c-0.183-0.438-0.18-0.254,0-0.758c-0.226-0.449-0.308-0.373-0.378-0.494c-0.196-0.455-0.323-1.486-0.583-1.834l-0.059,0.203
		l-1.136-2.357c-0.268-0.418-1.142-1.029-1.31-1.225l-0.351-0.553l-0.35-0.902l-0.059-0.758l-0.204-0.671l0.117-0.378l0.32-0.088
		c0.477,0.335,0.784,0.438,1.339,0.699c0.107,0.396,0.124,0.255-0.058,0.582l0.318,0.35l0.116,0.729l0.525,1.224l0.407,0.407
		l0.378,0.523l0.785,0.379l0.204,0.379l-0.059,0.203c0.672,0.615,0.388,0.475,0.729,0.873c0.707,0.748,0.323,0.139,0.96,1.166
		l-0.146,0.291c1.227,0.683,0.608,0.299,1.631,1.428l0.698,0.728c0.325,0.372,0.561,0.744,0.961,1.165l0.496,0.495l0.465,1.164
		l0.409,0.407l0.291,0.555c-0.079,0.236-0.171,0.044-0.582,0.523c0.271,0.895,0.067,0.528,0.699,1.078l0.349,0.319l0.699,0.408
		l0.466,0.146l0.292,0.319l0.611,0.379c0.236,0.083,1.048,0.028,1.048,0.028l0.902,0.379l0.992,0.553l0.233,0.059
		c0.351,0.119,0.879,0.429,1.427,0.465l0.611-0.028l0.756,0.409l0.642,0.029l0.699,0.261l0.553,0.03l1.137-0.146
		c0.352-0.102,0.856-0.48,1.396-0.465l0.321,0.059c0.674,0.098,0.358-0.062,0.873,0.32l1.543,1.136
		c0.317,0.272,0.186,0.294,0.524,0.407c1.02,0.51,0.761,0.414,1.863,0.495l0.901,0.087l1.574,0.32
		c0.406,0.092,0.534,0.215,0.988,0.059c0.079-0.039,0.122-0.178,0.466-0.35l0.233,0.146l0.087,0.351
		c0.011-0.01,0.026-0.021,0.04-0.029c-0.04,0.033-0.063,0.07-0.068,0.115c-0.037,0.414,0.7,0.531,1.194,0.845l0.409,0.321
		c0.581,0.369,0.28-0.035,0.931,0.67c-0.025,0.574-0.067,0.464,0.06,0.932c1.091,0.58,0.534,0.021,1.252,0.262l0.205,0.495
		l0.203-0.146l0.698,0.232l0.496,0.407l0.145,0.409l0.205,0.175c0.378-0.034,0.431-0.03,0.843,0.177
		c0.345-0.23,0.198-0.201,0.38-0.38c0.098-0.096,0.401-0.325,0.553-0.319c0.185,0.006,0.947,0.42,1.137,0.523
		C88.505,95.168,88.468,95.202,88.714,95.121z M65.299,75.784l0.074,0.089c-0.039-0.046-0.068-0.077-0.095-0.1
		C65.286,75.777,65.294,75.78,65.299,75.784z M42.322,32.309c0.049-0.77,0.077-0.107,0-1.078c-0.01-0.123-0.021-0.338-0.052-0.537
		c0.041,0.207,0.073,0.439,0.081,0.537C42.413,31.943,42.354,31.803,42.322,32.309z M77.327,87.258
		c-0.009,0.004-0.024,0.008-0.033,0.012c0.02-0.01,0.036-0.02,0.052-0.033L77.327,87.258z M82.216,92.49
		c0.112-0.08,0.319-0.23,0.52-0.366L82.216,92.49z"/>
	<path fill="#4C90CD" d="M98.294,79.454l0.291-0.204l0.934-0.204l0.642-0.233l0.086-0.174l-0.086-0.32l-0.233-0.176
		c-0.482,0.297-0.294,0.205-0.845,0.377l-0.06-0.231l0.293-0.203l-0.088-0.263c-0.138-0.156-0.973,0.027-1.049,0.029l-0.494-0.06
		c-0.582-0.021-0.806,0.106-1.34,0.293c-1.156,0.419-0.57,0.155-1.398,0.32c-0.457,0.091-0.416,0.13-0.553,0.35
		c0.037,0.147,0.039,0.255,0.176,0.349c0.271,0.187,0.64,0.106,0.758,0.146l0.35,0.233c0.053,0.076,0.059,0.262,0.029,0.35
		c-0.279,0.048-2.005,0.289-2.155,0.408l-0.175,0.176v0.669l0.204,0.06l0.087,0.058l1.631-0.319l0.523-0.058l0.496-0.292
		l0.406-0.116l0.787,0.408v-0.378l-0.059-0.381l0.232-0.348L98.294,79.454z"/>
	<path fill="#4C90CD" d="M75.607,7.964l0.233,0.146c0.171,0.043,0.567-0.112,0.727-0.174l0.178,0.174l0.087,0.32L76.716,8.78
		L76.396,9.1l-0.291-0.027c-0.487,0.404-0.188,0.652-0.816,1.279l0.146,0.263l0.495,0.176h0.583c0.146-0.039,0.19-0.202,0.611-0.263
		l0.088,0.117l-0.029,0.174l-0.611,0.467l-0.087,0.177c0.101,0.199,0.582,0.245,0.729,0.349l0.494,0.524
		c0.562-0.169,0.32-0.159,0.641-0.319l0.961-0.351l1.049-0.522l0.351,0.027l0.727,0.523l0.146,0.06
		c0.75,0.376,0.025,0.196,1.224,0.495l0.262,0.493c0.174,0.032,0.654,0.094,0.785,0.206l0.555,0.727
		c0.15,0.262,0.213,0.651,0.263,0.932l0.261,0.146c0.219-0.109,0.127-0.102,0.321-0.32l0.494-0.494l0.146,0.028l0.467,0.494
		c0.199,0.104,0.729,0.306,0.729,0.582c-0.51,0.283-0.32,0.095-0.845,0.177l-0.437,0.116l-0.029,0.146l0.146,0.176
		c0.33,0.224,0.946-0.131,1.312-0.146l0.438,0.059l0.318,0.234l0.177,0.438c0.079,0.337-0.101,0.218,0.175,0.492l-0.029,0.234
		c-0.348,0.243-0.265,0.137-0.377,0.437l0.146,0.233l0.524,0.35c0.115,0.167,0.074,0.855,0.318,1.164
		c0.16,0.199,0.208,0.15,0.612,0.176c0.099,0.152,0.446,0.681,0.582,0.758l0.582,0.117l0.116-0.029l0.291,0.262l0.379,0.758
		l0.555,0.232l0.436,0.029l0.264,0.204l0.378,0.872c0.522,0.08,0.34,0.064,0.931-0.027c0.064,0.098,0.305,0.471,0.409,0.523
		l0.465,0.088l0.379-0.203l0.321,0.146c0.266,0.197,0.08,0.359,0.697,0.174c0.148-0.508,0.08-0.375,0.32-0.814l0.146-0.027
		l0.903,0.523l1.047,0.438l0.32-0.177l-0.175-0.813l0.028-0.438c-0.021-0.129-0.611-1.319-0.698-1.396l-0.407-0.176l-0.089-0.699
		c-0.083-0.25-0.394-0.399-0.466-0.494l-0.23-0.495l0.058-0.61l-0.175-0.35l-0.408-0.32l-0.059-0.408
		c0.036-0.315,0.381-0.137-0.352-0.99c0.229-0.344,0.188-0.131,0.525-0.291c0.186-0.129,0.082-0.562,0.059-0.729l0.609-0.67v-0.438
		l-0.262-0.494l-0.115-0.467c-0.174-0.379-0.457-0.371-0.524-0.438l-0.203-0.408l-0.379-0.115L95.703,11.7l0.088-0.087
		c0.187,0.058,0.39,0.096,0.553,0.203l0.408-0.116c0.233-0.526,0.11-0.445,0.204-0.759c0.088-0.293,0.354-0.469,0.408-0.58
		c0.107-0.223,0.103-1.199,0.115-1.281c0.215-0.876,0.232-0.24,0.146-1.049c-0.02-0.264,0.043-0.268-0.232-0.611
		c-0.216,0-0.479,0.074-0.67,0.176l-0.408,0.291l-0.233,0.494c-0.115,0.342,0.008,0.34-0.231,0.699h-0.262
		c-0.289-0.467-0.138-0.342-0.611-0.523L94.89,8.031l-0.554-0.059L94.22,7.768l0.146-0.262l0.669-0.115l0.495,0.291h0.494
		l0.408-0.205c0.144-0.103,0.131-0.283,0.06-0.436c-0.222-0.464-0.293-0.322-0.786-0.554l-0.523-0.293
		c-0.192-0.058-0.586-0.005-0.759,0.089c-0.187,0.098-0.555,0.527-0.698,0.697c-0.254-0.147-0.283-0.137-0.466-0.319l-0.378,0.175
		C92.56,6.95,92.46,6.502,92.299,6.311c-0.216-0.25-0.161,0.016-0.319-0.465l0.114-0.145c0.163,0.051,0.406,0.085,0.525,0.203
		c0.126-0.036,0.271-0.059,0.378-0.262c0.197-0.486,0.105-0.563-0.176-0.845l-0.407,0.117c-0.276,0.127-0.14,0.202-0.554,0.261
		l-0.088-0.261c0.459-0.319,0.34-0.169,0.524-0.61c-0.164-0.392-0.083-0.298-0.321-0.496l-0.377,0.117l-0.32,0.35l-0.641,0.115
		L90.55,4.333l0.028-0.146L90.987,4.1l0.115-0.35c-0.449-0.3-0.261-0.212-0.814-0.35l-0.352,0.261l-0.494,0.204l-0.437-0.028
		c0.138-0.685,0.146-0.534,0.146-1.194c-0.871-0.098-0.356-0.07-0.932,0.205c-0.16,0.075-0.203,0.059-0.35-0.029
		c-1.049-0.641-0.146-0.729-1.516-0.729l-0.377-0.555l-0.902-0.291c-0.266,0.266-0.223,0.253-0.438,0.611
		c-0.574-0.91-0.24-0.332-0.496-1.135l-0.203-0.525c-0.696-0.243-0.463-0.237-0.99-0.088l-0.233,0.496l0.175,0.465l0.582,0.582
		l0.205,0.494c-0.238,0.17-0.156,0.146-0.35,0.146c-0.479-0.838-0.279-0.552-1.137-1.281l-0.146,0.116
		c0.201,0.44,0.142,0.295,0.231,0.815l-0.174,0.174L81.87,1.854c-0.217,0.434-0.158,0.358-0.264,0.902l-0.35,0.059L81.11,2.495
		l0.03-0.351l0.378-0.351l0.029-0.437l0.232-0.232l-0.028-0.32l-0.263-0.059l-0.494,0.262l-0.204,0.35l-0.438,0.059l-0.175-0.232
		c-0.198,0.199-0.369,0.176-0.553,0.293l-0.67,0.582l-0.292,1.02l0.088,0.438l-0.06,0.232l0.642,0.291l0.146,0.204l-0.086,0.292
		c-0.463,0.23-0.208,0.223-1.137-0.087l0.146,0.728l-0.174,0.176c-0.625-0.229-0.494-0.248-0.961-0.205
		c-0.07,0.352-0.51,0.942-0.494,1.137l0.115,0.523l-0.058,0.116l-0.176,0.06c-0.002,0-0.527-0.185-0.729-0.09
		c-0.165,0.08-0.412,0.561-0.408,0.76L75.607,7.964z"/>
	<path fill="#4C90CD" d="M163.259,108.139l-0.193-0.809c-0.109-0.223-0.442-0.372-0.696-0.393l-1.925,0.112
		c-0.395,0.028-0.877,0.132-1.256-0.026c-0.446-0.188-2.334-1.892-2.592-2.034c-0.414-0.192-0.66-0.095-1.254,0
		c-0.896,0.139-0.871,0.045-1.589,0.083l-1.282,0.139c-0.472,0.025-1.785-0.012-2.257-0.084l-0.862-0.193l-0.477,0.057l-0.333,0.277
		l-0.419,0.14l-0.391-0.084l-0.14-0.252l0.029-0.417l-0.28-0.333c-0.141-0.093-1.41-0.321-1.589-0.337l-2.116-0.026l-1.089-0.11
		l-0.501,0.084l-0.307,0.278l-0.25,0.502l-0.309,0.084c-0.205-0.165-0.158-0.138-0.332-0.364l0.137-0.361l-0.223-0.333l-0.473-0.111
		l-0.614,0.111l-1.645,0.222c-0.398,0.533-0.288,0.314-0.503,0.921c-0.467,0.179-0.271,0.146-0.834,0.111l-0.168-0.363l0.193-0.669
		c0.131-0.279,0.977-1.365,0.977-1.365l0.168-0.892c0.021-0.32-0.088-0.657-0.168-0.947l-0.641-0.307
		c-0.19-0.668-0.738-1.552-1.145-2.063l-0.279-0.334l-0.389-0.921c-0.219-0.37-0.441-0.457-0.672-0.641
		c-0.387-0.312-0.088-0.207-0.641-0.335v0.027l-0.334-0.277l-0.307-0.084l-0.975-0.78l-2.224-0.14h-0.008h-0.14
		c-0.002,0-0.002,0.002-0.004,0.004l-0.301,0.414l-0.375,0.766h-0.014c0.271-0.594,0.251-0.619,0.538-0.988c0,0,0,0,0.001,0
		c0.02-0.027,0.043-0.058,0.066-0.089c0,0,0.002-0.001,0.002-0.002c0.021-0.022,0.039-0.048,0.059-0.073
		c0.008-0.01,0.016-0.02,0.021-0.027l-1.082,0.023c-0.185,0.021-1.609,0.377-1.896,0.391l-0.307-0.027l-0.948,0.279l-0.613-0.084
		l-0.334-0.195c-0.321-0.268-0.963-1.506-1.003-1.561l-0.67-0.67c-0.125-0.146-0.729-1.054-0.893-1.144
		c-0.188-0.103-1.547-0.207-1.729-0.224l-0.863-0.137c-0.504-0.721-0.383-0.844-0.447-0.947l-0.305-0.28l-0.586-0.224
		c-0.169-0.033-0.604,0.026-1.478-0.168c-0.324-0.879-0.13-0.473-0.168-0.808c-0.021-0.192-0.302-0.565-0.334-0.586
		c-0.123-0.075-1.769-0.078-1.867-0.058l-0.222,0.113l-0.727,0.92l-0.222,0.084l-0.418,0.25l-0.921,0.084
		c-0.385-0.018-0.428-0.183-0.641-0.307l-0.643-0.279l-0.139-0.223l-0.42-0.167c-0.18-0.021-1.936,0.445-2.006,0.446l-0.279-0.057
		l-0.641-0.584l-0.697-0.56c-0.74-0.612-0.012-0.119-1.227-0.362c-0.07-0.234-0.146-0.5-0.363-0.669
		c-0.192-0.149-0.533-0.161-0.642-0.112c-0.28,0.133-1.138,1.83-1.338,2.203l-0.476,0.14l-0.416-0.278l-0.084-0.447l-0.027-0.584
		l0.139-0.418c0.042-0.059,0.322-0.146,0.529-0.558c0.055-0.149,0.006-0.382-0.027-0.529l-0.251-0.084l-0.475,0.084l-0.445,0.252
		l-0.335,0.669l-1.227,0.695l-1.227,0.561c-0.222,0.099-0.505,0.188-0.586,0.444c-0.105,0.339,0.191,0.106-0.334,0.585L97.3,89.576
		l-0.641-0.057l-0.197,0.084l-0.083,0.307l-0.612,0.642l-0.025,1.005l-0.225,0.277l-0.361,0.057l-0.362,0.307l-0.53,1.004
		l-0.056,0.558l-0.808,0.14c-0.125,0.451-0.084,0.465-0.084,0.976c-0.645,0.129-0.184-0.071-0.836,0
		c-0.393,0.545-0.221,0.562-0.028,0.921l0.335,0.669l0.306,0.308l0.056,1.254c-0.006,0.015-0.326,0.379-0.36,0.641
		c-0.022,0.887,0.448,1.562,0.528,2.536c0.004,0.247-0.176,0.789-0.279,1.005l-0.391,0.669l-0.642,0.308
		c-0.788,0.447-1.051,0.807-1.198,1.699c-1.076,0.674-1.07,0.909-1.422,1.95c-0.222,0.662-0.611,1.583-0.779,2.286l-0.224,1.255
		l0.11,0.669c0.084,0.173,0.287,0.294,0.474,0.279c0.2-0.016,0.356-0.188,0.502-0.307l0.224,0.026
		c0.136,0.243,0.181,0.229,0.057,0.558c-0.135,0.271-0.545,0.57-0.643,0.67l-0.558,0.696l-0.528,0.642l-0.308,1.312
		c-0.051,0.319-0.024,0.338,0.058,0.558l0.475,0.168l0.082,0.528l-0.277,0.334l0.083,0.224c0.88,0.293,0.804,0.804,1.198,1.031
		l0.669,0.307l0.67,0.92l0.726,0.947l2.368,3.931l0.56,1.562l1.311,1.951l0.696,0.528c0.108,0.165,0.196,0.837,0.196,0.837
		l0.25,0.502l0.779,0.809l1.562,0.892l3.539,1.477c0.451,0.205,1.755,0.854,2.146,1.144l0.754,0.67
		c0.336,0.332,0.442,0.548,0.696,0.947l0.362,1.254v1.533l-0.194,2.229l-0.085,1.312l-0.225,1.364l0.086,1.785l-0.922,4.458
		l-0.139,0.335l-0.139,0.444c-0.109,0.252-0.061,0.041-0.225,0.531c0.396,0.657,0.635,0.723,0.418,1.588l-0.306,0.975l0.056-0.025
		c-0.215,1.33-0.145,0.557,0,1.477l0.111,1.281l-0.14,0.67l0.084,0.641l-0.111,1.005c-0.003,0.569,0.185,0.249-0.139,1.197
		l-0.308,0.808l-0.168,0.252l-0.416,1.227l-0.225,0.894c-0.312,0.097-0.38,0.083-0.641,0.362c-0.182,0.214-0.273,0.393-0.334,0.695
		c-0.016,0.162,0.191,1.177,0.252,1.394c0.191,0.729,0.191,0.226-0.086,1.116l-0.166,0.474c-0.239,0.58-0.408,1.742-0.362,2.343
		l0.083,0.558c0.3,0.085,0.279,0.046,0.695,0l0.197-0.308l0.193-0.027l0.057,0.14c-0.149,0.338-0.119,0.171-0.057,0.613
		c0.135,0.938,0.096,0.479-0.139,1.338l-0.139,0.612l0.057,0.726l0.334,0.696l-0.225,0.111l-0.334,0.392
		c-0.062,0.147,0.027,0.823,0.027,0.919l-0.057,0.586c-0.406,0.135-0.56,0.084-1.086,0.084l-0.168-0.223
		c-0.277-0.03-0.185-0.036-0.444,0c-0.106,0.191-0.183,0.293-0.169,0.584c0.006,0.108,0.079,0.43,0.169,0.502
		c0.137,0.113,0.836,0.101,0.862,0.111l0.307,0.308l-0.475,0.307c0.525,0.655,0.099-0.015,0.754,0.642
		c-0.168,0.166-0.108,0.146-0.223,0.307c-0.138,0.189-0.334,0.306-0.363,0.669l0.057,0.642l0.223,0.252l-0.169,0.391l-0.307,0.334
		l-0.222,0.027l-0.027,0.25l0.277,0.364l0.059,0.584c0.011,0.359-0.146,0.019,0.083,1.229c0.541,0.202,0.481,0.411,0.921,0.946
		l0.307-0.027l0.361,0.086l0.252,0.25c0.004,0.007,0.014,0.457,0.111,0.558l0.251,0.111l0.333,0.223l0.643,0.057l0.613,0.278h0.335
		c0.218-0.238,0.681-0.778,0.946-0.92c0.188-0.1,0.902-0.225,1.449-0.529c0.074-0.301,0.057-0.197,0.057-0.528
		c0-0.388,0.043-0.239-0.195-0.613c0.206-0.409,0.176-0.247,0.139-0.668l0.643-0.669l0.306-0.643l0.308-0.334l0.598-0.037
		l0.391-0.92l0.252-0.027l0.92-1.002c0.352-0.447,0.176-0.451,0.613-0.727c0.008-0.175,0.068-0.666-0.058-0.809l-1.281-0.668
		l-0.251-0.612v-0.392l0.223-0.586l0.612-0.334l1.283-0.026l0.642-0.335l0.278-0.361l-0.026-0.613l0.473-1.004l0.141-0.584
		l0.307-0.336l0.308-0.109l0.333,0.083l0.222-0.14c0.056-0.074,0.065-0.455,0.028-0.529l-0.278-0.25l-0.67-0.057l-0.194-0.084
		l-0.475-1.477l0.083-0.225l0.53-0.139l0.641,0.057l0.391,0.195c0.441,0.129,1.567-0.059,2.035-0.111l0.082-0.252l0.029-0.946
		l0.195-0.308l0.082-1.17l0.279-0.111l0.643,0.279l0.947-0.084l0.612-0.252l0.921-0.111l3.707-1.699l0.5-0.334l0.502-0.643
		c0.118-0.227,0.266-1.013,0.28-1.281c0.011-0.233-0.035-1.323-0.14-1.533l-1.449-1.588v-0.502l0.004-0.012l0,0
		c0.439-0.06,0.579,0.043,1.057,0.123c0.463,0.077,2.953,0.396,3.203,0.391c0.377-0.01,1.504-0.227,1.84-0.363
		c0.572-0.271,1.276-0.691,1.812-1.061l1.003-0.946l0.224-0.112l0.307-0.586c0,0,0.057-0.561,0.111-0.668l0.558-0.557
		c0.005-0.004,0.339,0.002,0.642-0.196c0.355-0.231,0.244-0.358,0.307-0.528l0.196-0.334l0.193-0.642
		c0.394-0.81,3.776-4.067,3.848-4.265l0.529-2.537c0.034-0.526-0.195-0.428-0.308-0.642l-0.109-0.669
		c0.009-0.436,0.328-0.58,0.361-0.613l0.279-0.391c0.215-0.207,0.668-0.333,0.67-0.334l0.557-0.611l0.445-0.67l0.781-0.642
		c0.508-0.335,1.391-0.58,1.561-0.67l0.977-0.696l0.893-0.279l0.39-0.39l0.14-0.333l0.391-0.279h0.668l0.643,0.252l0.111-0.252
		c0.748-0.209,0.636-0.176,1.451-0.14v-0.026l0.443-0.084l0.922-0.67l0.61-0.668l0.308-0.279l0.307-0.696l0.586-0.948l0.307-0.641
		c0.512-0.985,0.451-0.643,0.836-1.115c0.51-0.698,0.325-0.587,0.393-0.864l0.25-0.642l0.058-0.643l0.222-0.361
		c0-0.002,0.002-1.047,0.057-1.199c0.076-0.211,0.82-0.973,0.837-1.002l0.194-0.641l-0.194-0.67c-0.058-0.402,0.14-0.49,0.194-0.697
		c0.084-0.502,0.029-1.33,0-1.838c-0.066-1.17-0.047-0.929-0.279-2.092c0.246-0.244,0.138-0.096,0.225-0.447
		c0.082-0.34,0.141-0.221,0.223-0.361c0.067-0.117,0.111-0.611,0.111-0.613l0.251-0.277l0.279-0.058l0.334-0.362
		c0.438-0.455,0.257-0.194,0.586-0.947c0.435-0.998,0.34-0.701,0.92-1.616l0.39-0.642l1.283-1.617l0.194-0.334
		c0.347-0.559,0.33-0.381,0.558-0.975c0.627-1.642,1.088-1.962,1.088-3.875C163.371,109.159,163.435,108.827,163.259,108.139z
		 M89.198,113.379l-0.475-0.419l0.475,0.39l0.193,0.67L89.198,113.379z M108.933,132.946c-0.037,0.028-0.147,0.061-0.283,0.091
		c0.111-0.031,0.216-0.068,0.283-0.118c0.029-0.021,0.055-0.048,0.07-0.079C108.983,132.887,108.96,132.926,108.933,132.946z
		 M109.06,132.641c0.006-0.072,0.002-0.148-0.011-0.225l0.022,0.084C109.073,132.532,109.067,132.584,109.06,132.641z"/>
	<path fill="#4C90CD" d="M110.493,186.213l-0.528-0.612l-0.278-0.643l-0.391-0.167h-0.585l-0.978,0.419l-0.137,0.223l0.081,0.251
		l0.503,0.083l-0.391,0.254v0.167l0.391,0.167l-0.029,0.419l-0.305,0.083l-0.502-0.141l-0.502,0.027
		c-0.146,0.061-0.326,0.348-0.334,0.503l0.084,0.333l0.334,0.223l0.977,0.168l0.809-0.139l0.643-0.39l0.474,0.083l0.586,0.278
		l0.752,0.111c0.612,0.077,0.799,0.083,1.394,0.083l-0.392-0.527C111.978,187.272,110.571,186.283,110.493,186.213z"/>
	<path fill="#4C90CD" d="M120.167,182.422l-0.782,0.083c-0.646,1.423-0.631,0.445-0.694,1.394l0.193,0.195l0.391-0.084
		c0.168-0.091,0.385-0.549,0.391-0.558l0.252-0.195l0.475-0.446l-0.029-0.307L120.167,182.422z"/>
	<path fill="#4C90CD" d="M121.896,182.198l-0.279,0.085c-0.328,0.162-0.693,0.714-0.78,0.78c-0.347,0.208-0.308,0.033-0.417,0.307
		h0.893l0.584-0.307l0.252-0.308l-0.057-0.417L121.896,182.198z"/>
</g>
</svg>
